0
SECTION
2
HEADER
9
$ACADVER
1
AC1009
0
ENDSEC
0
SECTION
2
TABLES
0
TABLE
2
LTYPE
70
1
0
LTYPE
2
CONTINUOUS
70
0
3
Solid line
72
65
73
0
40
0
0
ENDTAB
0
TABLE
2
LAYER
70
11
0
LAYER
2
0
70
0
62
7
6
CONTINUOUS
0
LAYER
2
FRAME
70
0
62
3
6
CONTINUOUS
0
LAYER
2
NODES
70
0
62
5
6
CONTINUOUS
0
LAYER
2
NODE_TEXT
70
0
62
7
6
CONTINUOUS
0
LAYER
2
ROUTE_TEXT
70
0
62
7
6
CONTINUOUS
0
LAYER
2
TITLE
70
0
62
7
6
CONTINUOUS
0
LAYER
2
NOTES
70
0
62
8
6
CONTINUOUS
0
LAYER
2
REVIEW
70
0
62
1
6
CONTINUOUS
0
LAYER
2
DUCT-4W-7_3_5
70
0
62
7
6
CONTINUOUS
0
LAYER
2
DUCT-12W-12_8
70
0
62
7
6
CONTINUOUS
0
LAYER
2
FO-24C
70
0
62
7
6
CONTINUOUS
0
ENDTAB
0
TABLE
2
STYLE
70
1
0
STYLE
2
STANDARD
70
0
40
0
41
1
50
0
71
0
42
2.5
3
txt.shx
4

0
ENDTAB
0
ENDSEC
0
SECTION
2
BLOCKS
0
ENDSEC
0
SECTION
2
ENTITIES
0
LINE
8
FRAME
62
3
10
7
20
7
30
0
11
413
21
7
31
0
0
LINE
8
FRAME
62
3
10
413
20
7
30
0
11
413
21
290
31
0
0
LINE
8
FRAME
62
3
10
413
20
290
30
0
11
7
21
290
31
0
0
LINE
8
FRAME
62
3
10
7
20
290
30
0
11
7
21
7
31
0
0
LINE
8
FRAME
62
3
10
8.5
20
8.5
30
0
11
411.5
21
8.5
31
0
0
LINE
8
FRAME
62
3
10
411.5
20
8.5
30
0
11
411.5
21
288.5
31
0
0
LINE
8
FRAME
62
3
10
411.5
20
288.5
30
0
11
8.5
21
288.5
31
0
0
LINE
8
FRAME
62
3
10
8.5
20
288.5
30
0
11
8.5
21
8.5
31
0
0
LINE
8
DUCT-4W-7_3_5
62
7
10
76.02
20
176.4125
30
0
11
90.4838
21
176.4125
31
0
0
LINE
8
DUCT-4W-7_3_5
62
7
10
90.4838
20
176.4125
30
0
11
90.4838
21
169.4139
31
0
0
TEXT
8
ROUTE_TEXT
62
7
10
86.7512
20
183.495
30
0
40
1.55
1
MAIN-01
50
0
7
STANDARD
0
TEXT
8
ROUTE_TEXT
62
7
10
86.7512
20
180.895
30
0
40
1.25
1
4W | 7/3.5 | FO-24C | 24C | 89.98m
50
0
7
STANDARD
0
LINE
8
DUCT-4W-7_3_5
62
7
10
101.4176
20
172.3525
30
0
11
113.575
21
222.0875
31
0
0
LINE
8
DUCT-4W-7_3_5
62
7
10
113.575
20
222.0875
30
0
11
126.77
21
222.0875
31
0
0
TEXT
8
ROUTE_TEXT
62
7
10
109.0629
20
210.7113
30
0
40
1.55
1
BRANCH-01
50
0
7
STANDARD
0
TEXT
8
ROUTE_TEXT
62
7
10
109.0629
20
208.1113
30
0
40
1.25
1
4W | 7/3.5 | FO-24C | 24C | 111.3m
50
0
7
STANDARD
0
LINE
8
DUCT-12W-12_8
62
7
10
102.317
20
157.635
30
0
11
113.575
21
126.9312
31
0
0
LINE
8
DUCT-12W-12_8
62
7
10
113.575
20
126.9312
30
0
11
126.77
21
126.9312
31
0
0
TEXT
8
ROUTE_TEXT
62
7
10
110.2172
20
143.1714
30
0
40
1.55
1
BRANCH-02
50
0
7
STANDARD
0
TEXT
8
ROUTE_TEXT
62
7
10
110.2172
20
140.5714
30
0
40
1.25
1
12W | 12/8 | FO-24C | 24C | 27.24m
50
0
7
STANDARD
0
LINE
8
DUCT-4W-7_3_5
62
7
10
186.0347
20
171.3375
30
0
11
193.2525
21
171.3375
31
0
0
LINE
8
DUCT-4W-7_3_5
62
7
10
193.2525
20
171.3375
30
0
11
193.2525
21
176.5343
31
0
0
TEXT
8
ROUTE_TEXT
62
7
10
192.242
20
178.42
30
0
40
1.55
1
DISTRIBUTION-LONG-LABEL-FOR-AUTO-SIZE
50
0
7
STANDARD
0
TEXT
8
ROUTE_TEXT
62
7
10
192.242
20
175.82
30
0
40
1.25
1
4W | 7/3.5 | FO-24C | 24C | 54.62m
50
0
7
STANDARD
0
LINE
8
FO-24C
62
7
10
212.0593
20
194.4287
30
0
11
230.3
21
217.0125
31
0
0
LINE
8
FO-24C
62
7
10
230.3
20
217.0125
30
0
11
246.0325
21
217.0125
31
0
0
TEXT
8
ROUTE_TEXT
62
7
10
226.1223
20
218.9226
30
0
40
1.55
1
FIBER-01
50
0
7
STANDARD
0
TEXT
8
ROUTE_TEXT
62
7
10
226.1223
20
216.3226
30
0
40
1.25
1
24C | 42.6m
50
0
7
STANDARD
0
LINE
8
FO-24C
62
7
10
208.8581
20
173.6212
30
0
11
230.3
21
130.7375
31
0
0
LINE
8
FO-24C
62
7
10
230.3
20
130.7375
30
0
11
246.0325
21
130.7375
31
0
0
TEXT
8
ROUTE_TEXT
62
7
10
223.097
20
152.2261
30
0
40
1.55
1
FIBER-02
50
0
7
STANDARD
0
TEXT
8
ROUTE_TEXT
62
7
10
223.097
20
149.6261
30
0
40
1.25
1
24C | 63.4m
50
0
7
STANDARD
0
LINE
8
NODES
62
5
10
44.3013
20
173.3675
30
0
11
76.2738
21
173.3675
31
0
0
LINE
8
NODES
62
5
10
76.2738
20
173.3675
30
0
11
76.2738
21
194.6825
31
0
0
LINE
8
NODES
62
5
10
76.2738
20
194.6825
30
0
11
44.3013
21
194.6825
31
0
0
LINE
8
NODES
62
5
10
44.3013
20
194.6825
30
0
11
44.3013
21
173.3675
31
0
0
TEXT
8
NODE_TEXT
62
7
10
46.5393
20
186.825
30
0
40
1.75
1
CAB-1
50
0
7
STANDARD
0
TEXT
8
NODE_TEXT
62
7
10
46.5393
20
183.825
30
0
40
1.1
1
NO 01 CORE 288
50
0
7
STANDARD
0
TEXT
8
NODE_TEXT
62
7
10
46.5393
20
181.525
30
0
40
1.1
1
PORT 144 TYPE MAIN-CAB-42U
50
0
7
STANDARD
0
TEXT
8
NODE_TEXT
62
7
10
46.5393
20
179.425
30
0
40
1
1
ODF ODF-144 SP -
50
0
7
STANDARD
0
TEXT
8
NODE_TEXT
62
8
10
46.5393
20
171.0675
30
0
40
1
1
42U Main Cabinet
50
0
7
STANDARD
0
LINE
8
NODES
62
5
10
155.9513
20
150.7837
30
0
11
187.9238
21
150.7837
31
0
0
LINE
8
NODES
62
5
10
187.9238
20
150.7837
30
0
11
187.9238
21
171.5913
31
0
0
LINE
8
NODES
62
5
10
187.9238
20
171.5913
30
0
11
155.9513
21
171.5913
31
0
0
LINE
8
NODES
62
5
10
155.9513
20
171.5913
30
0
11
155.9513
21
150.7837
31
0
0
TEXT
8
NODE_TEXT
62
7
10
158.1893
20
163.9875
30
0
40
1.75
1
CAB-2
50
0
7
STANDARD
0
TEXT
8
NODE_TEXT
62
7
10
158.1893
20
160.9875
30
0
40
1.1
1
NO 02 CORE 144
50
0
7
STANDARD
0
TEXT
8
NODE_TEXT
62
7
10
158.1893
20
158.6875
30
0
40
1.1
1
PORT 48 TYPE SUBCAB-22U
50
0
7
STANDARD
0
TEXT
8
NODE_TEXT
62
8
10
158.1893
20
148.4837
30
0
40
1
1
22U Sub Cabinet
50
0
7
STANDARD
0
LINE
8
NODES
62
3
10
126.77
20
213.46
30
0
11
151.13
21
213.46
31
0
0
LINE
8
NODES
62
3
10
151.13
20
213.46
30
0
11
151.13
21
230.715
31
0
0
LINE
8
NODES
62
3
10
151.13
20
230.715
30
0
11
126.77
21
230.715
31
0
0
LINE
8
NODES
62
3
10
126.77
20
230.715
30
0
11
126.77
21
213.46
31
0
0
TEXT
8
NODE_TEXT
62
7
10
128.4752
20
224.8875
30
0
40
1.75
1
TB-1
50
0
7
STANDARD
0
TEXT
8
NODE_TEXT
62
7
10
128.4752
20
221.8875
30
0
40
1.1
1
NO 1 CORE 96
50
0
7
STANDARD
0
TEXT
8
NODE_TEXT
62
7
10
128.4752
20
219.5875
30
0
40
1.1
1
PORT 16 TYPE TB-24C
50
0
7
STANDARD
0
TEXT
8
NODE_TEXT
62
8
10
128.4752
20
211.16
30
0
40
1
1
24-core Termination Box
50
0
7
STANDARD
0
LINE
8
NODES
62
3
10
126.77
20
118.3037
30
0
11
151.13
21
118.3037
31
0
0
LINE
8
NODES
62
3
10
151.13
20
118.3037
30
0
11
151.13
21
135.5587
31
0
0
LINE
8
NODES
62
3
10
151.13
20
135.5587
30
0
11
126.77
21
135.5587
31
0
0
LINE
8
NODES
62
3
10
126.77
20
135.5587
30
0
11
126.77
21
118.3037
31
0
0
TEXT
8
NODE_TEXT
62
7
10
128.4752
20
129.7312
30
0
40
1.75
1
TB-2
50
0
7
STANDARD
0
TEXT
8
NODE_TEXT
62
7
10
128.4752
20
126.7312
30
0
40
1.1
1
NO 2 CORE 96
50
0
7
STANDARD
0
TEXT
8
NODE_TEXT
62
7
10
128.4752
20
124.4312
30
0
40
1.1
1
PORT 16 TYPE TB-24C
50
0
7
STANDARD
0
TEXT
8
NODE_TEXT
62
8
10
128.4752
20
116.0037
30
0
40
1
1
24-core Termination Box
50
0
7
STANDARD
0
LINE
8
NODES
62
3
10
246.0325
20
208.385
30
0
11
270.3925
21
208.385
31
0
0
LINE
8
NODES
62
3
10
270.3925
20
208.385
30
0
11
270.3925
21
225.64
31
0
0
LINE
8
NODES
62
3
10
270.3925
20
225.64
30
0
11
246.0325
21
225.64
31
0
0
LINE
8
NODES
62
3
10
246.0325
20
225.64
30
0
11
246.0325
21
208.385
31
0
0
TEXT
8
NODE_TEXT
62
7
10
247.7377
20
219.8125
30
0
40
1.75
1
TB-3
50
0
7
STANDARD
0
TEXT
8
NODE_TEXT
62
7
10
247.7377
20
216.8125
30
0
40
1.1
1
NO 3 CORE 96
50
0
7
STANDARD
0
TEXT
8
NODE_TEXT
62
7
10
247.7377
20
214.5125
30
0
40
1.1
1
PORT 16 TYPE TB-24C
50
0
7
STANDARD
0
TEXT
8
NODE_TEXT
62
8
10
247.7377
20
206.085
30
0
40
1
1
24-core Termination Box
50
0
7
STANDARD
0
LINE
8
NODES
62
3
10
246.0325
20
122.11
30
0
11
270.3925
21
122.11
31
0
0
LINE
8
NODES
62
3
10
270.3925
20
122.11
30
0
11
270.3925
21
139.365
31
0
0
LINE
8
NODES
62
3
10
270.3925
20
139.365
30
0
11
246.0325
21
139.365
31
0
0
LINE
8
NODES
62
3
10
246.0325
20
139.365
30
0
11
246.0325
21
122.11
31
0
0
TEXT
8
NODE_TEXT
62
7
10
247.7377
20
133.5375
30
0
40
1.75
1
TB-4
50
0
7
STANDARD
0
TEXT
8
NODE_TEXT
62
7
10
247.7377
20
130.5375
30
0
40
1.1
1
NO 4 CORE 96
50
0
7
STANDARD
0
TEXT
8
NODE_TEXT
62
7
10
247.7377
20
128.2375
30
0
40
1.1
1
PORT 16 TYPE TB-24C
50
0
7
STANDARD
0
TEXT
8
NODE_TEXT
62
8
10
247.7377
20
119.81
30
0
40
1
1
24-core Termination Box
50
0
7
STANDARD
0
LINE
8
NODES
62
6
10
87.6925
20
156.6199
30
0
11
111.5451
21
156.6199
31
0
0
LINE
8
NODES
62
6
10
111.5451
20
156.6199
30
0
11
111.5451
21
173.3674
31
0
0
LINE
8
NODES
62
6
10
111.5451
20
173.3674
30
0
11
87.6925
21
173.3674
31
0
0
LINE
8
NODES
62
6
10
87.6925
20
173.3674
30
0
11
87.6925
21
156.6199
31
0
0
TEXT
8
NODE_TEXT
62
7
10
89.3622
20
167.7937
30
0
40
1.75
1
J-1
50
0
7
STANDARD
0
TEXT
8
NODE_TEXT
62
7
10
89.3622
20
164.7937
30
0
40
1.1
1
NO - CORE -
50
0
7
STANDARD
0
TEXT
8
NODE_TEXT
62
7
10
89.3622
20
162.4937
30
0
40
1.1
1
PORT - TYPE JOINT
50
0
7
STANDARD
0
TEXT
8
NODE_TEXT
62
8
10
89.3622
20
154.3199
30
0
40
1
1
Fiber Joint
50
0
7
STANDARD
0
LINE
8
NODES
62
7
10
191.73
20
173.6213
30
0
11
215.5825
21
173.6213
31
0
0
LINE
8
NODES
62
7
10
215.5825
20
173.6213
30
0
11
215.5825
21
194.4288
31
0
0
LINE
8
NODES
62
7
10
215.5825
20
194.4288
30
0
11
191.73
21
194.4288
31
0
0
LINE
8
NODES
62
7
10
191.73
20
194.4288
30
0
11
191.73
21
173.6213
31
0
0
TEXT
8
NODE_TEXT
62
7
10
193.3997
20
186.825
30
0
40
1.75
1
MH-1
50
0
7
STANDARD
0
TEXT
8
NODE_TEXT
62
7
10
193.3997
20
183.825
30
0
40
1.1
1
NO - CORE -
50
0
7
STANDARD
0
TEXT
8
NODE_TEXT
62
7
10
193.3997
20
181.525
30
0
40
1.1
1
PORT - TYPE MH-TEL
50
0
7
STANDARD
0
TEXT
8
NODE_TEXT
62
8
10
193.3997
20
171.3212
30
0
40
1
1
Telecom Manhole
50
0
7
STANDARD
0
LINE
8
FRAME
62
3
10
423
20
7
30
0
11
494
21
7
31
0
0
LINE
8
FRAME
62
3
10
494
20
7
30
0
11
494
21
290
31
0
0
LINE
8
FRAME
62
3
10
494
20
290
30
0
11
423
21
290
31
0
0
LINE
8
FRAME
62
3
10
423
20
290
30
0
11
423
21
7
31
0
0
TEXT
8
TITLE
62
7
10
426
20
283
30
0
40
3
1
N
50
0
7
STANDARD
0
TEXT
8
TITLE
62
7
10
436
20
283
30
0
40
2.5
1
LEGEND
50
0
7
STANDARD
0
LINE
8
NODES
62
5
10
426
20
269.5
30
0
11
430
21
269.5
31
0
0
LINE
8
NODES
62
5
10
430
20
269.5
30
0
11
430
21
273.5
31
0
0
LINE
8
NODES
62
5
10
430
20
273.5
30
0
11
426
21
273.5
31
0
0
LINE
8
NODES
62
5
10
426
20
273.5
30
0
11
426
21
269.5
31
0
0
TEXT
8
TITLE
62
7
10
433
20
271
30
0
40
1.25
1
42U Main Cabinet
50
0
7
STANDARD
0
LINE
8
NODES
62
5
10
426
20
263.5
30
0
11
430
21
263.5
31
0
0
LINE
8
NODES
62
5
10
430
20
263.5
30
0
11
430
21
267.5
31
0
0
LINE
8
NODES
62
5
10
430
20
267.5
30
0
11
426
21
267.5
31
0
0
LINE
8
NODES
62
5
10
426
20
267.5
30
0
11
426
21
263.5
31
0
0
TEXT
8
TITLE
62
7
10
433
20
265
30
0
40
1.25
1
22U Sub Cabinet
50
0
7
STANDARD
0
LINE
8
NODES
62
3
10
426
20
257.5
30
0
11
430
21
257.5
31
0
0
LINE
8
NODES
62
3
10
430
20
257.5
30
0
11
430
21
261.5
31
0
0
LINE
8
NODES
62
3
10
430
20
261.5
30
0
11
426
21
261.5
31
0
0
LINE
8
NODES
62
3
10
426
20
261.5
30
0
11
426
21
257.5
31
0
0
TEXT
8
TITLE
62
7
10
433
20
259
30
0
40
1.25
1
24-core Termination Box
50
0
7
STANDARD
0
LINE
8
NODES
62
6
10
426
20
251.5
30
0
11
430
21
251.5
31
0
0
LINE
8
NODES
62
6
10
430
20
251.5
30
0
11
430
21
255.5
31
0
0
LINE
8
NODES
62
6
10
430
20
255.5
30
0
11
426
21
255.5
31
0
0
LINE
8
NODES
62
6
10
426
20
255.5
30
0
11
426
21
251.5
31
0
0
TEXT
8
TITLE
62
7
10
433
20
253
30
0
40
1.25
1
Fiber Joint
50
0
7
STANDARD
0
LINE
8
DUCT-4W-7_3_5
62
7
10
426
20
248
30
0
11
433
21
248
31
0
0
TEXT
8
TITLE
62
7
10
435
20
247
30
0
40
1.25
1
4-way 7/3.5 Microduct
50
0
7
STANDARD
0
LINE
8
DUCT-12W-12_8
62
7
10
426
20
242
30
0
11
433
21
242
31
0
0
TEXT
8
TITLE
62
7
10
435
20
241
30
0
40
1.25
1
12-way 12/8 Microduct
50
0
7
STANDARD
0
LINE
8
FO-24C
62
7
10
426
20
236
30
0
11
433
21
236
31
0
0
TEXT
8
TITLE
62
7
10
435
20
235
30
0
40
1.25
1
24-core Fiber Cable
50
0
7
STANDARD
0
LINE
8
FRAME
62
3
10
423
20
194
30
0
11
494
21
194
31
0
0
TEXT
8
TITLE
62
8
10
426
20
191.1
30
0
40
1
1
PROJECT
50
0
7
STANDARD
0
TEXT
8
TITLE
62
7
10
426
20
188
30
0
40
1.4
1
First Fiber Optical
50
0
7
STANDARD
0
LINE
8
FRAME
62
3
10
423
20
181
30
0
11
494
21
181
31
0
0
TEXT
8
TITLE
62
8
10
426
20
178.1
30
0
40
1
1
SITE
50
0
7
STANDARD
0
TEXT
8
TITLE
62
7
10
426
20
175
30
0
40
1.4
1
Test Site
50
0
7
STANDARD
0
LINE
8
FRAME
62
3
10
423
20
168
30
0
11
494
21
168
31
0
0
TEXT
8
TITLE
62
8
10
426
20
165.1
30
0
40
1
1
DRAWING NO
50
0
7
STANDARD
0
TEXT
8
TITLE
62
7
10
426
20
162
30
0
40
1.4
1
P001-CAD-TEST
50
0
7
STANDARD
0
LINE
8
FRAME
62
3
10
423
20
155
30
0
11
494
21
155
31
0
0
TEXT
8
TITLE
62
8
10
426
20
152.1
30
0
40
1
1
TITLE
50
0
7
STANDARD
0
TEXT
8
TITLE
62
7
10
426
20
149
30
0
40
1.4
1
Secondary Fiber Network
50
0
7
STANDARD
0
LINE
8
FRAME
62
3
10
423
20
142
30
0
11
494
21
142
31
0
0
TEXT
8
TITLE
62
8
10
426
20
139.1
30
0
40
1
1
CLIENT
50
0
7
STANDARD
0
TEXT
8
TITLE
62
7
10
426
20
136
30
0
40
1.4
1
Optimum Client
50
0
7
STANDARD
0
LINE
8
FRAME
62
3
10
423
20
129
30
0
11
494
21
129
31
0
0
TEXT
8
TITLE
62
8
10
426
20
126.1
30
0
40
1
1
CONSULTANT
50
0
7
STANDARD
0
TEXT
8
TITLE
62
7
10
426
20
123
30
0
40
1.4
1
Optimum Consultant
50
0
7
STANDARD
0
LINE
8
FRAME
62
3
10
423
20
116
30
0
11
494
21
116
31
0
0
TEXT
8
TITLE
62
8
10
426
20
113.1
30
0
40
1
1
COMPANY
50
0
7
STANDARD
0
TEXT
8
TITLE
62
7
10
426
20
110
30
0
40
1.4
1
Optimum Management
50
0
7
STANDARD
0
LINE
8
FRAME
62
3
10
423
20
103
30
0
11
494
21
103
31
0
0
TEXT
8
TITLE
62
8
10
426
20
100.1
30
0
40
1
1
REVISION
50
0
7
STANDARD
0
TEXT
8
TITLE
62
7
10
426
20
97
30
0
40
1.4
1
R1
50
0
7
STANDARD
0
LINE
8
FRAME
62
3
10
423
20
90
30
0
11
494
21
90
31
0
0
TEXT
8
TITLE
62
8
10
426
20
87.1
30
0
40
1
1
STATUS
50
0
7
STANDARD
0
TEXT
8
TITLE
62
7
10
426
20
84
30
0
40
1.4
1
DRAFT
50
0
7
STANDARD
0
LINE
8
FRAME
62
3
10
423
20
77
30
0
11
494
21
77
31
0
0
TEXT
8
TITLE
62
8
10
426
20
74.1
30
0
40
1
1
SCALE
50
0
7
STANDARD
0
TEXT
8
TITLE
62
7
10
426
20
71
30
0
40
1.4
1
NTS
50
0
7
STANDARD
0
LINE
8
FRAME
62
3
10
423
20
64
30
0
11
494
21
64
31
0
0
TEXT
8
TITLE
62
8
10
426
20
61.1
30
0
40
1
1
DATE
50
0
7
STANDARD
0
TEXT
8
TITLE
62
7
10
426
20
58
30
0
40
1.4
1
2026-08-05
50
0
7
STANDARD
0
ENDSEC
0
EOF
