0
SECTION
2
HEADER
9
$ACADVER
1
AC1015
9
$INSUNITS
70
4
9
$EXTMIN
10
0
20
0
9
$EXTMAX
10
511
20
297
0
ENDSEC
0
SECTION
2
TABLES
0
TABLE
2
LTYPE
70
2
0
LTYPE
2
CONTINUOUS
70
0
3
Solid line
72
65
73
0
40
0
0
LTYPE
2
DASHED
70
0
3
Dashed __ __
72
65
73
2
40
6
49
4
74
0
49
-2
74
0
0
ENDTAB
0
TABLE
2
LAYER
70
10
0
LAYER
2
FRAME
70
0
62
3
420
1276501
6
CONTINUOUS
370
35
0
LAYER
2
NODES
70
0
62
1
420
14427686
6
CONTINUOUS
370
35
0
LAYER
2
NODE_TEXT
70
0
62
7
420
1120295
6
CONTINUOUS
370
18
0
LAYER
2
ROUTE_TEXT
70
0
62
7
420
1120295
6
CONTINUOUS
370
18
0
LAYER
2
TITLE
70
0
62
7
420
1120295
6
CONTINUOUS
370
18
0
LAYER
2
NOTES
70
0
62
8
420
3359061
6
CONTINUOUS
370
18
0
LAYER
2
REVIEW
70
0
62
1
420
15680580
6
CONTINUOUS
370
25
0
LAYER
2
DUCT_12W
70
0
62
6
420
8141549
6
CONTINUOUS
370
35
0
LAYER
2
DUCT_4W
70
0
62
3
420
1483594
6
CONTINUOUS
370
35
0
LAYER
2
FO_24C
70
0
62
1
420
14753096
6
CONTINUOUS
370
35
0
ENDTAB
0
TABLE
2
STYLE
70
1
0
STYLE
2
OPTIMUM_AR
70
0
40
0
41
1
50
0
71
0
42
2.5
3
Arial.ttf
4

0
ENDTAB
0
ENDSEC
0
SECTION
2
ENTITIES
0
LWPOLYLINE
8
FRAME
90
5
70
0
10
8
20
8
10
412
20
8
10
412
20
289
10
8
20
289
10
8
20
8
0
LWPOLYLINE
8
FRAME
90
5
70
0
10
10
20
10
10
410
20
10
10
410
20
287
10
10
20
287
10
10
20
10
0
LWPOLYLINE
8
FRAME
90
5
70
0
10
423
20
8
10
503
20
8
10
503
20
289
10
423
20
289
10
423
20
8
0
LINE
8
FRAME
10
420
20
64
30
0
11
503
21
64
31
0
0
LINE
8
FRAME
10
420
20
112
30
0
11
503
21
112
31
0
0
LINE
8
FRAME
10
420
20
184
30
0
11
503
21
184
31
0
0
LINE
8
FRAME
10
420
20
248
30
0
11
503
21
248
31
0
0
LWPOLYLINE
8
DUCT_12W
90
4
70
0
10
69.2313
20
168.7
10
109
20
168.7
10
109
20
219.2
10
153.945
20
219.2
0
MTEXT
8
ROUTE_TEXT
10
109
20
196.5381
30
0
40
2.2
41
72
50
0
71
1
72
1
7
OPTIMUM_AR
1
MAIN-01
0
MTEXT
8
ROUTE_TEXT
10
109
20
193.2381
30
0
40
2.2
41
72
50
0
71
1
72
1
7
OPTIMUM_AR
1
\U+0631\U+0626\U+064A\U+0633\U+064A / \U+0623\U+0631\U+0636\U+064A
0
MTEXT
8
ROUTE_TEXT
10
109
20
189.9381
30
0
40
2.2
41
72
50
0
71
1
72
1
7
OPTIMUM_AR
1
FO-24C | 12W | 24C | 2 cables | spare 10m | 105 m | CAB-01 \U+2192 TB-01
0
LWPOLYLINE
8
DUCT_4W
90
4
70
0
10
175.155
20
219.2
10
220.1
20
219.2
10
220.1
20
168.7
10
265.045
20
168.7
0
MTEXT
8
ROUTE_TEXT
10
220.1
20
193.95
30
0
40
2.2
41
72
50
0
71
1
72
1
7
OPTIMUM_AR
1
BRANCH-A
0
MTEXT
8
ROUTE_TEXT
10
220.1
20
190.65
30
0
40
2.2
41
72
50
0
71
1
72
1
7
OPTIMUM_AR
1
\U+062B\U+0627\U+0646\U+0648\U+064A / \U+0623\U+0631\U+0636\U+064A
0
MTEXT
8
ROUTE_TEXT
10
220.1
20
187.35
30
0
40
2.2
41
72
50
0
71
1
72
1
7
OPTIMUM_AR
1
FO-24C | 4W | 24C | spare 6m | 210 m | TB-01 \U+2192 TB-02
0
LWPOLYLINE
8
FO_24C
90
3
70
0
10
164.55
20
211.625
10
164.55
20
92.95
10
194.345
20
92.95
0
MTEXT
8
ROUTE_TEXT
10
164.55
20
137.39
30
0
40
2.2
41
72
50
0
71
1
72
1
7
OPTIMUM_AR
1
DROP-03
0
MTEXT
8
ROUTE_TEXT
10
164.55
20
134.09
30
0
40
2.2
41
72
50
0
71
1
72
1
7
OPTIMUM_AR
1
\U+062A\U+0648\U+0635\U+064A\U+0644\U+0629 / \U+0647\U+0648\U+0627\U+0626\U+064A
0
MTEXT
8
ROUTE_TEXT
10
164.55
20
130.79
30
0
40
2.2
41
72
50
0
71
1
72
1
7
OPTIMUM_AR
1
FO-24C | 1W | 24C | spare 5m | 155 m | TB-01 \U+2192 TB-03
0
LWPOLYLINE
8
NODES
90
5
70
0
10
37.6688
20
158.095
10
69.2313
20
158.095
10
69.2313
20
179.305
10
37.6688
20
179.305
10
37.6688
20
158.095
0
MTEXT
8
NODE_TEXT
10
53.45
20
171.2
30
0
40
2.15
41
72
50
0
71
1
72
1
7
OPTIMUM_AR
1
CAB-01
0
MTEXT
8
NODE_TEXT
10
53.45
20
168.1
30
0
40
2.15
41
72
50
0
71
1
72
1
7
OPTIMUM_AR
1
\U+0631\U+0626\U+064A\U+0633\U+064A | \U+0631\U+0642\U+0645 01 | 144 \U+0643\U+0648\U+0631
0
MTEXT
8
NODE_TEXT
10
53.45
20
165
30
0
40
2.15
41
72
50
0
71
1
72
1
7
OPTIMUM_AR
1
ODF-144 | SP-1X8 | \U+0643\U+0648\U+0631 1-144
0
LWPOLYLINE
8
NODES
90
5
70
0
10
153.945
20
211.625
10
175.155
20
211.625
10
175.155
20
226.775
10
153.945
20
226.775
10
153.945
20
211.625
0
MTEXT
8
NODE_TEXT
10
164.55
20
221.7
30
0
40
2.15
41
72
50
0
71
1
72
1
7
OPTIMUM_AR
1
TB-01
0
MTEXT
8
NODE_TEXT
10
164.55
20
218.6
30
0
40
2.15
41
72
50
0
71
1
72
1
7
OPTIMUM_AR
1
\U+062B\U+0627\U+0646\U+0648\U+064A | \U+0631\U+0642\U+0645 11 | 24 \U+0643\U+0648\U+0631
0
MTEXT
8
NODE_TEXT
10
164.55
20
215.5
30
0
40
2.15
41
72
50
0
71
1
72
1
7
OPTIMUM_AR
1
ODF-144 | SP-1X8 | \U+0643\U+0648\U+0631 1-8
0
LWPOLYLINE
8
NODES
90
5
70
0
10
265.045
20
161.125
10
286.255
20
161.125
10
286.255
20
176.275
10
265.045
20
176.275
10
265.045
20
161.125
0
MTEXT
8
NODE_TEXT
10
275.65
20
171.2
30
0
40
2.15
41
72
50
0
71
1
72
1
7
OPTIMUM_AR
1
TB-02
0
MTEXT
8
NODE_TEXT
10
275.65
20
168.1
30
0
40
2.15
41
72
50
0
71
1
72
1
7
OPTIMUM_AR
1
\U+0646\U+0647\U+0627\U+0626\U+064A | \U+0631\U+0642\U+0645 12 | 48 \U+0643\U+0648\U+0631
0
MTEXT
8
NODE_TEXT
10
275.65
20
165
30
0
40
2.15
41
72
50
0
71
1
72
1
7
OPTIMUM_AR
1
ODF-144 | SP-1X8 | \U+0643\U+0648\U+0631 9-24
0
LWPOLYLINE
8
NODES
90
5
70
0
10
194.345
20
85.375
10
215.555
20
85.375
10
215.555
20
100.525
10
194.345
20
100.525
10
194.345
20
85.375
0
MTEXT
8
NODE_TEXT
10
204.95
20
95.45
30
0
40
2.15
41
72
50
0
71
1
72
1
7
OPTIMUM_AR
1
TB-03
0
MTEXT
8
NODE_TEXT
10
204.95
20
92.35
30
0
40
2.15
41
72
50
0
71
1
72
1
7
OPTIMUM_AR
1
\U+0646\U+0647\U+0627\U+0626\U+064A | \U+0631\U+0642\U+0645 13 | 24 \U+0643\U+0648\U+0631
0
MTEXT
8
NODE_TEXT
10
204.95
20
89.25
30
0
40
2.15
41
72
50
0
71
1
72
1
7
OPTIMUM_AR
1
ODF-144 | SP-1X8 | \U+0643\U+0648\U+0631 25-32
0
MTEXT
8
TITLE
10
427
20
279
30
0
40
3.5
41
72
50
0
71
1
72
1
7
OPTIMUM_AR
1
LEGEND / \U+0627\U+0644\U+0631\U+0645\U+0648\U+0632
0
LINE
8
DUCT_12W
10
427
20
268
30
0
11
439
21
268
31
0
0
MTEXT
8
TITLE
10
442
20
267
30
0
40
2
41
72
50
0
71
1
72
1
7
OPTIMUM_AR
1
\U+0645\U+064A\U+0643\U+0631\U+0648 \U+062F\U+0643\U+062A 12 \U+0645\U+0633\U+0627\U+0631 12/8
0
LINE
8
DUCT_4W
10
427
20
261
30
0
11
439
21
261
31
0
0
MTEXT
8
TITLE
10
442
20
260
30
0
40
2
41
72
50
0
71
1
72
1
7
OPTIMUM_AR
1
\U+0645\U+064A\U+0643\U+0631\U+0648 \U+062F\U+0643\U+062A 4 \U+0645\U+0633\U+0627\U+0631 7/3.5
0
LINE
8
FO_24C
10
427
20
254
30
0
11
439
21
254
31
0
0
MTEXT
8
TITLE
10
442
20
253
30
0
40
2
41
72
50
0
71
1
72
1
7
OPTIMUM_AR
1
\U+0643\U+0627\U+0628\U+0644 \U+0641\U+0627\U+064A\U+0628\U+0631 24 \U+0643\U+0648\U+0631
0
MTEXT
8
TITLE
10
427
20
179
30
0
40
1.65
41
72
50
0
71
1
72
1
7
OPTIMUM_AR
1
PROJECT / \U+0627\U+0644\U+0645\U+0634\U+0631\U+0648\U+0639
0
MTEXT
8
TITLE
10
427
20
175
30
0
40
2.4
41
72
50
0
71
1
72
1
7
OPTIMUM_AR
1
Fiber Network P001
0
MTEXT
8
TITLE
10
427
20
168
30
0
40
1.65
41
72
50
0
71
1
72
1
7
OPTIMUM_AR
1
SITE / \U+0627\U+0644\U+0645\U+0648\U+0642\U+0639
0
MTEXT
8
TITLE
10
427
20
164
30
0
40
2.4
41
72
50
0
71
1
72
1
7
OPTIMUM_AR
1
Test Site
0
MTEXT
8
TITLE
10
427
20
157
30
0
40
1.65
41
72
50
0
71
1
72
1
7
OPTIMUM_AR
1
DRAWING NO.
0
MTEXT
8
TITLE
10
427
20
153
30
0
40
2.4
41
72
50
0
71
1
72
1
7
OPTIMUM_AR
1
P001-FO-SCH-001
0
MTEXT
8
TITLE
10
427
20
146
30
0
40
1.65
41
72
50
0
71
1
72
1
7
OPTIMUM_AR
1
TITLE / \U+0627\U+0644\U+0639\U+0646\U+0648\U+0627\U+0646
0
MTEXT
8
TITLE
10
427
20
142
30
0
40
2.4
41
72
50
0
71
1
72
1
7
OPTIMUM_AR
1
Secondary Fiber Network Schematic
0
MTEXT
8
TITLE
10
427
20
135
30
0
40
1.65
41
72
50
0
71
1
72
1
7
OPTIMUM_AR
1
REVISION
0
MTEXT
8
TITLE
10
427
20
131
30
0
40
2.4
41
72
50
0
71
1
72
1
7
OPTIMUM_AR
1
R1
0
MTEXT
8
TITLE
10
427
20
124
30
0
40
1.65
41
72
50
0
71
1
72
1
7
OPTIMUM_AR
1
STATUS
0
MTEXT
8
TITLE
10
427
20
120
30
0
40
2.4
41
72
50
0
71
1
72
1
7
OPTIMUM_AR
1
FOR REVIEW
0
MTEXT
8
TITLE
10
427
20
113
30
0
40
1.65
41
72
50
0
71
1
72
1
7
OPTIMUM_AR
1
SCALE
0
MTEXT
8
TITLE
10
427
20
109
30
0
40
2.4
41
72
50
0
71
1
72
1
7
OPTIMUM_AR
1
NTS
0
MTEXT
8
TITLE
10
427
20
102
30
0
40
1.65
41
72
50
0
71
1
72
1
7
OPTIMUM_AR
1
DATE
0
MTEXT
8
TITLE
10
427
20
98
30
0
40
2.4
41
72
50
0
71
1
72
1
7
OPTIMUM_AR
1
2026-08-04
0
MTEXT
8
TITLE
10
427
20
91
30
0
40
1.65
41
72
50
0
71
1
72
1
7
OPTIMUM_AR
1
COMPANY
0
MTEXT
8
TITLE
10
427
20
87
30
0
40
2.4
41
72
50
0
71
1
72
1
7
OPTIMUM_AR
1
Optimum Engineering
0
MTEXT
8
TITLE
10
427
20
58
30
0
40
2.3
41
72
50
0
71
1
72
1
7
OPTIMUM_AR
1
GENERAL NOTES / \U+0645\U+0644\U+0627\U+062D\U+0638\U+0627\U+062A
0
MTEXT
8
NOTES
10
427
20
53
30
0
40
1.8
41
72
50
0
71
1
72
1
7
OPTIMUM_AR
1
All dimensions are in meters. Verify site conditions before construction.
0
ENDSEC
0
EOF
