<svg xmlns="http://www.w3.org/2000/svg" viewBox="0 0 1918 1000" width="1918" height="1000" data-drawing-width="1600" class="engineering-svg"><style>.engineering-svg{font-family:Arial,'Segoe UI',sans-serif;background:#fff;color:#0f172a}.eng-node-title{font-size:12px;font-weight:800;fill:#0f172a;pointer-events:none}.eng-route-label-box rect{fill:#fff;stroke:#aab8c2;stroke-width:1.1;opacity:.97}.eng-route-label-box text{font-size:9.5px;font-weight:650;fill:#1f2937;pointer-events:none}.eng-route-title{font-size:11px;font-weight:850}.eng-node-label-table rect,.eng-node-label-table line{fill:#fff;stroke:#ef4444;stroke-width:1.4}.eng-node-label-table text{font-size:8.2px;font-weight:750;fill:#111827;pointer-events:none}.eng-node-label-title{font-size:10px!important}.eng-node-label-table,.eng-route-label-box{cursor:move}.eng-node-label-table.selected rect,.eng-route-label-box.selected rect{stroke:#4f46e5!important;stroke-width:2.6!important}.eng-annotation{font-weight:650;fill:#0f172a}.eng-sheet-heading{font-size:16px;font-weight:850}.eng-legend-text{font-size:9.5px;fill:#1f2937}.eng-title-label{font-size:7.4px;font-weight:750;fill:#52636f}.eng-title-value-small{font-size:9.5px;font-weight:800;fill:#0f172a}.eng-title-sub{font-size:8px;fill:#475569}.eng-review-mark{cursor:pointer}.eng-review-mark text{font-size:13px;font-weight:900}.eng-node-ports circle{fill:#fff;stroke:#4f46e5;stroke-width:2}.eng-route-handle{cursor:move;fill:#fff;stroke:#4f46e5;stroke-width:2}.eng-issue-pin circle{fill:#fee2e2;stroke:#dc2626;stroke-width:2}.eng-issue-pin text{font-size:12px;font-weight:900;fill:#991b1b}.eng-node.selected{filter:drop-shadow(0 0 6px rgba(79,70,229,.55))}.eng-company-frame{pointer-events:none}</style><rect width="1918" height="1000" fill="#fff"/><defs><pattern id="eng-grid" width="20" height="20" patternUnits="userSpaceOnUse"><path d="M 20 0 L 0 0 0 20" fill="none" stroke="#dce5e9" stroke-width=".6" opacity=".55"/></pattern><filter id="eng-shadow"><feDropShadow dx="0" dy="2" stdDeviation="2" flood-opacity=".13"/></filter></defs><g class="eng-drawing-board"><rect x="14" y="14" width="1572" height="972" fill="#fff" stroke="#137A55" stroke-width="4"/><rect x="21" y="21" width="1558" height="958" fill="none" stroke="#137A55" stroke-width="1.4"/><rect x="22" y="22" width="1556" height="956" fill="url(#eng-grid)"/><clipPath id="drawing-clip"><rect x="22" y="22" width="1556" height="956"/></clipPath><g id="engineering-entities" clip-path="url(#drawing-clip)"><g data-eng-route="r1" class="eng-route  "><polyline points="242.5,420 400,420 400,220 578,220" fill="none" stroke="#7c3aed" stroke-width="4" stroke-linejoin="round" stroke-linecap="round" /></g><g class="eng-route-label-box " data-eng-route-label="r1" transform="translate(400 277.75)"><rect x="-82" y="-22" width="164" height="44" rx="5"/><text text-anchor="middle" y="-5" class="eng-route-title">MAIN-01</text><text text-anchor="middle" y="11">CAB-01 → TB-01 · 12W · 12/8 · FO-24C · 24C · 2 cables · spare 10m · 105 m</text></g><g data-eng-route="r2" class="eng-route  "><polyline points="662,220 840,220 840,420 1018,420" fill="none" stroke="#16a34a" stroke-width="4" stroke-linejoin="round" stroke-linecap="round" /></g><g class="eng-route-label-box " data-eng-route-label="r2" transform="translate(840 290)"><rect x="-82" y="-22" width="164" height="44" rx="5"/><text text-anchor="middle" y="-5" class="eng-route-title">BRANCH-A</text><text text-anchor="middle" y="11">TB-01 → TB-02 · 4W · 7/3.5 · FO-24C · 24C · spare 6m · 210 m</text></g><g data-eng-route="r3" class="eng-route  "><polyline points="620,250 620,720 738,720" fill="none" stroke="#e11d48" stroke-width="4" stroke-linejoin="round" stroke-linecap="round" /></g><g class="eng-route-label-box " data-eng-route-label="r3" transform="translate(620 516)"><rect x="-82" y="-22" width="164" height="44" rx="5"/><text text-anchor="middle" y="-5" class="eng-route-title">DROP-03</text><text text-anchor="middle" y="11">TB-01 → TB-03 · 1W · FO-24C · 24C · spare 5m · 155 m</text></g><g class="eng-node  " data-eng-node="cab" transform="translate(180 420) rotate(0)" filter="url(#eng-shadow)"><rect x="-62.5" y="-42" width="125" height="84" rx="6" fill="#fff" stroke="#2563eb" stroke-width="3"/><circle cx="-52.5" cy="-32" r="5" fill="#2563eb"/><text y="4" text-anchor="middle" class="eng-node-title">CAB-01</text></g><g class="eng-node-label-table " data-eng-node-label="cab" transform="translate(236 354)"><rect x="0" y="0" width="126" height="82" rx="3"/><line x1="0" y1="18" x2="126" y2="18"/><line x1="0" y1="39" x2="126" y2="39"/><line x1="0" y1="60" x2="126" y2="60"/><line x1="63" y1="18" x2="63" y2="82"/><text x="63" y="13" text-anchor="middle" class="eng-node-label-title">CAB-01</text><text x="5" y="32">ODF ODF-144</text><text x="68" y="32">PORT 01</text><text x="5" y="53">SP SP-1X8</text><text x="68" y="53">PORT A</text><text x="5" y="75">CORE 1-144</text><text x="68" y="75">0 m · 01</text></g><g class="eng-node selected " data-eng-node="tb1" transform="translate(620 220) rotate(0)" filter="url(#eng-shadow)"><rect x="-42" y="-30" width="84" height="60" rx="6" fill="#fff" stroke="#16a34a" stroke-width="4"/><circle cx="-32" cy="-20" r="5" fill="#16a34a"/><text y="4" text-anchor="middle" class="eng-node-title">TB-01</text><g class="eng-node-ports"><circle cx="-42" cy="0" r="6"/><circle cx="42" cy="0" r="6"/><circle cx="0" cy="-30" r="6"/><circle cx="0" cy="30" r="6"/></g></g><g class="eng-node-label-table selected" data-eng-node-label="tb1" transform="translate(666 164)"><rect x="0" y="0" width="126" height="82" rx="3"/><line x1="0" y1="18" x2="126" y2="18"/><line x1="0" y1="39" x2="126" y2="39"/><line x1="0" y1="60" x2="126" y2="60"/><line x1="63" y1="18" x2="63" y2="82"/><text x="63" y="13" text-anchor="middle" class="eng-node-label-title">TB-01</text><text x="5" y="32">ODF ODF-144</text><text x="68" y="32">PORT 02</text><text x="5" y="53">SP SP-1X8</text><text x="68" y="53">PORT 01</text><text x="5" y="75">CORE 1-8</text><text x="68" y="75">105 m · 11</text></g><g class="eng-node selected " data-eng-node="tb2" transform="translate(1060 420) rotate(0)" filter="url(#eng-shadow)"><rect x="-42" y="-30" width="84" height="60" rx="6" fill="#fff" stroke="#0891b2" stroke-width="4"/><circle cx="-32" cy="-20" r="5" fill="#0891b2"/><text y="4" text-anchor="middle" class="eng-node-title">TB-02</text><g class="eng-node-ports"><circle cx="-42" cy="0" r="6"/><circle cx="42" cy="0" r="6"/><circle cx="0" cy="-30" r="6"/><circle cx="0" cy="30" r="6"/></g></g><g class="eng-node-label-table selected" data-eng-node-label="tb2" transform="translate(1106 364)"><rect x="0" y="0" width="126" height="82" rx="3"/><line x1="0" y1="18" x2="126" y2="18"/><line x1="0" y1="39" x2="126" y2="39"/><line x1="0" y1="60" x2="126" y2="60"/><line x1="63" y1="18" x2="63" y2="82"/><text x="63" y="13" text-anchor="middle" class="eng-node-label-title">TB-02</text><text x="5" y="32">ODF ODF-144</text><text x="68" y="32">PORT 03</text><text x="5" y="53">SP SP-1X8</text><text x="68" y="53">PORT 02</text><text x="5" y="75">CORE 9-24</text><text x="68" y="75">210 m · 12</text></g><g class="eng-node  " data-eng-node="tb3" transform="translate(780 720) rotate(0)" filter="url(#eng-shadow)"><rect x="-42" y="-30" width="84" height="60" rx="6" fill="#fff" stroke="#16a34a" stroke-width="3"/><circle cx="-32" cy="-20" r="5" fill="#16a34a"/><text y="4" text-anchor="middle" class="eng-node-title">TB-03</text></g><g class="eng-node-label-table " data-eng-node-label="tb3" transform="translate(826 664)"><rect x="0" y="0" width="126" height="82" rx="3"/><line x1="0" y1="18" x2="126" y2="18"/><line x1="0" y1="39" x2="126" y2="39"/><line x1="0" y1="60" x2="126" y2="60"/><line x1="63" y1="18" x2="63" y2="82"/><text x="63" y="13" text-anchor="middle" class="eng-node-label-title">TB-03</text><text x="5" y="32">ODF ODF-144</text><text x="68" y="32">PORT 04</text><text x="5" y="53">SP SP-1X8</text><text x="68" y="53">PORT 03</text><text x="5" y="75">CORE 25-32</text><text x="68" y="75">155 m · 13</text></g></g></g><g class="eng-company-frame"><rect x="1608" y="14" width="296" height="972" fill="#fff" stroke="#137A55" stroke-width="3"/><text x="1624" y="42" class="eng-sheet-heading">N</text><path d="M 1640 62 l 0 -23 m -11 11 l 22 0" stroke="#111" stroke-width="2"/><text x="1666" y="47" class="eng-sheet-heading">LEGEND / الرموز</text><g transform="translate(1626 76)"><line x1="0" y1="0" x2="22" y2="0" stroke="#7c3aed" stroke-width="4"/><text x="29" y="4" class="eng-legend-text">ميكرو دكت 12 مسار 12</text></g><g transform="translate(1773 76)"><line x1="0" y1="0" x2="22" y2="0" stroke="#16a34a" stroke-width="4"/><text x="29" y="4" class="eng-legend-text">ميكرو دكت 4 مسار 7/3</text></g><g transform="translate(1626 100)"><line x1="0" y1="0" x2="22" y2="0" stroke="#e11d48" stroke-width="4"/><text x="29" y="4" class="eng-legend-text">كابل فايبر 24 كور</text></g><g transform="translate(1773 100)"><line x1="0" y1="0" x2="22" y2="0" stroke="#2563eb" stroke-width="4"/><text x="29" y="4" class="eng-legend-text">كابينة رئيسية 42U</text></g><g transform="translate(1626 124)"><line x1="0" y1="0" x2="22" y2="0" stroke="#16a34a" stroke-width="4"/><text x="29" y="4" class="eng-legend-text">بوكس نهاية 24 كور</text></g><g transform="translate(1773 124)"><line x1="0" y1="0" x2="22" y2="0" stroke="#0891b2" stroke-width="4"/><text x="29" y="4" class="eng-legend-text">بوكس نهاية 48 كور</text></g><line x1="1608" y1="190" x2="1904" y2="190" stroke="#137A55" stroke-width="2"/><g transform="translate(1608 205)"><rect width="296" height="22" fill="none" stroke="#137A55" stroke-width="1"/><text x="8" y="8" class="eng-title-label">PROJECT / المشروع</text><text x="8" y="19" class="eng-title-value-small">Fiber Network P001</text></g><g transform="translate(1608 227)"><rect width="296" height="22" fill="none" stroke="#137A55" stroke-width="1"/><text x="8" y="8" class="eng-title-label">SITE / الموقع</text><text x="8" y="19" class="eng-title-value-small">Test Site</text></g><g transform="translate(1608 249)"><rect width="296" height="22" fill="none" stroke="#137A55" stroke-width="1"/><text x="8" y="8" class="eng-title-label">DRAWING NO.</text><text x="8" y="19" class="eng-title-value-small">P001-FO-SCH-001</text></g><g transform="translate(1608 271)"><rect width="296" height="22" fill="none" stroke="#137A55" stroke-width="1"/><text x="8" y="8" class="eng-title-label">DRAWING TITLE / العنوان</text><text x="8" y="19" class="eng-title-value-small">Secondary Fiber Network Schematic</text></g><g transform="translate(1608 293)"><rect width="296" height="22" fill="none" stroke="#137A55" stroke-width="1"/><text x="8" y="8" class="eng-title-label">TYPE / النوع</text><text x="8" y="19" class="eng-title-value-small">Secondary Fiber Network</text></g><g transform="translate(1608 315)"><rect width="296" height="22" fill="none" stroke="#137A55" stroke-width="1"/><text x="8" y="8" class="eng-title-label">DISCIPLINE / التخصص</text><text x="8" y="19" class="eng-title-value-small">Fiber Optic</text></g><g transform="translate(1608 337)"><rect width="296" height="22" fill="none" stroke="#137A55" stroke-width="1"/><text x="8" y="8" class="eng-title-label">REVISION</text><text x="8" y="19" class="eng-title-value-small">R1</text></g><g transform="translate(1608 359)"><rect width="296" height="22" fill="none" stroke="#137A55" stroke-width="1"/><text x="8" y="8" class="eng-title-label">STATUS</text><text x="8" y="19" class="eng-title-value-small">FOR REVIEW</text></g><g transform="translate(1608 381)"><rect width="296" height="22" fill="none" stroke="#137A55" stroke-width="1"/><text x="8" y="8" class="eng-title-label">SCALE</text><text x="8" y="19" class="eng-title-value-small">NTS</text></g><g transform="translate(1608 403)"><rect width="296" height="22" fill="none" stroke="#137A55" stroke-width="1"/><text x="8" y="8" class="eng-title-label">DATE</text><text x="8" y="19" class="eng-title-value-small">2026-08-04</text></g><g transform="translate(1608 425)"><rect width="296" height="22" fill="none" stroke="#137A55" stroke-width="1"/><text x="8" y="8" class="eng-title-label">CONTRACT ID</text><text x="8" y="19" class="eng-title-value-small">OPT-2026-001</text></g><g transform="translate(1608 447)"><rect width="296" height="22" fill="none" stroke="#137A55" stroke-width="1"/><text x="8" y="8" class="eng-title-label">CLIENT / العميل</text><text x="8" y="19" class="eng-title-value-small">Example Client</text></g><g transform="translate(1608 469)"><rect width="296" height="22" fill="none" stroke="#137A55" stroke-width="1"/><text x="8" y="8" class="eng-title-label">CONSULTANT / الاستشاري</text><text x="8" y="19" class="eng-title-value-small">Engineering Consultant</text></g><g transform="translate(1608 491)"><rect width="296" height="22" fill="none" stroke="#137A55" stroke-width="1"/><text x="8" y="8" class="eng-title-label">MAIN CONTRACTOR</text><text x="8" y="19" class="eng-title-value-small">Main Contractor</text></g><g transform="translate(1608 513)"><rect width="296" height="22" fill="none" stroke="#137A55" stroke-width="1"/><text x="8" y="8" class="eng-title-label">SUB CONTRACTOR</text><text x="8" y="19" class="eng-title-value-small">Optimum Engineering</text></g><text x="1624" y="546" class="eng-title-label">CABINET / الكابينة</text><g transform="translate(1608 550)"><rect width="296" height="18" fill="none" stroke="#137A55" stroke-width="1"/><text x="8" y="8" class="eng-title-label">CABINET NO.</text><text x="150" y="14" class="eng-title-value-small">CAB-01</text></g><g transform="translate(1608 568)"><rect width="296" height="18" fill="none" stroke="#137A55" stroke-width="1"/><text x="8" y="8" class="eng-title-label">CABINET TYPE</text><text x="150" y="14" class="eng-title-value-small">Main Outdoor</text></g><g transform="translate(1608 586)"><rect width="296" height="18" fill="none" stroke="#137A55" stroke-width="1"/><text x="8" y="8" class="eng-title-label">U SIZE</text><text x="150" y="14" class="eng-title-value-small">42U</text></g><g transform="translate(1608 604)"><rect width="296" height="18" fill="none" stroke="#137A55" stroke-width="1"/><text x="8" y="8" class="eng-title-label">BUILDINGS</text><text x="150" y="14" class="eng-title-value-small">3</text></g><g transform="translate(1608 622)"><rect width="296" height="18" fill="none" stroke="#137A55" stroke-width="1"/><text x="8" y="8" class="eng-title-label">PORTS</text><text x="150" y="14" class="eng-title-value-small">36</text></g><g transform="translate(1608 640)"><rect width="296" height="18" fill="none" stroke="#137A55" stroke-width="1"/><text x="8" y="8" class="eng-title-label">ODF</text><text x="150" y="14" class="eng-title-value-small">1 × 144F</text></g><g transform="translate(1608 658)"><rect width="296" height="18" fill="none" stroke="#137A55" stroke-width="1"/><text x="8" y="8" class="eng-title-label">LGX</text><text x="150" y="14" class="eng-title-value-small">4U LGX</text></g><g transform="translate(1608 676)"><rect width="296" height="18" fill="none" stroke="#137A55" stroke-width="1"/><text x="8" y="8" class="eng-title-label">SPLITTERS</text><text x="150" y="14" class="eng-title-value-small">1:8</text></g><g transform="translate(1608 694)"><rect width="296" height="18" fill="none" stroke="#137A55" stroke-width="1"/><text x="8" y="8" class="eng-title-label">CABINET BASE</text><text x="150" y="14" class="eng-title-value-small">Concrete 80 × 80</text></g><g transform="translate(1608 722)"><rect width="296" height="92" fill="none" stroke="#137A55"/><text x="8" y="16" class="eng-title-label">REVISION REGISTER / سجل المراجعات</text><g transform="translate(0 24)"><line x1="0" y1="0" x2="296" y2="0" stroke="#137A55"/><text x="8" y="15" class="eng-title-label">DRAWN</text><text x="75" y="15" class="eng-title-value-small">M. Ahmed</text><text x="220" y="15" class="eng-title-sub">2026-08-04</text></g><g transform="translate(0 46)"><line x1="0" y1="0" x2="296" y2="0" stroke="#137A55"/><text x="8" y="15" class="eng-title-label">CHECKED</text><text x="75" y="15" class="eng-title-value-small">A. Hassan</text><text x="220" y="15" class="eng-title-sub">2026-08-04</text></g><g transform="translate(0 68)"><line x1="0" y1="0" x2="296" y2="0" stroke="#137A55"/><text x="8" y="15" class="eng-title-label">APPROVED</text><text x="75" y="15" class="eng-title-value-small">Project Manager</text><text x="220" y="15" class="eng-title-sub">2026-08-04</text></g></g><g class="eng-frame-logos"></g></g></svg>