0
SECTION
2
HEADER
9
$ACADVER
1
AC1009
0
ENDSEC
0
SECTION
2
TABLES
0
ENDSEC
0
SECTION
2
ENTITIES
0
LINE
8
MICRODUCT
10
275
20
640
30
0
11
555
21
640
31
0
0
TEXT
8
LABELS
10
415
20
640
30
0
40
2.5
1
MAIN 4W DUCT
0
TEXT
8
LABELS
10
415
20
636
30
0
40
2.5
1
Main / Underground
0
TEXT
8
LABELS
10
415
20
632
30
0
40
2.5
1
FO-24C | 42 m | CAB-M01 -> MH-01
0
LINE
8
MICRODUCT
10
645
20
679.375
30
0
11
760
21
780
31
0
0
LINE
8
MICRODUCT
10
760
20
780
30
0
11
935
21
780
31
0
0
TEXT
8
LABELS
10
771.096
20
780
30
0
40
2.5
1
SECONDARY-01
0
TEXT
8
LABELS
10
771.096
20
776
30
0
40
2.5
1
Secondary / Underground
0
TEXT
8
LABELS
10
771.096
20
772
30
0
40
2.5
1
FO-24C | 55 m | MH-01 -> TB-01
0
LINE
8
MICRODUCT
10
645
20
597.813
30
0
11
760
21
490
31
0
0
LINE
8
MICRODUCT
10
760
20
490
30
0
11
935
21
490
31
0
0
TEXT
8
LABELS
10
768.683
20
490
30
0
40
2.5
1
SECONDARY-02
0
TEXT
8
LABELS
10
768.683
20
486
30
0
40
2.5
1
Secondary / Underground
0
TEXT
8
LABELS
10
768.683
20
482
30
0
40
2.5
1
FO-24C | 61 m | MH-01 -> TB-02
0
LINE
8
NODES
10
145
20
595
30
0
11
275
21
595
31
0
0
LINE
8
NODES
10
275
20
595
30
0
11
275
21
685
31
0
0
LINE
8
NODES
10
275
20
685
30
0
11
145
21
685
31
0
0
LINE
8
NODES
10
145
20
685
30
0
11
145
21
595
31
0
0
TEXT
8
LABELS
10
210
20
640
30
0
40
2.6
1
CAB-M01
0
TEXT
8
LABELS
10
210
20
636
30
0
40
2.6
1
Main | 144C
0
LINE
8
NODES
10
555
20
595
30
0
11
645
21
595
31
0
0
LINE
8
NODES
10
645
20
595
30
0
11
645
21
685
31
0
0
LINE
8
NODES
10
645
20
685
30
0
11
555
21
685
31
0
0
LINE
8
NODES
10
555
20
685
30
0
11
555
21
595
31
0
0
TEXT
8
LABELS
10
600
20
640
30
0
40
2.6
1
MH-01
0
TEXT
8
LABELS
10
600
20
636
30
0
40
2.6
1
Distribution | 96C
0
LINE
8
NODES
10
935
20
748
30
0
11
1025
21
748
31
0
0
LINE
8
NODES
10
1025
20
748
30
0
11
1025
21
812
31
0
0
LINE
8
NODES
10
1025
20
812
30
0
11
935
21
812
31
0
0
LINE
8
NODES
10
935
20
812
30
0
11
935
21
748
31
0
0
TEXT
8
LABELS
10
980
20
780
30
0
40
2.6
1
TB-01
0
TEXT
8
LABELS
10
980
20
776
30
0
40
2.6
1
Terminal | Box 01 | 24C
0
LINE
8
NODES
10
935
20
458
30
0
11
1025
21
458
31
0
0
LINE
8
NODES
10
1025
20
458
30
0
11
1025
21
522
31
0
0
LINE
8
NODES
10
1025
20
522
30
0
11
935
21
522
31
0
0
LINE
8
NODES
10
935
20
522
30
0
11
935
21
458
31
0
0
TEXT
8
LABELS
10
980
20
490
30
0
40
2.6
1
TB-02
0
TEXT
8
LABELS
10
980
20
486
30
0
40
2.6
1
Terminal | Box 02 | 24C
0
TEXT
8
TEXT
10
175
20
880
30
0
40
4.32
1
OPTIMUM FIBER NETWORK — DIGITAL SCHEMATIC
0
TEXT
8
TITLE
10
20
20
20
30
0
40
4
1
P001-FIBER-SLD-001
0
TEXT
8
TITLE
10
20
20
12
30
0
40
3
1
Secondary Fiber Network
0
ENDSEC
0
EOF
