0
SECTION
2
HEADER
9
$ACADVER
1
AC1015
9
$INSUNITS
70
4
9
$EXTMIN
10
0
20
0
9
$EXTMAX
10
420
20
297
0
ENDSEC
0
SECTION
2
TABLES
0
TABLE
2
LTYPE
70
2
0
LTYPE
2
CONTINUOUS
70
0
3
Solid line
72
65
73
0
40
0
0
LTYPE
2
DASHED
70
0
3
Dashed __ __
72
65
73
2
40
6
49
4
74
0
49
-2
74
0
0
ENDTAB
0
TABLE
2
LAYER
70
10
0
LAYER
2
FRAME
70
0
62
3
420
1276501
6
CONTINUOUS
370
35
0
LAYER
2
NODES
70
0
62
5
420
2450411
6
CONTINUOUS
370
35
0
LAYER
2
NODE_TEXT
70
0
62
7
420
1120295
6
CONTINUOUS
370
18
0
LAYER
2
ROUTE_TEXT
70
0
62
7
420
1120295
6
CONTINUOUS
370
18
0
LAYER
2
TITLE
70
0
62
7
420
1120295
6
CONTINUOUS
370
18
0
LAYER
2
NOTES
70
0
62
8
420
3359061
6
CONTINUOUS
370
18
0
LAYER
2
REVIEW
70
0
62
1
420
15680580
6
CONTINUOUS
370
25
0
LAYER
2
DUCT_4W_7_3_5
70
0
62
7
420
2278750
6
CONTINUOUS
370
35
0
LAYER
2
DUCT_12W_12_8
70
0
62
7
420
16096779
6
CONTINUOUS
370
35
0
LAYER
2
FO_24C
70
0
62
7
420
15485081
6
CONTINUOUS
370
35
0
ENDTAB
0
TABLE
2
STYLE
70
1
0
STYLE
2
OPTIMUM_AR
70
0
40
0
41
1
50
0
71
0
42
2.5
3
Arial.ttf
4

0
ENDTAB
0
ENDSEC
0
SECTION
2
ENTITIES
0
LWPOLYLINE
8
FRAME
90
5
70
0
10
7
20
7
10
413
20
7
10
413
20
290
10
7
20
290
10
7
20
7
0
LWPOLYLINE
8
FRAME
90
5
70
0
10
8.5
20
8.5
10
411.5
20
8.5
10
411.5
20
288.5
10
8.5
20
288.5
10
8.5
20
8.5
0
LINE
8
FRAME
10
348
20
7
30
0
11
348
21
290
31
0
0
LWPOLYLINE
8
DUCT_4W_7_3_5
90
3
70
0
10
63.44
20
171.325
10
75.2675
20
171.325
10
75.2675
20
165.602
0
MTEXT
8
ROUTE_TEXT
10
72.2152
20
173.125
30
0
40
1.8
41
34
50
0
71
2
72
1
7
OPTIMUM_AR
1
MAIN-01
0
MTEXT
8
ROUTE_TEXT
10
72.2152
20
170.125
30
0
40
1.45
41
34
50
0
71
2
72
1
7
OPTIMUM_AR
1
4W | 7/3.5 | FO-24C | 24C | 89.98m
0
LWPOLYLINE
8
DUCT_4W_7_3_5
90
3
70
0
10
84.2084
20
168.005
10
94.15
20
208.675
10
104.94
20
208.675
0
MTEXT
8
ROUTE_TEXT
10
90.4603
20
195.3807
30
0
40
1.8
41
34
50
0
71
2
72
1
7
OPTIMUM_AR
1
BRANCH-01
0
MTEXT
8
ROUTE_TEXT
10
90.4603
20
192.3807
30
0
40
1.45
41
34
50
0
71
2
72
1
7
OPTIMUM_AR
1
4W | 7/3.5 | FO-24C | 24C | 111.3m
0
LWPOLYLINE
8
DUCT_12W_12_8
90
3
70
0
10
84.9439
20
155.97
10
94.15
20
130.8625
10
104.94
20
130.8625
0
MTEXT
8
ROUTE_TEXT
10
91.4042
20
140.151
30
0
40
1.8
41
34
50
0
71
2
72
1
7
OPTIMUM_AR
1
BRANCH-02
0
MTEXT
8
ROUTE_TEXT
10
91.4042
20
137.151
30
0
40
1.45
41
34
50
0
71
2
72
1
7
OPTIMUM_AR
1
12W | 12/8 | FO-24C | 24C | 27.24m
0
LWPOLYLINE
8
DUCT_4W_7_3_5
90
3
70
0
10
153.4028
20
167.175
10
159.305
20
167.175
10
159.305
20
171.4246
0
MTEXT
8
ROUTE_TEXT
10
158.4787
20
168.975
30
0
40
1.8
41
34
50
0
71
2
72
1
7
OPTIMUM_AR
1
DISTRIBUTION-LONG-LABEL-FOR-AUTO-SIZE
0
MTEXT
8
ROUTE_TEXT
10
158.4787
20
165.975
30
0
40
1.45
41
34
50
0
71
2
72
1
7
OPTIMUM_AR
1
4W | 7/3.5 | FO-24C | 24C | 54.62m
0
LWPOLYLINE
8
FO_24C
90
3
70
0
10
174.6839
20
186.0575
10
189.6
20
204.525
10
202.465
20
204.525
0
MTEXT
8
ROUTE_TEXT
10
186.1837
20
202.0954
30
0
40
1.8
41
34
50
0
71
2
72
1
7
OPTIMUM_AR
1
FIBER-01
0
MTEXT
8
ROUTE_TEXT
10
186.1837
20
199.0954
30
0
40
1.45
41
34
50
0
71
2
72
1
7
OPTIMUM_AR
1
24C | 42.6m
0
LWPOLYLINE
8
FO_24C
90
3
70
0
10
172.0662
20
169.0425
10
189.6
20
133.975
10
202.465
20
133.975
0
MTEXT
8
ROUTE_TEXT
10
183.7098
20
147.5553
30
0
40
1.8
41
34
50
0
71
2
72
1
7
OPTIMUM_AR
1
FIBER-02
0
MTEXT
8
ROUTE_TEXT
10
183.7098
20
144.5553
30
0
40
1.45
41
34
50
0
71
2
72
1
7
OPTIMUM_AR
1
24C | 63.4m
0
LWPOLYLINE
8
NODES
90
5
70
0
10
37.5025
20
168.835
10
63.6475
20
168.835
10
63.6475
20
186.265
10
37.5025
20
186.265
10
37.5025
20
168.835
0
MTEXT
8
NODE_TEXT
10
50.575
20
180.15
30
0
40
1.8
41
23.5305
50
0
71
2
72
1
7
OPTIMUM_AR
1
CAB-1
0
MTEXT
8
NODE_TEXT
10
50.575
20
177.45
30
0
40
1.25
41
23.5305
50
0
71
2
72
1
7
OPTIMUM_AR
1
NO 01   CORE 288
0
MTEXT
8
NODE_TEXT
10
50.575
20
174.75
30
0
40
1.25
41
23.5305
50
0
71
2
72
1
7
OPTIMUM_AR
1
PORT 144   TYPE MAIN-CAB-42U
0
LWPOLYLINE
8
NODES
90
5
70
0
10
128.8025
20
150.3675
10
154.9475
20
150.3675
10
154.9475
20
167.3825
10
128.8025
20
167.3825
10
128.8025
20
150.3675
0
MTEXT
8
NODE_TEXT
10
141.875
20
161.475
30
0
40
1.8
41
23.5305
50
0
71
2
72
1
7
OPTIMUM_AR
1
CAB-2
0
MTEXT
8
NODE_TEXT
10
141.875
20
158.775
30
0
40
1.25
41
23.5305
50
0
71
2
72
1
7
OPTIMUM_AR
1
NO 02   CORE 144
0
MTEXT
8
NODE_TEXT
10
141.875
20
156.075
30
0
40
1.25
41
23.5305
50
0
71
2
72
1
7
OPTIMUM_AR
1
PORT 48   TYPE SUBCAB-22U
0
LWPOLYLINE
8
NODES
90
5
70
0
10
104.94
20
201.62
10
124.86
20
201.62
10
124.86
20
215.73
10
104.94
20
215.73
10
104.94
20
201.62
0
MTEXT
8
NODE_TEXT
10
114.9
20
211.275
30
0
40
1.8
41
18
50
0
71
2
72
1
7
OPTIMUM_AR
1
TB-1
0
MTEXT
8
NODE_TEXT
10
114.9
20
208.575
30
0
40
1.25
41
18
50
0
71
2
72
1
7
OPTIMUM_AR
1
NO 1   CORE 96
0
MTEXT
8
NODE_TEXT
10
114.9
20
205.875
30
0
40
1.25
41
18
50
0
71
2
72
1
7
OPTIMUM_AR
1
PORT 16   TYPE TB-24C
0
LWPOLYLINE
8
NODES
90
5
70
0
10
104.94
20
123.8075
10
124.86
20
123.8075
10
124.86
20
137.9175
10
104.94
20
137.9175
10
104.94
20
123.8075
0
MTEXT
8
NODE_TEXT
10
114.9
20
133.4625
30
0
40
1.8
41
18
50
0
71
2
72
1
7
OPTIMUM_AR
1
TB-2
0
MTEXT
8
NODE_TEXT
10
114.9
20
130.7625
30
0
40
1.25
41
18
50
0
71
2
72
1
7
OPTIMUM_AR
1
NO 2   CORE 96
0
MTEXT
8
NODE_TEXT
10
114.9
20
128.0625
30
0
40
1.25
41
18
50
0
71
2
72
1
7
OPTIMUM_AR
1
PORT 16   TYPE TB-24C
0
LWPOLYLINE
8
NODES
90
5
70
0
10
202.465
20
197.47
10
222.385
20
197.47
10
222.385
20
211.58
10
202.465
20
211.58
10
202.465
20
197.47
0
MTEXT
8
NODE_TEXT
10
212.425
20
207.125
30
0
40
1.8
41
18
50
0
71
2
72
1
7
OPTIMUM_AR
1
TB-3
0
MTEXT
8
NODE_TEXT
10
212.425
20
204.425
30
0
40
1.25
41
18
50
0
71
2
72
1
7
OPTIMUM_AR
1
NO 3   CORE 96
0
MTEXT
8
NODE_TEXT
10
212.425
20
201.725
30
0
40
1.25
41
18
50
0
71
2
72
1
7
OPTIMUM_AR
1
PORT 16   TYPE TB-24C
0
LWPOLYLINE
8
NODES
90
5
70
0
10
202.465
20
126.92
10
222.385
20
126.92
10
222.385
20
141.03
10
202.465
20
141.03
10
202.465
20
126.92
0
MTEXT
8
NODE_TEXT
10
212.425
20
136.575
30
0
40
1.8
41
18
50
0
71
2
72
1
7
OPTIMUM_AR
1
TB-4
0
MTEXT
8
NODE_TEXT
10
212.425
20
133.875
30
0
40
1.25
41
18
50
0
71
2
72
1
7
OPTIMUM_AR
1
NO 4   CORE 96
0
MTEXT
8
NODE_TEXT
10
212.425
20
131.175
30
0
40
1.25
41
18
50
0
71
2
72
1
7
OPTIMUM_AR
1
PORT 16   TYPE TB-24C
0
LWPOLYLINE
8
NODES
90
5
70
0
10
72.985
20
155.14
10
92.49
20
155.14
10
92.49
20
168.835
10
72.985
20
168.835
10
72.985
20
155.14
0
MTEXT
8
NODE_TEXT
10
82.7375
20
164.5875
30
0
40
1.8
41
18
50
0
71
2
72
1
7
OPTIMUM_AR
1
J-1
0
MTEXT
8
NODE_TEXT
10
82.7375
20
161.8875
30
0
40
1.25
41
18
50
0
71
2
72
1
7
OPTIMUM_AR
1
NO -   CORE -
0
MTEXT
8
NODE_TEXT
10
82.7375
20
159.1875
30
0
40
1.25
41
18
50
0
71
2
72
1
7
OPTIMUM_AR
1
PORT -   TYPE JOINT
0
LWPOLYLINE
8
NODES
90
5
70
0
10
158.06
20
169.0425
10
177.565
20
169.0425
10
177.565
20
186.0575
10
158.06
20
186.0575
10
158.06
20
169.0425
0
MTEXT
8
NODE_TEXT
10
167.8125
20
180.15
30
0
40
1.8
41
18
50
0
71
2
72
1
7
OPTIMUM_AR
1
MH-1
0
MTEXT
8
NODE_TEXT
10
167.8125
20
177.45
30
0
40
1.25
41
18
50
0
71
2
72
1
7
OPTIMUM_AR
1
NO -   CORE -
0
MTEXT
8
NODE_TEXT
10
167.8125
20
174.75
30
0
40
1.25
41
18
50
0
71
2
72
1
7
OPTIMUM_AR
1
PORT -   TYPE MH-TEL
0
MTEXT
8
TITLE
10
351
20
282
30
0
40
3.2
41
72
50
0
71
1
72
1
7
OPTIMUM_AR
1
N
0
MTEXT
8
TITLE
10
361
20
282
30
0
40
3
41
72
50
0
71
1
72
1
7
OPTIMUM_AR
1
LEGEND / \U+0627\U+0644\U+0631\U+0645\U+0648\U+0632
0
LINE
8
FRAME
10
351
20
270
30
0
11
361
21
270
31
0
0
MTEXT
8
TITLE
10
364
20
269
30
0
40
1.55
41
49
50
0
71
1
72
1
7
OPTIMUM_AR
1
4-way 7/3.5 Microduct
0
LINE
8
FRAME
10
351
20
263
30
0
11
361
21
263
31
0
0
MTEXT
8
TITLE
10
364
20
262
30
0
40
1.55
41
49
50
0
71
1
72
1
7
OPTIMUM_AR
1
12-way 12/8 Microduct
0
LINE
8
FRAME
10
351
20
256
30
0
11
361
21
256
31
0
0
MTEXT
8
TITLE
10
364
20
255
30
0
40
1.55
41
49
50
0
71
1
72
1
7
OPTIMUM_AR
1
24-core Fiber Cable
0
LINE
8
FRAME
10
348
20
199
30
0
11
413
21
199
31
0
0
MTEXT
8
TITLE
10
351
20
196.3
30
0
40
1.2
41
72
50
0
71
1
72
1
7
OPTIMUM_AR
1
PROJECT
0
MTEXT
8
TITLE
10
351
20
193
30
0
40
1.75
41
54
50
0
71
1
72
1
7
OPTIMUM_AR
1
First Fiber Optical
0
LINE
8
FRAME
10
348
20
186
30
0
11
413
21
186
31
0
0
MTEXT
8
TITLE
10
351
20
183.3
30
0
40
1.2
41
72
50
0
71
1
72
1
7
OPTIMUM_AR
1
SITE
0
MTEXT
8
TITLE
10
351
20
180
30
0
40
1.75
41
54
50
0
71
1
72
1
7
OPTIMUM_AR
1
Test Site
0
LINE
8
FRAME
10
348
20
173
30
0
11
413
21
173
31
0
0
MTEXT
8
TITLE
10
351
20
170.3
30
0
40
1.2
41
72
50
0
71
1
72
1
7
OPTIMUM_AR
1
DRAWING NO.
0
MTEXT
8
TITLE
10
351
20
167
30
0
40
1.75
41
54
50
0
71
1
72
1
7
OPTIMUM_AR
1
P001-CAD-TEST
0
LINE
8
FRAME
10
348
20
160
30
0
11
413
21
160
31
0
0
MTEXT
8
TITLE
10
351
20
157.3
30
0
40
1.2
41
72
50
0
71
1
72
1
7
OPTIMUM_AR
1
TITLE
0
MTEXT
8
TITLE
10
351
20
154
30
0
40
1.75
41
54
50
0
71
1
72
1
7
OPTIMUM_AR
1
Secondary Fiber Network
0
LINE
8
FRAME
10
348
20
147
30
0
11
413
21
147
31
0
0
MTEXT
8
TITLE
10
351
20
144.3
30
0
40
1.2
41
72
50
0
71
1
72
1
7
OPTIMUM_AR
1
CLIENT
0
MTEXT
8
TITLE
10
351
20
141
30
0
40
1.75
41
54
50
0
71
1
72
1
7
OPTIMUM_AR
1
Optimum Client
0
LINE
8
FRAME
10
348
20
134
30
0
11
413
21
134
31
0
0
MTEXT
8
TITLE
10
351
20
131.3
30
0
40
1.2
41
72
50
0
71
1
72
1
7
OPTIMUM_AR
1
CONSULTANT
0
MTEXT
8
TITLE
10
351
20
128
30
0
40
1.75
41
54
50
0
71
1
72
1
7
OPTIMUM_AR
1
Optimum Consultant
0
LINE
8
FRAME
10
348
20
121
30
0
11
413
21
121
31
0
0
MTEXT
8
TITLE
10
351
20
118.3
30
0
40
1.2
41
72
50
0
71
1
72
1
7
OPTIMUM_AR
1
COMPANY
0
MTEXT
8
TITLE
10
351
20
115
30
0
40
1.75
41
54
50
0
71
1
72
1
7
OPTIMUM_AR
1
Optimum Management
0
LINE
8
FRAME
10
348
20
108
30
0
11
413
21
108
31
0
0
MTEXT
8
TITLE
10
351
20
105.3
30
0
40
1.2
41
72
50
0
71
1
72
1
7
OPTIMUM_AR
1
REVISION
0
MTEXT
8
TITLE
10
351
20
102
30
0
40
1.75
41
54
50
0
71
1
72
1
7
OPTIMUM_AR
1
R1
0
LINE
8
FRAME
10
348
20
95
30
0
11
413
21
95
31
0
0
MTEXT
8
TITLE
10
351
20
92.3
30
0
40
1.2
41
72
50
0
71
1
72
1
7
OPTIMUM_AR
1
STATUS
0
MTEXT
8
TITLE
10
351
20
89
30
0
40
1.75
41
54
50
0
71
1
72
1
7
OPTIMUM_AR
1
DRAFT
0
LINE
8
FRAME
10
348
20
82
30
0
11
413
21
82
31
0
0
MTEXT
8
TITLE
10
351
20
79.3
30
0
40
1.2
41
72
50
0
71
1
72
1
7
OPTIMUM_AR
1
SCALE
0
MTEXT
8
TITLE
10
351
20
76
30
0
40
1.75
41
54
50
0
71
1
72
1
7
OPTIMUM_AR
1
NTS
0
LINE
8
FRAME
10
348
20
69
30
0
11
413
21
69
31
0
0
MTEXT
8
TITLE
10
351
20
66.3
30
0
40
1.2
41
72
50
0
71
1
72
1
7
OPTIMUM_AR
1
DATE
0
MTEXT
8
TITLE
10
351
20
63
30
0
40
1.75
41
54
50
0
71
1
72
1
7
OPTIMUM_AR
1
2026-08-04
0
ENDSEC
0
EOF
