0
SECTION
2
HEADER
9
$ACADVER
1
AC1009
9
$INSBASE
10
0
20
0
30
0
9
$EXTMIN
10
0
20
0
9
$EXTMAX
10
1920
20
1000
0
ENDSEC
0
SECTION
2
TABLES
0
TABLE
2
LTYPE
70
1
0
LTYPE
2
CONTINUOUS
70
0
3
Solid line
72
65
73
0
40
0
0
ENDTAB
0
TABLE
2
LAYER
70
15
0
LAYER
2
0
70
0
62
7
6
CONTINUOUS
0
LAYER
2
FRAME
70
0
62
3
6
CONTINUOUS
0
LAYER
2
TITLE_GRID
70
0
62
3
6
CONTINUOUS
0
LAYER
2
TITLE_TEXT
70
0
62
7
6
CONTINUOUS
0
LAYER
2
NODE_CABINET
70
0
62
5
6
CONTINUOUS
0
LAYER
2
NODE_TERMINAL
70
0
62
3
6
CONTINUOUS
0
LAYER
2
NODE_OPTICAL
70
0
62
1
6
CONTINUOUS
0
LAYER
2
NODE_CIVIL
70
0
62
8
6
CONTINUOUS
0
LAYER
2
NODE_JOINT
70
0
62
6
6
CONTINUOUS
0
LAYER
2
NODE_TEXT
70
0
62
7
6
CONTINUOUS
0
LAYER
2
ROUTE_TEXT
70
0
62
7
6
CONTINUOUS
0
LAYER
2
NOTES
70
0
62
7
6
CONTINUOUS
0
LAYER
2
DUCT_4W_7_3_5
70
0
62
3
6
CONTINUOUS
0
LAYER
2
DUCT_1W_7_3_5
70
0
62
1
6
CONTINUOUS
0
LAYER
2
FIBER_24C
70
0
62
4
6
CONTINUOUS
0
ENDTAB
0
TABLE
2
STYLE
70
1
0
STYLE
2
STANDARD
70
0
40
0
41
1
50
0
71
0
42
10
3
Arial.ttf
4

0
ENDTAB
0
ENDSEC
0
SECTION
2
BLOCKS
0
ENDSEC
0
SECTION
2
ENTITIES
0
POLYLINE
8
FRAME
66
1
70
1
10
0
20
0
30
0
0
VERTEX
8
FRAME
10
10
20
10
30
0
0
VERTEX
8
FRAME
10
1590
20
10
30
0
0
VERTEX
8
FRAME
10
1590
20
990
30
0
0
VERTEX
8
FRAME
10
10
20
990
30
0
0
SEQEND
8
FRAME
0
POLYLINE
8
FRAME
66
1
70
1
10
0
20
0
30
0
0
VERTEX
8
FRAME
10
16
20
16
30
0
0
VERTEX
8
FRAME
10
1584
20
16
30
0
0
VERTEX
8
FRAME
10
1584
20
984
30
0
0
VERTEX
8
FRAME
10
16
20
984
30
0
0
SEQEND
8
FRAME
0
POLYLINE
8
DUCT_4W_7_3_5
62
3
66
1
70
0
10
0
20
0
30
0
0
VERTEX
8
DUCT_4W_7_3_5
10
259
20
490
30
0
0
VERTEX
8
DUCT_4W_7_3_5
10
350
20
490
30
0
0
VERTEX
8
DUCT_4W_7_3_5
10
350
20
765
30
0
0
VERTEX
8
DUCT_4W_7_3_5
10
427
20
765
30
0
0
SEQEND
8
DUCT_4W_7_3_5
0
TEXT
8
ROUTE_TEXT
62
7
10
350
20
665.54
30
0
40
11
1
MAIN ROUTE
7
STANDARD
50
4
71
0
72
1
73
2
11
350
21
665.54
31
0
0
TEXT
8
ROUTE_TEXT
62
7
10
350
20
651.46
30
0
40
11
1
CAB-1 > TB-1  -  4W  -  7/3.5  -  FO-24C  -  24C  -  22.15 m
7
STANDARD
50
4
71
0
72
1
73
2
11
350
21
651.46
31
0
0
POLYLINE
8
DUCT_4W_7_3_5
62
3
66
1
70
0
10
0
20
0
30
0
0
VERTEX
8
DUCT_4W_7_3_5
10
259
20
490
30
0
0
VERTEX
8
DUCT_4W_7_3_5
10
350
20
490
30
0
0
VERTEX
8
DUCT_4W_7_3_5
10
350
20
265
30
0
0
VERTEX
8
DUCT_4W_7_3_5
10
427
20
265
30
0
0
SEQEND
8
DUCT_4W_7_3_5
0
TEXT
8
ROUTE_TEXT
62
7
10
375
20
353.54
30
0
40
11
1
DISTRIBUTION BRANCH 01
7
STANDARD
50
0
71
0
72
1
73
2
11
375
21
353.54
31
0
0
TEXT
8
ROUTE_TEXT
62
7
10
375
20
339.46
30
0
40
11
1
CAB-1 > TB-2  -  4W  -  7/3.5  -  FO-24C  -  24C  -  19.65 m
7
STANDARD
50
0
71
0
72
1
73
2
11
375
21
339.46
31
0
0
POLYLINE
8
DUCT_1W_7_3_5
62
1
66
1
70
0
10
0
20
0
30
0
0
VERTEX
8
DUCT_1W_7_3_5
10
500
20
703
30
0
0
VERTEX
8
DUCT_1W_7_3_5
10
500
20
703
30
0
0
VERTEX
8
DUCT_1W_7_3_5
10
500
20
580
30
0
0
SEQEND
8
DUCT_1W_7_3_5
0
TEXT
8
ROUTE_TEXT
62
7
10
575
20
648.54
30
0
40
11
1
JOINT LINK
7
STANDARD
50
0
71
0
72
1
73
2
11
575
21
648.54
31
0
0
TEXT
8
ROUTE_TEXT
62
7
10
575
20
634.46
30
0
40
11
1
TB-1 > J-1  -  1W  -  7/3.5  -  FO-24C  -  24C  -  6.15 m
7
STANDARD
50
0
71
0
72
1
73
2
11
575
21
634.46
31
0
0
POLYLINE
8
DUCT_4W_7_3_5
62
3
66
1
70
0
10
0
20
0
30
0
0
VERTEX
8
DUCT_4W_7_3_5
10
532
20
550
30
0
0
VERTEX
8
DUCT_4W_7_3_5
10
610
20
550
30
0
0
VERTEX
8
DUCT_4W_7_3_5
10
610
20
475
30
0
0
VERTEX
8
DUCT_4W_7_3_5
10
621
20
475
30
0
0
SEQEND
8
DUCT_4W_7_3_5
0
TEXT
8
ROUTE_TEXT
62
7
10
738
20
591.04
30
0
40
11
1
SECONDARY ROUTE
7
STANDARD
50
0
71
0
72
1
73
2
11
738
21
591.04
31
0
0
TEXT
8
ROUTE_TEXT
62
7
10
738
20
576.96
30
0
40
11
1
J-1 > CAB-2  -  4W  -  7/3.5  -  FO-24C  -  24C  -  8.2 m
7
STANDARD
50
0
71
0
72
1
73
2
11
738
21
576.96
31
0
0
POLYLINE
8
DUCT_4W_7_3_5
62
3
66
1
70
0
10
0
20
0
30
0
0
VERTEX
8
DUCT_4W_7_3_5
10
799
20
475
30
0
0
VERTEX
8
DUCT_4W_7_3_5
10
860
20
475
30
0
0
VERTEX
8
DUCT_4W_7_3_5
10
860
20
780
30
0
0
VERTEX
8
DUCT_4W_7_3_5
10
1007
20
780
30
0
0
SEQEND
8
DUCT_4W_7_3_5
0
TEXT
8
ROUTE_TEXT
62
7
10
791
20
715.54
30
0
40
11
1
TB-3 BRANCH
7
STANDARD
50
0
71
0
72
1
73
2
11
791
21
715.54
31
0
0
TEXT
8
ROUTE_TEXT
62
7
10
791
20
701.46
30
0
40
11
1
CAB-2 > TB-3  -  4W  -  7/3.5  -  FO-24C  -  24C  -  25.65 m
7
STANDARD
50
0
71
0
72
1
73
2
11
791
21
701.46
31
0
0
POLYLINE
8
DUCT_1W_7_3_5
62
1
66
1
70
0
10
0
20
0
30
0
0
VERTEX
8
DUCT_1W_7_3_5
10
799
20
475
30
0
0
VERTEX
8
DUCT_1W_7_3_5
10
900
20
475
30
0
0
VERTEX
8
DUCT_1W_7_3_5
10
900
20
510
30
0
0
VERTEX
8
DUCT_1W_7_3_5
10
1007
20
510
30
0
0
SEQEND
8
DUCT_1W_7_3_5
0
TEXT
8
ROUTE_TEXT
62
7
10
900
20
460.54
30
0
40
11
1
TB-4 BRANCH
7
STANDARD
50
0
71
0
72
1
73
2
11
900
21
460.54
31
0
0
TEXT
8
ROUTE_TEXT
62
7
10
900
20
446.46
30
0
40
11
1
CAB-2 > TB-4  -  1W  -  7/3.5  -  FO-24C  -  24C  -  12.15 m
7
STANDARD
50
0
71
0
72
1
73
2
11
900
21
446.46
31
0
0
POLYLINE
8
FIBER_24C
62
4
66
1
70
0
10
0
20
0
30
0
0
VERTEX
8
FIBER_24C
10
573
20
270.2143
30
0
0
VERTEX
8
FIBER_24C
10
672
20
270.2143
30
0
0
VERTEX
8
FIBER_24C
10
672
20
277.2857
30
0
0
SEQEND
8
FIBER_24C
0
TEXT
8
ROUTE_TEXT
62
7
10
626.0357
20
309.2543
30
0
40
11
1
FEEDER CABLE
7
STANDARD
50
0
71
0
72
1
73
2
11
626.0357
21
309.2543
31
0
0
TEXT
8
ROUTE_TEXT
62
7
10
626.0357
20
295.1743
30
0
40
11
1
TB-2 > MH-1  -  FO-24C  -  24C  -  5.3 m
7
STANDARD
50
0
71
0
72
1
73
2
11
626.0357
21
295.1743
31
0
0
POLYLINE
8
NODE_CABINET
62
5
66
1
70
1
10
0
20
0
30
0
0
VERTEX
8
NODE_CABINET
10
81
20
418
30
0
0
VERTEX
8
NODE_CABINET
10
259
20
418
30
0
0
VERTEX
8
NODE_CABINET
10
259
20
562
30
0
0
VERTEX
8
NODE_CABINET
10
81
20
562
30
0
0
SEQEND
8
NODE_CABINET
0
LINE
8
NODE_CABINET
10
81
20
536
30
0
11
259
21
536
31
0
0
TEXT
8
NODE_TEXT
62
7
10
170
20
553
30
0
40
12
1
CAB-1
7
STANDARD
50
0
71
0
72
1
73
2
11
170
21
553
31
0
0
LINE
8
NODE_CABINET
10
81
20
511
30
0
11
259
21
511
31
0
0
LINE
8
NODE_CABINET
10
170
20
511
30
0
11
170
21
536
31
0
0
LINE
8
NODE_CABINET
10
81
20
486
30
0
11
259
21
486
31
0
0
LINE
8
NODE_CABINET
10
170
20
486
30
0
11
170
21
511
31
0
0
TEXT
8
NODE_TEXT
62
7
10
88
20
519
30
0
40
8.2
1
NO 01
7
STANDARD
50
0
71
0
0
TEXT
8
NODE_TEXT
62
7
10
177
20
519
30
0
40
8.2
1
CORE 288
7
STANDARD
50
0
71
0
0
TEXT
8
NODE_TEXT
62
7
10
88
20
494
30
0
40
8.2
1
PORT 144
7
STANDARD
50
0
71
0
0
TEXT
8
NODE_TEXT
62
7
10
177
20
494
30
0
40
8.2
1
TYPE MAIN-CAB-42U
7
STANDARD
50
0
71
0
0
TEXT
8
NODE_TEXT
62
7
10
90
20
474
30
0
40
7.2
1
ODF ODF-144
7
STANDARD
50
0
71
0
0
TEXT
8
NODE_TEXT
62
7
10
90
20
462
30
0
40
7.2
1
SP SP-1X16
7
STANDARD
50
0
71
0
0
TEXT
8
NODE_TEXT
62
7
10
90
20
450
30
0
40
7.2
1
MAIN CABINET 01
7
STANDARD
50
0
71
0
0
TEXT
8
NODE_TEXT
62
7
10
90
20
438
30
0
40
7.2
1
ODF 144 \U+00B7 PORT 01
7
STANDARD
50
0
71
0
0
TEXT
8
NODE_TEXT
62
7
10
170
20
404
30
0
40
8
1
42U Main Cabinet
7
STANDARD
50
0
71
0
72
1
73
2
11
170
21
404
31
0
0
POLYLINE
8
NODE_CABINET
62
5
66
1
70
1
10
0
20
0
30
0
0
VERTEX
8
NODE_CABINET
10
621
20
403
30
0
0
VERTEX
8
NODE_CABINET
10
799
20
403
30
0
0
VERTEX
8
NODE_CABINET
10
799
20
547
30
0
0
VERTEX
8
NODE_CABINET
10
621
20
547
30
0
0
SEQEND
8
NODE_CABINET
0
LINE
8
NODE_CABINET
10
621
20
521
30
0
11
799
21
521
31
0
0
TEXT
8
NODE_TEXT
62
7
10
710
20
538
30
0
40
12
1
CAB-2
7
STANDARD
50
0
71
0
72
1
73
2
11
710
21
538
31
0
0
LINE
8
NODE_CABINET
10
621
20
496
30
0
11
799
21
496
31
0
0
LINE
8
NODE_CABINET
10
710
20
496
30
0
11
710
21
521
31
0
0
LINE
8
NODE_CABINET
10
621
20
471
30
0
11
799
21
471
31
0
0
LINE
8
NODE_CABINET
10
710
20
471
30
0
11
710
21
496
31
0
0
TEXT
8
NODE_TEXT
62
7
10
628
20
504
30
0
40
8.2
1
NO 02
7
STANDARD
50
0
71
0
0
TEXT
8
NODE_TEXT
62
7
10
717
20
504
30
0
40
8.2
1
CORE 144
7
STANDARD
50
0
71
0
0
TEXT
8
NODE_TEXT
62
7
10
628
20
479
30
0
40
8.2
1
PORT 72
7
STANDARD
50
0
71
0
0
TEXT
8
NODE_TEXT
62
7
10
717
20
479
30
0
40
8.2
1
TYPE SUBCAB-22U
7
STANDARD
50
0
71
0
0
TEXT
8
NODE_TEXT
62
7
10
630
20
459
30
0
40
7.2
1
ODF ODF-72
7
STANDARD
50
0
71
0
0
TEXT
8
NODE_TEXT
62
7
10
630
20
447
30
0
40
7.2
1
SP SP-1X8
7
STANDARD
50
0
71
0
0
TEXT
8
NODE_TEXT
62
7
10
630
20
435
30
0
40
7.2
1
\U+0628\U+064A\U+0627\U+0646\U+0627\U+062A \U+0643\U+0627\U+0628\U+064A\U+0646\U+0629 \U+0641\U+0631\U+0639\U+064A\U+0629 \U+0642\U+0627\U+0628\U+0644\U+0629 \U+0644\U+0644\U+062A\U+062D\U+0631\U+064A\U+0643
7
STANDARD
50
0
71
0
0
TEXT
8
NODE_TEXT
62
7
10
630
20
423
30
0
40
7.2
1
SUB CABINET 02
7
STANDARD
50
0
71
0
0
TEXT
8
NODE_TEXT
62
7
10
710
20
389
30
0
40
8
1
22U Sub Cabinet
7
STANDARD
50
0
71
0
72
1
73
2
11
710
21
389
31
0
0
POLYLINE
8
NODE_TERMINAL
62
3
66
1
70
1
10
0
20
0
30
0
0
VERTEX
8
NODE_TERMINAL
10
427
20
703
30
0
0
VERTEX
8
NODE_TERMINAL
10
573
20
703
30
0
0
VERTEX
8
NODE_TERMINAL
10
573
20
827
30
0
0
VERTEX
8
NODE_TERMINAL
10
427
20
827
30
0
0
SEQEND
8
NODE_TERMINAL
0
LINE
8
NODE_TERMINAL
10
427
20
801
30
0
11
573
21
801
31
0
0
TEXT
8
NODE_TEXT
62
7
10
500
20
818
30
0
40
12
1
TB-1
7
STANDARD
50
0
71
0
72
1
73
2
11
500
21
818
31
0
0
LINE
8
NODE_TERMINAL
10
427
20
776
30
0
11
573
21
776
31
0
0
LINE
8
NODE_TERMINAL
10
500
20
776
30
0
11
500
21
801
31
0
0
LINE
8
NODE_TERMINAL
10
427
20
751
30
0
11
573
21
751
31
0
0
LINE
8
NODE_TERMINAL
10
500
20
751
30
0
11
500
21
776
31
0
0
TEXT
8
NODE_TEXT
62
7
10
434
20
784
30
0
40
8.2
1
NO 1
7
STANDARD
50
0
71
0
0
TEXT
8
NODE_TEXT
62
7
10
507
20
784
30
0
40
8.2
1
CORE 96
7
STANDARD
50
0
71
0
0
TEXT
8
NODE_TEXT
62
7
10
434
20
759
30
0
40
8.2
1
PORT 16
7
STANDARD
50
0
71
0
0
TEXT
8
NODE_TEXT
62
7
10
507
20
759
30
0
40
8.2
1
TYPE TB-96C
7
STANDARD
50
0
71
0
0
TEXT
8
NODE_TEXT
62
7
10
436
20
739
30
0
40
7.2
1
CORE 1-96
7
STANDARD
50
0
71
0
0
TEXT
8
NODE_TEXT
62
7
10
436
20
727
30
0
40
7.2
1
TERMINATION BOX 01
7
STANDARD
50
0
71
0
0
TEXT
8
NODE_TEXT
62
7
10
436
20
715
30
0
40
7.2
1
CORE 001\U+2013096
7
STANDARD
50
0
71
0
0
TEXT
8
NODE_TEXT
62
7
10
500
20
689
30
0
40
8
1
96C Termination Box
7
STANDARD
50
0
71
0
72
1
73
2
11
500
21
689
31
0
0
POLYLINE
8
NODE_TERMINAL
62
3
66
1
70
1
10
0
20
0
30
0
0
VERTEX
8
NODE_TERMINAL
10
427
20
203
30
0
0
VERTEX
8
NODE_TERMINAL
10
573
20
203
30
0
0
VERTEX
8
NODE_TERMINAL
10
573
20
327
30
0
0
VERTEX
8
NODE_TERMINAL
10
427
20
327
30
0
0
SEQEND
8
NODE_TERMINAL
0
LINE
8
NODE_TERMINAL
10
427
20
301
30
0
11
573
21
301
31
0
0
TEXT
8
NODE_TEXT
62
7
10
500
20
318
30
0
40
12
1
TB-2
7
STANDARD
50
0
71
0
72
1
73
2
11
500
21
318
31
0
0
LINE
8
NODE_TERMINAL
10
427
20
276
30
0
11
573
21
276
31
0
0
LINE
8
NODE_TERMINAL
10
500
20
276
30
0
11
500
21
301
31
0
0
LINE
8
NODE_TERMINAL
10
427
20
251
30
0
11
573
21
251
31
0
0
LINE
8
NODE_TERMINAL
10
500
20
251
30
0
11
500
21
276
31
0
0
TEXT
8
NODE_TEXT
62
7
10
434
20
284
30
0
40
8.2
1
NO 2
7
STANDARD
50
0
71
0
0
TEXT
8
NODE_TEXT
62
7
10
507
20
284
30
0
40
8.2
1
CORE 96
7
STANDARD
50
0
71
0
0
TEXT
8
NODE_TEXT
62
7
10
434
20
259
30
0
40
8.2
1
PORT 16
7
STANDARD
50
0
71
0
0
TEXT
8
NODE_TEXT
62
7
10
507
20
259
30
0
40
8.2
1
TYPE TB-96C
7
STANDARD
50
0
71
0
0
TEXT
8
NODE_TEXT
62
7
10
436
20
239
30
0
40
7.2
1
CORE 97-192
7
STANDARD
50
0
71
0
0
TEXT
8
NODE_TEXT
62
7
10
436
20
227
30
0
40
7.2
1
TB-02
7
STANDARD
50
0
71
0
0
TEXT
8
NODE_TEXT
62
7
10
436
20
215
30
0
40
7.2
1
CORE 097\U+2013192
7
STANDARD
50
0
71
0
0
TEXT
8
NODE_TEXT
62
7
10
500
20
189
30
0
40
8
1
96C Termination Box
7
STANDARD
50
0
71
0
72
1
73
2
11
500
21
189
31
0
0
POLYLINE
8
NODE_TERMINAL
62
3
66
1
70
1
10
0
20
0
30
0
0
VERTEX
8
NODE_TERMINAL
10
1007
20
730
30
0
0
VERTEX
8
NODE_TERMINAL
10
1153
20
730
30
0
0
VERTEX
8
NODE_TERMINAL
10
1153
20
830
30
0
0
VERTEX
8
NODE_TERMINAL
10
1007
20
830
30
0
0
SEQEND
8
NODE_TERMINAL
0
LINE
8
NODE_TERMINAL
10
1007
20
804
30
0
11
1153
21
804
31
0
0
TEXT
8
NODE_TEXT
62
7
10
1080
20
821
30
0
40
12
1
TB-3
7
STANDARD
50
0
71
0
72
1
73
2
11
1080
21
821
31
0
0
LINE
8
NODE_TERMINAL
10
1007
20
779
30
0
11
1153
21
779
31
0
0
LINE
8
NODE_TERMINAL
10
1080
20
779
30
0
11
1080
21
804
31
0
0
LINE
8
NODE_TERMINAL
10
1007
20
754
30
0
11
1153
21
754
31
0
0
LINE
8
NODE_TERMINAL
10
1080
20
754
30
0
11
1080
21
779
31
0
0
TEXT
8
NODE_TEXT
62
7
10
1014
20
787
30
0
40
8.2
1
NO 3
7
STANDARD
50
0
71
0
0
TEXT
8
NODE_TEXT
62
7
10
1087
20
787
30
0
40
8.2
1
CORE 24
7
STANDARD
50
0
71
0
0
TEXT
8
NODE_TEXT
62
7
10
1014
20
762
30
0
40
8.2
1
PORT 8
7
STANDARD
50
0
71
0
0
TEXT
8
NODE_TEXT
62
7
10
1087
20
762
30
0
40
8.2
1
TYPE TB-24C
7
STANDARD
50
0
71
0
0
TEXT
8
NODE_TEXT
62
7
10
1016
20
742
30
0
40
7.2
1
CORE 193-216
7
STANDARD
50
0
71
0
0
TEXT
8
NODE_TEXT
62
7
10
1080
20
716
30
0
40
8
1
24C Termination Box
7
STANDARD
50
0
71
0
72
1
73
2
11
1080
21
716
31
0
0
POLYLINE
8
NODE_TERMINAL
62
3
66
1
70
1
10
0
20
0
30
0
0
VERTEX
8
NODE_TERMINAL
10
1007
20
460
30
0
0
VERTEX
8
NODE_TERMINAL
10
1153
20
460
30
0
0
VERTEX
8
NODE_TERMINAL
10
1153
20
560
30
0
0
VERTEX
8
NODE_TERMINAL
10
1007
20
560
30
0
0
SEQEND
8
NODE_TERMINAL
0
LINE
8
NODE_TERMINAL
10
1007
20
534
30
0
11
1153
21
534
31
0
0
TEXT
8
NODE_TEXT
62
7
10
1080
20
551
30
0
40
12
1
TB-4
7
STANDARD
50
0
71
0
72
1
73
2
11
1080
21
551
31
0
0
LINE
8
NODE_TERMINAL
10
1007
20
509
30
0
11
1153
21
509
31
0
0
LINE
8
NODE_TERMINAL
10
1080
20
509
30
0
11
1080
21
534
31
0
0
LINE
8
NODE_TERMINAL
10
1007
20
484
30
0
11
1153
21
484
31
0
0
LINE
8
NODE_TERMINAL
10
1080
20
484
30
0
11
1080
21
509
31
0
0
TEXT
8
NODE_TEXT
62
7
10
1014
20
517
30
0
40
8.2
1
NO 4
7
STANDARD
50
0
71
0
0
TEXT
8
NODE_TEXT
62
7
10
1087
20
517
30
0
40
8.2
1
CORE 24
7
STANDARD
50
0
71
0
0
TEXT
8
NODE_TEXT
62
7
10
1014
20
492
30
0
40
8.2
1
PORT 8
7
STANDARD
50
0
71
0
0
TEXT
8
NODE_TEXT
62
7
10
1087
20
492
30
0
40
8.2
1
TYPE TB-24C
7
STANDARD
50
0
71
0
0
TEXT
8
NODE_TEXT
62
7
10
1016
20
472
30
0
40
7.2
1
CORE 217-240
7
STANDARD
50
0
71
0
0
TEXT
8
NODE_TEXT
62
7
10
1080
20
446
30
0
40
8
1
24C Termination Box
7
STANDARD
50
0
71
0
72
1
73
2
11
1080
21
446
31
0
0
POLYLINE
8
NODE_JOINT
62
6
66
1
70
1
10
0
20
0
30
0
0
VERTEX
8
NODE_JOINT
10
500
20
578
30
0
0
VERTEX
8
NODE_JOINT
10
530
20
550
30
0
0
VERTEX
8
NODE_JOINT
10
500
20
522
30
0
0
VERTEX
8
NODE_JOINT
10
470
20
550
30
0
0
SEQEND
8
NODE_JOINT
0
TEXT
8
NODE_TEXT
62
7
10
500
20
554
30
0
40
12
1
J-1
7
STANDARD
50
0
71
0
72
1
73
2
11
500
21
554
31
0
0
TEXT
8
NODE_TEXT
62
7
10
500
20
507
30
0
40
8
1
96C Fiber Joint
7
STANDARD
50
0
71
0
72
1
73
2
11
500
21
507
31
0
0
CIRCLE
8
NODE_CIVIL
62
8
10
710
20
280
30
0
40
31
0
CIRCLE
8
NODE_CIVIL
62
8
10
710
20
280
30
0
40
20
0
TEXT
8
NODE_TEXT
62
7
10
710
20
284
30
0
40
11
1
MH-1
7
STANDARD
50
0
71
0
72
1
73
2
11
710
21
284
31
0
0
TEXT
8
NODE_TEXT
62
7
10
710
20
233
30
0
40
8
1
TDM Manhole
7
STANDARD
50
0
71
0
72
1
73
2
11
710
21
233
31
0
0
TEXT
8
NOTES
62
7
10
1220
20
143.5
30
0
40
20
1
ISSUED DRAWING
7
STANDARD
50
6
71
0
72
1
73
2
11
1220
21
143.5
31
0
0
TEXT
8
NOTES
62
7
10
1220
20
116.5
30
0
40
20
1
\U+0631\U+0633\U+0645 \U+062C\U+0627\U+0647\U+0632 \U+0644\U+0644\U+0637\U+0628\U+0627\U+0639\U+0629
7
STANDARD
50
6
71
0
72
1
73
2
11
1220
21
116.5
31
0
0
POLYLINE
8
FRAME
62
3
66
1
70
1
10
0
20
0
30
0
0
VERTEX
8
FRAME
10
1610
20
10
30
0
0
VERTEX
8
FRAME
10
1910
20
10
30
0
0
VERTEX
8
FRAME
10
1910
20
990
30
0
0
VERTEX
8
FRAME
10
1610
20
990
30
0
0
SEQEND
8
FRAME
0
TEXT
8
TITLE_TEXT
62
7
10
1622
20
970
30
0
40
18
1
LEGEND
7
STANDARD
50
0
71
0
0
LINE
8
DUCT_4W_7_3_5
62
3
10
1622
20
927
30
0
11
1677
21
927
31
0
0
TEXT
8
TITLE_TEXT
62
7
10
1688
20
930
30
0
40
9
1
4W 7/3.5 Microduct
7
STANDARD
50
0
71
0
0
LINE
8
DUCT_1W_7_3_5
62
1
10
1622
20
902
30
0
11
1677
21
902
31
0
0
TEXT
8
TITLE_TEXT
62
7
10
1688
20
905
30
0
40
9
1
1W 7/3.5 Microduct
7
STANDARD
50
0
71
0
0
LINE
8
FIBER_24C
62
4
10
1622
20
877
30
0
11
1677
21
877
31
0
0
TEXT
8
TITLE_TEXT
62
7
10
1688
20
880
30
0
40
9
1
24C Fiber Cable
7
STANDARD
50
0
71
0
0
LINE
8
TITLE_GRID
62
3
10
1610
20
680
30
0
11
1910
21
680
31
0
0
TEXT
8
TITLE_TEXT
62
7
10
1622
20
670
30
0
40
7
1
PROJECT
7
STANDARD
50
0
71
0
0
TEXT
8
TITLE_TEXT
62
7
10
1622
20
652
30
0
40
10
1
Shatanof Fiber Project
7
STANDARD
50
0
71
0
0
LINE
8
TITLE_GRID
62
3
10
1610
20
635
30
0
11
1910
21
635
31
0
0
TEXT
8
TITLE_TEXT
62
7
10
1622
20
625
30
0
40
7
1
SITE
7
STANDARD
50
0
71
0
0
TEXT
8
TITLE_TEXT
62
7
10
1622
20
607
30
0
40
10
1
Zone 01
7
STANDARD
50
0
71
0
0
LINE
8
TITLE_GRID
62
3
10
1610
20
590
30
0
11
1910
21
590
31
0
0
TEXT
8
TITLE_TEXT
62
7
10
1622
20
580
30
0
40
7
1
DRAWING NO
7
STANDARD
50
0
71
0
0
TEXT
8
TITLE_TEXT
62
7
10
1622
20
562
30
0
40
10
1
P001-FIBER-001
7
STANDARD
50
0
71
0
0
LINE
8
TITLE_GRID
62
3
10
1610
20
545
30
0
11
1910
21
545
31
0
0
TEXT
8
TITLE_TEXT
62
7
10
1622
20
535
30
0
40
7
1
TITLE
7
STANDARD
50
0
71
0
0
TEXT
8
TITLE_TEXT
62
7
10
1622
20
517
30
0
40
10
1
Secondary Fiber Network \U+2014 Production Freeze
7
STANDARD
50
0
71
0
0
LINE
8
TITLE_GRID
62
3
10
1610
20
500
30
0
11
1910
21
500
31
0
0
TEXT
8
TITLE_TEXT
62
7
10
1622
20
490
30
0
40
7
1
CLIENT
7
STANDARD
50
0
71
0
0
TEXT
8
TITLE_TEXT
62
7
10
1622
20
472
30
0
40
10
1
Optimum Client
7
STANDARD
50
0
71
0
0
LINE
8
TITLE_GRID
62
3
10
1610
20
455
30
0
11
1910
21
455
31
0
0
TEXT
8
TITLE_TEXT
62
7
10
1622
20
445
30
0
40
7
1
CONSULTANT
7
STANDARD
50
0
71
0
0
TEXT
8
TITLE_TEXT
62
7
10
1622
20
427
30
0
40
10
1
Engineering Consultant
7
STANDARD
50
0
71
0
0
LINE
8
TITLE_GRID
62
3
10
1610
20
410
30
0
11
1910
21
410
31
0
0
TEXT
8
TITLE_TEXT
62
7
10
1622
20
400
30
0
40
7
1
COMPANY
7
STANDARD
50
0
71
0
0
TEXT
8
TITLE_TEXT
62
7
10
1622
20
382
30
0
40
10
1
Optimum Engineering
7
STANDARD
50
0
71
0
0
LINE
8
TITLE_GRID
62
3
10
1610
20
365
30
0
11
1910
21
365
31
0
0
TEXT
8
TITLE_TEXT
62
7
10
1622
20
355
30
0
40
7
1
REV
7
STANDARD
50
0
71
0
0
TEXT
8
TITLE_TEXT
62
7
10
1622
20
337
30
0
40
10
1
R2
7
STANDARD
50
0
71
0
0
LINE
8
TITLE_GRID
62
3
10
1610
20
320
30
0
11
1910
21
320
31
0
0
TEXT
8
TITLE_TEXT
62
7
10
1622
20
310
30
0
40
7
1
STATUS
7
STANDARD
50
0
71
0
0
TEXT
8
TITLE_TEXT
62
7
10
1622
20
292
30
0
40
10
1
FOR APPROVAL
7
STANDARD
50
0
71
0
0
LINE
8
TITLE_GRID
62
3
10
1610
20
275
30
0
11
1910
21
275
31
0
0
TEXT
8
TITLE_TEXT
62
7
10
1622
20
265
30
0
40
7
1
SCALE
7
STANDARD
50
0
71
0
0
TEXT
8
TITLE_TEXT
62
7
10
1622
20
247
30
0
40
10
1
NTS
7
STANDARD
50
0
71
0
0
LINE
8
TITLE_GRID
62
3
10
1610
20
230
30
0
11
1910
21
230
31
0
0
TEXT
8
TITLE_TEXT
62
7
10
1622
20
220
30
0
40
7
1
DATE
7
STANDARD
50
0
71
0
0
TEXT
8
TITLE_TEXT
62
7
10
1622
20
202
30
0
40
10
1
2026-08-05
7
STANDARD
50
0
71
0
0
ENDSEC
0
EOF
