0
SECTION
2
HEADER
9
$ACADVER
1
AC1015
9
$INSUNITS
70
4
9
$EXTMIN
10
0
20
0
30
0
9
$EXTMAX
10
1920
20
1000
30
0
0
ENDSEC
0
SECTION
2
TABLES
0
TABLE
2
LTYPE
100
AcDbSymbolTable
70
2
0
LTYPE
100
AcDbSymbolTableRecord
100
AcDbLinetypeTableRecord
2
CONTINUOUS
70
0
3
Solid line
72
65
73
0
40
0
0
LTYPE
100
AcDbSymbolTableRecord
100
AcDbLinetypeTableRecord
2
DASHED
70
0
3
Dashed __ __
72
65
73
2
40
0.75
49
0.5
74
0
49
-0.25
74
0
0
ENDTAB
0
TABLE
2
LAYER
100
AcDbSymbolTable
70
16
0
LAYER
100
AcDbSymbolTableRecord
100
AcDbLayerTableRecord
2
0
70
0
62
7
6
CONTINUOUS
370
25
0
LAYER
100
AcDbSymbolTableRecord
100
AcDbLayerTableRecord
2
FRAME
70
0
62
3
6
CONTINUOUS
370
30
0
LAYER
100
AcDbSymbolTableRecord
100
AcDbLayerTableRecord
2
TITLE_GRID
70
0
62
5
6
CONTINUOUS
370
20
0
LAYER
100
AcDbSymbolTableRecord
100
AcDbLayerTableRecord
2
TITLE_TEXT
70
0
62
7
6
CONTINUOUS
370
18
0
LAYER
100
AcDbSymbolTableRecord
100
AcDbLayerTableRecord
2
NODE_CABINET
70
0
62
5
6
CONTINUOUS
370
35
0
LAYER
100
AcDbSymbolTableRecord
100
AcDbLayerTableRecord
2
NODE_TERMINAL
70
0
62
1
6
CONTINUOUS
370
30
0
LAYER
100
AcDbSymbolTableRecord
100
AcDbLayerTableRecord
2
NODE_OPTICAL
70
0
62
1
6
CONTINUOUS
370
25
0
LAYER
100
AcDbSymbolTableRecord
100
AcDbLayerTableRecord
2
NODE_CIVIL
70
0
62
8
6
CONTINUOUS
370
30
0
LAYER
100
AcDbSymbolTableRecord
100
AcDbLayerTableRecord
2
NODE_JOINT
70
0
62
6
6
CONTINUOUS
370
30
0
LAYER
100
AcDbSymbolTableRecord
100
AcDbLayerTableRecord
2
NODE_TEXT
70
0
62
7
6
CONTINUOUS
370
18
0
LAYER
100
AcDbSymbolTableRecord
100
AcDbLayerTableRecord
2
ROUTE_TEXT
70
0
62
7
6
CONTINUOUS
370
18
0
LAYER
100
AcDbSymbolTableRecord
100
AcDbLayerTableRecord
2
NOTES
70
0
62
7
6
CONTINUOUS
370
18
0
LAYER
100
AcDbSymbolTableRecord
100
AcDbLayerTableRecord
2
REVIEW
70
0
62
1
6
CONTINUOUS
370
25
0
LAYER
100
AcDbSymbolTableRecord
100
AcDbLayerTableRecord
2
DUCT_4W_7_3_5
70
0
62
3
6
CONTINUOUS
370
35
0
LAYER
100
AcDbSymbolTableRecord
100
AcDbLayerTableRecord
2
DUCT_1W_7_3_5
70
0
62
1
6
CONTINUOUS
370
35
0
LAYER
100
AcDbSymbolTableRecord
100
AcDbLayerTableRecord
2
FIBER_24C
70
0
62
4
6
CONTINUOUS
370
35
0
ENDTAB
0
TABLE
2
STYLE
100
AcDbSymbolTable
70
1
0
STYLE
100
AcDbSymbolTableRecord
100
AcDbTextStyleTableRecord
2
OPTIMUM
70
0
40
0
41
1
50
0
71
0
42
12
3
Arial.ttf
4

0
ENDTAB
0
ENDSEC
0
SECTION
2
BLOCKS
0
BLOCK
100
AcDbEntity
8
0
100
AcDbBlockBegin
2
*Model_Space
70
0
10
0
20
0
30
0
3
*Model_Space
1

0
ENDBLK
100
AcDbEntity
8
0
100
AcDbBlockEnd
0
BLOCK
100
AcDbEntity
8
0
100
AcDbBlockBegin
2
*Paper_Space
70
0
10
0
20
0
30
0
3
*Paper_Space
1

0
ENDBLK
100
AcDbEntity
8
0
100
AcDbBlockEnd
0
ENDSEC
0
SECTION
2
ENTITIES
0
LWPOLYLINE
100
AcDbEntity
8
FRAME
100
AcDbPolyline
90
4
70
1
10
10
20
10
10
1590
20
10
10
1590
20
990
10
10
20
990
0
LWPOLYLINE
100
AcDbEntity
8
FRAME
100
AcDbPolyline
90
4
70
1
10
16
20
16
10
1584
20
16
10
1584
20
984
10
16
20
984
0
LWPOLYLINE
100
AcDbEntity
8
DUCT_4W_7_3_5
100
AcDbPolyline
90
4
70
0
10
209
20
490
10
350
20
490
10
350
20
765
10
461
20
765
0
TEXT
100
AcDbEntity
8
ROUTE_TEXT
100
AcDbText
10
350
20
657.87
30
0
40
11
1
MAIN ROUTE
7
OPTIMUM
50
0
72
1
73
2
11
350
21
657.87
31
0
0
TEXT
100
AcDbEntity
8
ROUTE_TEXT
100
AcDbText
10
350
20
643.13
30
0
40
11
1
CAB-1 > TB-1  \U+00B7  4W  \U+00B7  7/3.5  \U+00B7  FO-24C  \U+00B7  24C  \U+00B7  26.35 m
7
OPTIMUM
50
0
72
1
73
2
11
350
21
643.13
31
0
0
LWPOLYLINE
100
AcDbEntity
8
DUCT_4W_7_3_5
100
AcDbPolyline
90
4
70
0
10
209
20
490
10
350
20
490
10
350
20
265
10
461
20
265
0
TEXT
100
AcDbEntity
8
ROUTE_TEXT
100
AcDbText
10
375
20
361.87
30
0
40
11
1
DISTRIBUTION BRANCH 01
7
OPTIMUM
50
0
72
1
73
2
11
375
21
361.87
31
0
0
TEXT
100
AcDbEntity
8
ROUTE_TEXT
100
AcDbText
10
375
20
347.13
30
0
40
11
1
CAB-1 > TB-2  \U+00B7  4W  \U+00B7  7/3.5  \U+00B7  FO-24C  \U+00B7  24C  \U+00B7  23.85 m
7
OPTIMUM
50
0
72
1
73
2
11
375
21
347.13
31
0
0
LWPOLYLINE
100
AcDbEntity
8
DUCT_1W_7_3_5
100
AcDbPolyline
90
3
70
0
10
500
20
737
10
500
20
737
10
500
20
578
0
TEXT
100
AcDbEntity
8
ROUTE_TEXT
100
AcDbText
10
575
20
664.87
30
0
40
11
1
JOINT LINK
7
OPTIMUM
50
0
72
1
73
2
11
575
21
664.87
31
0
0
TEXT
100
AcDbEntity
8
ROUTE_TEXT
100
AcDbText
10
575
20
650.13
30
0
40
11
1
TB-1 > J-1  \U+00B7  1W  \U+00B7  7/3.5  \U+00B7  FO-24C  \U+00B7  24C  \U+00B7  7.95 m
7
OPTIMUM
50
0
72
1
73
2
11
575
21
650.13
31
0
0
LWPOLYLINE
100
AcDbEntity
8
DUCT_4W_7_3_5
100
AcDbPolyline
90
4
70
0
10
539
20
550
10
610
20
550
10
610
20
475
10
671
20
475
0
TEXT
100
AcDbEntity
8
ROUTE_TEXT
100
AcDbText
10
630
20
562.87
30
0
40
11
1
SECONDARY ROUTE
7
OPTIMUM
50
0
72
1
73
2
11
630
21
562.87
31
0
0
TEXT
100
AcDbEntity
8
ROUTE_TEXT
100
AcDbText
10
630
20
548.13
30
0
40
11
1
J-1 > CAB-2  \U+00B7  4W  \U+00B7  7/3.5  \U+00B7  FO-24C  \U+00B7  24C  \U+00B7  10.35 m
7
OPTIMUM
50
0
72
1
73
2
11
630
21
548.13
31
0
0
LWPOLYLINE
100
AcDbEntity
8
DUCT_4W_7_3_5
100
AcDbPolyline
90
4
70
0
10
749
20
475
10
860
20
475
10
860
20
780
10
1041
20
780
0
TEXT
100
AcDbEntity
8
ROUTE_TEXT
100
AcDbText
10
875
20
707.87
30
0
40
11
1
TB-3 BRANCH
7
OPTIMUM
50
0
72
1
73
2
11
875
21
707.87
31
0
0
TEXT
100
AcDbEntity
8
ROUTE_TEXT
100
AcDbText
10
875
20
693.13
30
0
40
11
1
CAB-2 > TB-3  \U+00B7  4W  \U+00B7  7/3.5  \U+00B7  FO-24C  \U+00B7  24C  \U+00B7  29.85 m
7
OPTIMUM
50
0
72
1
73
2
11
875
21
693.13
31
0
0
LWPOLYLINE
100
AcDbEntity
8
DUCT_1W_7_3_5
100
AcDbPolyline
90
4
70
0
10
749
20
475
10
900
20
475
10
900
20
510
10
1041
20
510
0
TEXT
100
AcDbEntity
8
ROUTE_TEXT
100
AcDbText
10
900
20
452.87
30
0
40
11
1
TB-4 BRANCH
7
OPTIMUM
50
0
72
1
73
2
11
900
21
452.87
31
0
0
TEXT
100
AcDbEntity
8
ROUTE_TEXT
100
AcDbText
10
900
20
438.13
30
0
40
11
1
CAB-2 > TB-4  \U+00B7  1W  \U+00B7  7/3.5  \U+00B7  FO-24C  \U+00B7  24C  \U+00B7  16.35 m
7
OPTIMUM
50
0
72
1
73
2
11
900
21
438.13
31
0
0
LWPOLYLINE
100
AcDbEntity
8
FIBER_24C
100
AcDbPolyline
90
3
70
0
10
539
20
267.7857
10
671
20
267.7857
10
671
20
277.2143
0
TEXT
100
AcDbEntity
8
ROUTE_TEXT
100
AcDbText
10
609.7143
20
307.1557
30
0
40
11
1
FEEDER CABLE
7
OPTIMUM
50
0
72
1
73
2
11
609.7143
21
307.1557
31
0
0
TEXT
100
AcDbEntity
8
ROUTE_TEXT
100
AcDbText
10
609.7143
20
292.4157
30
0
40
11
1
TB-2 > MH-1  \U+00B7  FO-24C  \U+00B7  24C  \U+00B7  7.07 m
7
OPTIMUM
50
0
72
1
73
2
11
609.7143
21
292.4157
31
0
0
LWPOLYLINE
100
AcDbEntity
8
NODE_CABINET
100
AcDbPolyline
90
4
70
1
10
95
20
438
10
245
20
438
10
245
20
542
10
95
20
542
0
LINE
100
AcDbEntity
8
NODE_CABINET
100
AcDbLine
10
95
20
516
30
0
11
245
21
516
31
0
0
TEXT
100
AcDbEntity
8
NODE_TEXT
100
AcDbText
10
170
20
533
30
0
40
16
1
CAB-1
7
OPTIMUM
50
0
72
1
73
2
11
170
21
533
31
0
0
LINE
100
AcDbEntity
8
NODE_CABINET
100
AcDbLine
10
95
20
492
30
0
11
245
21
492
31
0
0
LINE
100
AcDbEntity
8
NODE_CABINET
100
AcDbLine
10
170
20
492
30
0
11
170
21
516
31
0
0
LINE
100
AcDbEntity
8
NODE_CABINET
100
AcDbLine
10
95
20
468
30
0
11
245
21
468
31
0
0
LINE
100
AcDbEntity
8
NODE_CABINET
100
AcDbLine
10
170
20
468
30
0
11
170
21
492
31
0
0
LINE
100
AcDbEntity
8
NODE_CABINET
100
AcDbLine
10
95
20
444
30
0
11
245
21
444
31
0
0
LINE
100
AcDbEntity
8
NODE_CABINET
100
AcDbLine
10
170
20
444
30
0
11
170
21
468
31
0
0
TEXT
100
AcDbEntity
8
NODE_TEXT
100
AcDbText
10
101
20
500
30
0
40
9
1
NO 01
7
OPTIMUM
50
0
72
0
73
2
11
101
21
500
31
0
0
TEXT
100
AcDbEntity
8
NODE_TEXT
100
AcDbText
10
176
20
500
30
0
40
9
1
CORE 288
7
OPTIMUM
50
0
72
0
73
2
11
176
21
500
31
0
0
TEXT
100
AcDbEntity
8
NODE_TEXT
100
AcDbText
10
101
20
476
30
0
40
9
1
PORT 144
7
OPTIMUM
50
0
72
0
73
2
11
101
21
476
31
0
0
TEXT
100
AcDbEntity
8
NODE_TEXT
100
AcDbText
10
176
20
476
30
0
40
9
1
TYPE MAIN-CAB-42U
7
OPTIMUM
50
0
72
0
73
2
11
176
21
476
31
0
0
TEXT
100
AcDbEntity
8
NODE_TEXT
100
AcDbText
10
101
20
452
30
0
40
9
1
ODF ODF-144
7
OPTIMUM
50
0
72
0
73
2
11
101
21
452
31
0
0
TEXT
100
AcDbEntity
8
NODE_TEXT
100
AcDbText
10
176
20
452
30
0
40
9
1
SP SP-1X16
7
OPTIMUM
50
0
72
0
73
2
11
176
21
452
31
0
0
TEXT
100
AcDbEntity
8
NODE_TEXT
100
AcDbText
10
170
20
424
30
0
40
9
1
42U Main Cabinet
7
OPTIMUM
50
0
72
1
73
2
11
170
21
424
31
0
0
LWPOLYLINE
100
AcDbEntity
8
NODE_CABINET
100
AcDbPolyline
90
4
70
1
10
635
20
423
10
785
20
423
10
785
20
527
10
635
20
527
0
LINE
100
AcDbEntity
8
NODE_CABINET
100
AcDbLine
10
635
20
501
30
0
11
785
21
501
31
0
0
TEXT
100
AcDbEntity
8
NODE_TEXT
100
AcDbText
10
710
20
518
30
0
40
16
1
CAB-2
7
OPTIMUM
50
0
72
1
73
2
11
710
21
518
31
0
0
LINE
100
AcDbEntity
8
NODE_CABINET
100
AcDbLine
10
635
20
477
30
0
11
785
21
477
31
0
0
LINE
100
AcDbEntity
8
NODE_CABINET
100
AcDbLine
10
710
20
477
30
0
11
710
21
501
31
0
0
LINE
100
AcDbEntity
8
NODE_CABINET
100
AcDbLine
10
635
20
453
30
0
11
785
21
453
31
0
0
LINE
100
AcDbEntity
8
NODE_CABINET
100
AcDbLine
10
710
20
453
30
0
11
710
21
477
31
0
0
LINE
100
AcDbEntity
8
NODE_CABINET
100
AcDbLine
10
635
20
429
30
0
11
785
21
429
31
0
0
LINE
100
AcDbEntity
8
NODE_CABINET
100
AcDbLine
10
710
20
429
30
0
11
710
21
453
31
0
0
TEXT
100
AcDbEntity
8
NODE_TEXT
100
AcDbText
10
641
20
485
30
0
40
9
1
NO 02
7
OPTIMUM
50
0
72
0
73
2
11
641
21
485
31
0
0
TEXT
100
AcDbEntity
8
NODE_TEXT
100
AcDbText
10
716
20
485
30
0
40
9
1
CORE 144
7
OPTIMUM
50
0
72
0
73
2
11
716
21
485
31
0
0
TEXT
100
AcDbEntity
8
NODE_TEXT
100
AcDbText
10
641
20
461
30
0
40
9
1
PORT 72
7
OPTIMUM
50
0
72
0
73
2
11
641
21
461
31
0
0
TEXT
100
AcDbEntity
8
NODE_TEXT
100
AcDbText
10
716
20
461
30
0
40
9
1
TYPE SUBCAB-22U
7
OPTIMUM
50
0
72
0
73
2
11
716
21
461
31
0
0
TEXT
100
AcDbEntity
8
NODE_TEXT
100
AcDbText
10
641
20
437
30
0
40
9
1
ODF ODF-72
7
OPTIMUM
50
0
72
0
73
2
11
641
21
437
31
0
0
TEXT
100
AcDbEntity
8
NODE_TEXT
100
AcDbText
10
716
20
437
30
0
40
9
1
SP SP-1X8
7
OPTIMUM
50
0
72
0
73
2
11
716
21
437
31
0
0
TEXT
100
AcDbEntity
8
NODE_TEXT
100
AcDbText
10
710
20
409
30
0
40
9
1
22U Sub Cabinet
7
OPTIMUM
50
0
72
1
73
2
11
710
21
409
31
0
0
LWPOLYLINE
100
AcDbEntity
8
NODE_TERMINAL
100
AcDbPolyline
90
4
70
1
10
441
20
727
10
559
20
727
10
559
20
803
10
441
20
803
0
LINE
100
AcDbEntity
8
NODE_TERMINAL
100
AcDbLine
10
441
20
777
30
0
11
559
21
777
31
0
0
TEXT
100
AcDbEntity
8
NODE_TEXT
100
AcDbText
10
500
20
794
30
0
40
16
1
TB-1
7
OPTIMUM
50
0
72
1
73
2
11
500
21
794
31
0
0
LINE
100
AcDbEntity
8
NODE_TERMINAL
100
AcDbLine
10
441
20
752
30
0
11
559
21
752
31
0
0
LINE
100
AcDbEntity
8
NODE_TERMINAL
100
AcDbLine
10
500
20
752
30
0
11
500
21
777
31
0
0
LINE
100
AcDbEntity
8
NODE_TERMINAL
100
AcDbLine
10
441
20
727
30
0
11
559
21
727
31
0
0
LINE
100
AcDbEntity
8
NODE_TERMINAL
100
AcDbLine
10
500
20
727
30
0
11
500
21
752
31
0
0
TEXT
100
AcDbEntity
8
NODE_TEXT
100
AcDbText
10
447
20
761
30
0
40
9
1
NO 1
7
OPTIMUM
50
0
72
0
73
2
11
447
21
761
31
0
0
TEXT
100
AcDbEntity
8
NODE_TEXT
100
AcDbText
10
506
20
761
30
0
40
9
1
CORE 96
7
OPTIMUM
50
0
72
0
73
2
11
506
21
761
31
0
0
TEXT
100
AcDbEntity
8
NODE_TEXT
100
AcDbText
10
447
20
736
30
0
40
9
1
PORT 16
7
OPTIMUM
50
0
72
0
73
2
11
447
21
736
31
0
0
TEXT
100
AcDbEntity
8
NODE_TEXT
100
AcDbText
10
506
20
736
30
0
40
9
1
TYPE TB-96C
7
OPTIMUM
50
0
72
0
73
2
11
506
21
736
31
0
0
TEXT
100
AcDbEntity
8
NODE_TEXT
100
AcDbText
10
500
20
713
30
0
40
9
1
96C Termination Box
7
OPTIMUM
50
0
72
1
73
2
11
500
21
713
31
0
0
LWPOLYLINE
100
AcDbEntity
8
NODE_TERMINAL
100
AcDbPolyline
90
4
70
1
10
441
20
227
10
559
20
227
10
559
20
303
10
441
20
303
0
LINE
100
AcDbEntity
8
NODE_TERMINAL
100
AcDbLine
10
441
20
277
30
0
11
559
21
277
31
0
0
TEXT
100
AcDbEntity
8
NODE_TEXT
100
AcDbText
10
500
20
294
30
0
40
16
1
TB-2
7
OPTIMUM
50
0
72
1
73
2
11
500
21
294
31
0
0
LINE
100
AcDbEntity
8
NODE_TERMINAL
100
AcDbLine
10
441
20
252
30
0
11
559
21
252
31
0
0
LINE
100
AcDbEntity
8
NODE_TERMINAL
100
AcDbLine
10
500
20
252
30
0
11
500
21
277
31
0
0
LINE
100
AcDbEntity
8
NODE_TERMINAL
100
AcDbLine
10
441
20
227
30
0
11
559
21
227
31
0
0
LINE
100
AcDbEntity
8
NODE_TERMINAL
100
AcDbLine
10
500
20
227
30
0
11
500
21
252
31
0
0
TEXT
100
AcDbEntity
8
NODE_TEXT
100
AcDbText
10
447
20
261
30
0
40
9
1
NO 2
7
OPTIMUM
50
0
72
0
73
2
11
447
21
261
31
0
0
TEXT
100
AcDbEntity
8
NODE_TEXT
100
AcDbText
10
506
20
261
30
0
40
9
1
CORE 96
7
OPTIMUM
50
0
72
0
73
2
11
506
21
261
31
0
0
TEXT
100
AcDbEntity
8
NODE_TEXT
100
AcDbText
10
447
20
236
30
0
40
9
1
PORT 16
7
OPTIMUM
50
0
72
0
73
2
11
447
21
236
31
0
0
TEXT
100
AcDbEntity
8
NODE_TEXT
100
AcDbText
10
506
20
236
30
0
40
9
1
TYPE TB-96C
7
OPTIMUM
50
0
72
0
73
2
11
506
21
236
31
0
0
TEXT
100
AcDbEntity
8
NODE_TEXT
100
AcDbText
10
500
20
213
30
0
40
9
1
96C Termination Box
7
OPTIMUM
50
0
72
1
73
2
11
500
21
213
31
0
0
LWPOLYLINE
100
AcDbEntity
8
NODE_TERMINAL
100
AcDbPolyline
90
4
70
1
10
1021
20
728
10
1139
20
728
10
1139
20
832
10
1021
20
832
0
LINE
100
AcDbEntity
8
NODE_TERMINAL
100
AcDbLine
10
1021
20
806
30
0
11
1139
21
806
31
0
0
TEXT
100
AcDbEntity
8
NODE_TEXT
100
AcDbText
10
1080
20
823
30
0
40
16
1
TB-3
7
OPTIMUM
50
0
72
1
73
2
11
1080
21
823
31
0
0
LINE
100
AcDbEntity
8
NODE_TERMINAL
100
AcDbLine
10
1021
20
782
30
0
11
1139
21
782
31
0
0
LINE
100
AcDbEntity
8
NODE_TERMINAL
100
AcDbLine
10
1080
20
782
30
0
11
1080
21
806
31
0
0
LINE
100
AcDbEntity
8
NODE_TERMINAL
100
AcDbLine
10
1021
20
758
30
0
11
1139
21
758
31
0
0
LINE
100
AcDbEntity
8
NODE_TERMINAL
100
AcDbLine
10
1080
20
758
30
0
11
1080
21
782
31
0
0
LINE
100
AcDbEntity
8
NODE_TERMINAL
100
AcDbLine
10
1021
20
734
30
0
11
1139
21
734
31
0
0
LINE
100
AcDbEntity
8
NODE_TERMINAL
100
AcDbLine
10
1080
20
734
30
0
11
1080
21
758
31
0
0
TEXT
100
AcDbEntity
8
NODE_TEXT
100
AcDbText
10
1027
20
790
30
0
40
9
1
NO 3
7
OPTIMUM
50
0
72
0
73
2
11
1027
21
790
31
0
0
TEXT
100
AcDbEntity
8
NODE_TEXT
100
AcDbText
10
1086
20
790
30
0
40
9
1
CORE 24
7
OPTIMUM
50
0
72
0
73
2
11
1086
21
790
31
0
0
TEXT
100
AcDbEntity
8
NODE_TEXT
100
AcDbText
10
1027
20
766
30
0
40
9
1
PORT 8
7
OPTIMUM
50
0
72
0
73
2
11
1027
21
766
31
0
0
TEXT
100
AcDbEntity
8
NODE_TEXT
100
AcDbText
10
1086
20
766
30
0
40
9
1
TYPE TB-24C
7
OPTIMUM
50
0
72
0
73
2
11
1086
21
766
31
0
0
TEXT
100
AcDbEntity
8
NODE_TEXT
100
AcDbText
10
1027
20
742
30
0
40
9
1
ODF \U+2014
7
OPTIMUM
50
0
72
0
73
2
11
1027
21
742
31
0
0
TEXT
100
AcDbEntity
8
NODE_TEXT
100
AcDbText
10
1086
20
742
30
0
40
9
1
SP \U+2014
7
OPTIMUM
50
0
72
0
73
2
11
1086
21
742
31
0
0
TEXT
100
AcDbEntity
8
NODE_TEXT
100
AcDbText
10
1080
20
736
30
0
40
9
1
DIST 111.3m
7
OPTIMUM
50
0
72
1
73
2
11
1080
21
736
31
0
0
TEXT
100
AcDbEntity
8
NODE_TEXT
100
AcDbText
10
1080
20
714
30
0
40
9
1
24C Termination Box
7
OPTIMUM
50
0
72
1
73
2
11
1080
21
714
31
0
0
LWPOLYLINE
100
AcDbEntity
8
NODE_TERMINAL
100
AcDbPolyline
90
4
70
1
10
1021
20
458
10
1139
20
458
10
1139
20
562
10
1021
20
562
0
LINE
100
AcDbEntity
8
NODE_TERMINAL
100
AcDbLine
10
1021
20
536
30
0
11
1139
21
536
31
0
0
TEXT
100
AcDbEntity
8
NODE_TEXT
100
AcDbText
10
1080
20
553
30
0
40
16
1
TB-4
7
OPTIMUM
50
0
72
1
73
2
11
1080
21
553
31
0
0
LINE
100
AcDbEntity
8
NODE_TERMINAL
100
AcDbLine
10
1021
20
512
30
0
11
1139
21
512
31
0
0
LINE
100
AcDbEntity
8
NODE_TERMINAL
100
AcDbLine
10
1080
20
512
30
0
11
1080
21
536
31
0
0
LINE
100
AcDbEntity
8
NODE_TERMINAL
100
AcDbLine
10
1021
20
488
30
0
11
1139
21
488
31
0
0
LINE
100
AcDbEntity
8
NODE_TERMINAL
100
AcDbLine
10
1080
20
488
30
0
11
1080
21
512
31
0
0
LINE
100
AcDbEntity
8
NODE_TERMINAL
100
AcDbLine
10
1021
20
464
30
0
11
1139
21
464
31
0
0
LINE
100
AcDbEntity
8
NODE_TERMINAL
100
AcDbLine
10
1080
20
464
30
0
11
1080
21
488
31
0
0
TEXT
100
AcDbEntity
8
NODE_TEXT
100
AcDbText
10
1027
20
520
30
0
40
9
1
NO 4
7
OPTIMUM
50
0
72
0
73
2
11
1027
21
520
31
0
0
TEXT
100
AcDbEntity
8
NODE_TEXT
100
AcDbText
10
1086
20
520
30
0
40
9
1
CORE 24
7
OPTIMUM
50
0
72
0
73
2
11
1086
21
520
31
0
0
TEXT
100
AcDbEntity
8
NODE_TEXT
100
AcDbText
10
1027
20
496
30
0
40
9
1
PORT 8
7
OPTIMUM
50
0
72
0
73
2
11
1027
21
496
31
0
0
TEXT
100
AcDbEntity
8
NODE_TEXT
100
AcDbText
10
1086
20
496
30
0
40
9
1
TYPE TB-24C
7
OPTIMUM
50
0
72
0
73
2
11
1086
21
496
31
0
0
TEXT
100
AcDbEntity
8
NODE_TEXT
100
AcDbText
10
1027
20
472
30
0
40
9
1
ODF \U+2014
7
OPTIMUM
50
0
72
0
73
2
11
1027
21
472
31
0
0
TEXT
100
AcDbEntity
8
NODE_TEXT
100
AcDbText
10
1086
20
472
30
0
40
9
1
SP \U+2014
7
OPTIMUM
50
0
72
0
73
2
11
1086
21
472
31
0
0
TEXT
100
AcDbEntity
8
NODE_TEXT
100
AcDbText
10
1080
20
466
30
0
40
9
1
DIST 27.24m
7
OPTIMUM
50
0
72
1
73
2
11
1080
21
466
31
0
0
TEXT
100
AcDbEntity
8
NODE_TEXT
100
AcDbText
10
1080
20
444
30
0
40
9
1
24C Termination Box
7
OPTIMUM
50
0
72
1
73
2
11
1080
21
444
31
0
0
LWPOLYLINE
100
AcDbEntity
8
NODE_JOINT
100
AcDbPolyline
90
4
70
1
10
500
20
582
10
532
20
550
10
500
20
518
10
468
20
550
0
TEXT
100
AcDbEntity
8
NODE_TEXT
100
AcDbText
10
500
20
555
30
0
40
15
1
J-1
7
OPTIMUM
50
0
72
1
73
2
11
500
21
555
31
0
0
TEXT
100
AcDbEntity
8
NODE_TEXT
100
AcDbText
10
500
20
502
30
0
40
9
1
96C Fiber Joint
7
OPTIMUM
50
0
72
1
73
2
11
500
21
502
31
0
0
CIRCLE
100
AcDbEntity
8
NODE_CIVIL
100
AcDbCircle
10
710
20
280
30
0
40
38
0
CIRCLE
100
AcDbEntity
8
NODE_CIVIL
100
AcDbCircle
10
710
20
280
30
0
40
27
0
TEXT
100
AcDbEntity
8
NODE_TEXT
100
AcDbText
10
710
20
285
30
0
40
14
1
MH-1
7
OPTIMUM
50
0
72
1
73
2
11
710
21
285
31
0
0
TEXT
100
AcDbEntity
8
NODE_TEXT
100
AcDbText
10
710
20
228
30
0
40
9
1
TDM Manhole
7
OPTIMUM
50
0
72
1
73
2
11
710
21
228
31
0
0
LWPOLYLINE
100
AcDbEntity
8
FRAME
100
AcDbPolyline
90
4
70
1
10
1610
20
10
10
1910
20
10
10
1910
20
990
10
1610
20
990
0
TEXT
100
AcDbEntity
8
TITLE_TEXT
100
AcDbText
10
1634
20
978
30
0
40
26
1
N
7
OPTIMUM
50
0
72
1
73
2
11
1634
21
978
31
0
0
LINE
100
AcDbEntity
8
TITLE_TEXT
100
AcDbLine
10
1634
20
967
30
0
11
1634
21
930
31
0
0
LINE
100
AcDbEntity
8
TITLE_TEXT
100
AcDbLine
10
1617
20
948
30
0
11
1651
21
948
31
0
0
TEXT
100
AcDbEntity
8
TITLE_TEXT
100
AcDbText
10
1765
20
974
30
0
40
19
1
LEGEND / \U+0627\U+0644\U+0631\U+0645\U+0648\U+0632
7
OPTIMUM
50
0
72
1
73
2
11
1765
21
974
31
0
0
LINE
100
AcDbEntity
8
DUCT_4W_7_3_5
100
AcDbLine
10
1622
20
910
30
0
11
1684
21
910
31
0
0
TEXT
100
AcDbEntity
8
TITLE_TEXT
100
AcDbText
10
1694
20
914
30
0
40
10
1
4W 7/3.5 Microduct
7
OPTIMUM
50
0
72
0
73
2
11
1694
21
914
31
0
0
LINE
100
AcDbEntity
8
DUCT_1W_7_3_5
100
AcDbLine
10
1622
20
884
30
0
11
1684
21
884
31
0
0
TEXT
100
AcDbEntity
8
TITLE_TEXT
100
AcDbText
10
1694
20
888
30
0
40
10
1
1W 7/3.5 Microduct
7
OPTIMUM
50
0
72
0
73
2
11
1694
21
888
31
0
0
LINE
100
AcDbEntity
8
FIBER_24C
100
AcDbLine
10
1622
20
858
30
0
11
1684
21
858
31
0
0
TEXT
100
AcDbEntity
8
TITLE_TEXT
100
AcDbText
10
1694
20
862
30
0
40
10
1
24C Fiber Cable
7
OPTIMUM
50
0
72
0
73
2
11
1694
21
862
31
0
0
LINE
100
AcDbEntity
8
TITLE_GRID
100
AcDbLine
10
1610
20
670
30
0
11
1910
21
670
31
0
0
TEXT
100
AcDbEntity
8
TITLE_TEXT
100
AcDbText
10
1622
20
661
30
0
40
8
1
PROJECT
7
OPTIMUM
50
0
72
0
73
2
11
1622
21
661
31
0
0
TEXT
100
AcDbEntity
8
TITLE_TEXT
100
AcDbText
10
1622
20
643
30
0
40
12
1
Shatanof Fiber Project
7
OPTIMUM
50
0
72
0
73
2
11
1622
21
643
31
0
0
LINE
100
AcDbEntity
8
TITLE_GRID
100
AcDbLine
10
1610
20
622
30
0
11
1910
21
622
31
0
0
TEXT
100
AcDbEntity
8
TITLE_TEXT
100
AcDbText
10
1622
20
613
30
0
40
8
1
SITE
7
OPTIMUM
50
0
72
0
73
2
11
1622
21
613
31
0
0
TEXT
100
AcDbEntity
8
TITLE_TEXT
100
AcDbText
10
1622
20
595
30
0
40
12
1
Zone 01
7
OPTIMUM
50
0
72
0
73
2
11
1622
21
595
31
0
0
LINE
100
AcDbEntity
8
TITLE_GRID
100
AcDbLine
10
1610
20
574
30
0
11
1910
21
574
31
0
0
TEXT
100
AcDbEntity
8
TITLE_TEXT
100
AcDbText
10
1622
20
565
30
0
40
8
1
DRAWING NO
7
OPTIMUM
50
0
72
0
73
2
11
1622
21
565
31
0
0
TEXT
100
AcDbEntity
8
TITLE_TEXT
100
AcDbText
10
1622
20
547
30
0
40
12
1
P001-FIBER-001
7
OPTIMUM
50
0
72
0
73
2
11
1622
21
547
31
0
0
LINE
100
AcDbEntity
8
TITLE_GRID
100
AcDbLine
10
1610
20
526
30
0
11
1910
21
526
31
0
0
TEXT
100
AcDbEntity
8
TITLE_TEXT
100
AcDbText
10
1622
20
517
30
0
40
8
1
TITLE
7
OPTIMUM
50
0
72
0
73
2
11
1622
21
517
31
0
0
TEXT
100
AcDbEntity
8
TITLE_TEXT
100
AcDbText
10
1622
20
499
30
0
40
12
1
Secondary Fiber Network
7
OPTIMUM
50
0
72
0
73
2
11
1622
21
499
31
0
0
LINE
100
AcDbEntity
8
TITLE_GRID
100
AcDbLine
10
1610
20
478
30
0
11
1910
21
478
31
0
0
TEXT
100
AcDbEntity
8
TITLE_TEXT
100
AcDbText
10
1622
20
469
30
0
40
8
1
CLIENT
7
OPTIMUM
50
0
72
0
73
2
11
1622
21
469
31
0
0
TEXT
100
AcDbEntity
8
TITLE_TEXT
100
AcDbText
10
1622
20
451
30
0
40
12
1
Optimum Client
7
OPTIMUM
50
0
72
0
73
2
11
1622
21
451
31
0
0
LINE
100
AcDbEntity
8
TITLE_GRID
100
AcDbLine
10
1610
20
430
30
0
11
1910
21
430
31
0
0
TEXT
100
AcDbEntity
8
TITLE_TEXT
100
AcDbText
10
1622
20
421
30
0
40
8
1
CONSULTANT
7
OPTIMUM
50
0
72
0
73
2
11
1622
21
421
31
0
0
TEXT
100
AcDbEntity
8
TITLE_TEXT
100
AcDbText
10
1622
20
403
30
0
40
12
1
Engineering Consultant
7
OPTIMUM
50
0
72
0
73
2
11
1622
21
403
31
0
0
LINE
100
AcDbEntity
8
TITLE_GRID
100
AcDbLine
10
1610
20
382
30
0
11
1910
21
382
31
0
0
TEXT
100
AcDbEntity
8
TITLE_TEXT
100
AcDbText
10
1622
20
373
30
0
40
8
1
MAIN CONTRACTOR
7
OPTIMUM
50
0
72
0
73
2
11
1622
21
373
31
0
0
TEXT
100
AcDbEntity
8
TITLE_TEXT
100
AcDbText
10
1622
20
355
30
0
40
12
1
\U+2014
7
OPTIMUM
50
0
72
0
73
2
11
1622
21
355
31
0
0
LINE
100
AcDbEntity
8
TITLE_GRID
100
AcDbLine
10
1610
20
334
30
0
11
1910
21
334
31
0
0
TEXT
100
AcDbEntity
8
TITLE_TEXT
100
AcDbText
10
1622
20
325
30
0
40
8
1
SUB CONTRACTOR
7
OPTIMUM
50
0
72
0
73
2
11
1622
21
325
31
0
0
TEXT
100
AcDbEntity
8
TITLE_TEXT
100
AcDbText
10
1622
20
307
30
0
40
12
1
Optimum Engineering
7
OPTIMUM
50
0
72
0
73
2
11
1622
21
307
31
0
0
LINE
100
AcDbEntity
8
TITLE_GRID
100
AcDbLine
10
1610
20
286
30
0
11
1910
21
286
31
0
0
TEXT
100
AcDbEntity
8
TITLE_TEXT
100
AcDbText
10
1622
20
277
30
0
40
8
1
REV
7
OPTIMUM
50
0
72
0
73
2
11
1622
21
277
31
0
0
TEXT
100
AcDbEntity
8
TITLE_TEXT
100
AcDbText
10
1622
20
259
30
0
40
12
1
R1
7
OPTIMUM
50
0
72
0
73
2
11
1622
21
259
31
0
0
LINE
100
AcDbEntity
8
TITLE_GRID
100
AcDbLine
10
1610
20
238
30
0
11
1910
21
238
31
0
0
TEXT
100
AcDbEntity
8
TITLE_TEXT
100
AcDbText
10
1622
20
229
30
0
40
8
1
STATUS
7
OPTIMUM
50
0
72
0
73
2
11
1622
21
229
31
0
0
TEXT
100
AcDbEntity
8
TITLE_TEXT
100
AcDbText
10
1622
20
211
30
0
40
12
1
FOR REVIEW
7
OPTIMUM
50
0
72
0
73
2
11
1622
21
211
31
0
0
LINE
100
AcDbEntity
8
TITLE_GRID
100
AcDbLine
10
1610
20
190
30
0
11
1910
21
190
31
0
0
TEXT
100
AcDbEntity
8
TITLE_TEXT
100
AcDbText
10
1622
20
181
30
0
40
8
1
SCALE
7
OPTIMUM
50
0
72
0
73
2
11
1622
21
181
31
0
0
TEXT
100
AcDbEntity
8
TITLE_TEXT
100
AcDbText
10
1622
20
163
30
0
40
12
1
NTS
7
OPTIMUM
50
0
72
0
73
2
11
1622
21
163
31
0
0
LINE
100
AcDbEntity
8
TITLE_GRID
100
AcDbLine
10
1610
20
142
30
0
11
1910
21
142
31
0
0
TEXT
100
AcDbEntity
8
TITLE_TEXT
100
AcDbText
10
1622
20
133
30
0
40
8
1
DATE
7
OPTIMUM
50
0
72
0
73
2
11
1622
21
133
31
0
0
TEXT
100
AcDbEntity
8
TITLE_TEXT
100
AcDbText
10
1622
20
115
30
0
40
12
1
2026-08-05
7
OPTIMUM
50
0
72
0
73
2
11
1622
21
115
31
0
0
LINE
100
AcDbEntity
8
TITLE_GRID
100
AcDbLine
10
1610
20
94
30
0
11
1910
21
94
31
0
0
TEXT
100
AcDbEntity
8
TITLE_TEXT
100
AcDbText
10
1765
20
76
30
0
40
9
1
DRAWN / CHECKED / APPROVED
7
OPTIMUM
50
0
72
1
73
2
11
1765
21
76
31
0
0
TEXT
100
AcDbEntity
8
TITLE_TEXT
100
AcDbText
10
1765
20
55
30
0
40
10
1
\U+2014  /  \U+2014  /  \U+2014
7
OPTIMUM
50
0
72
1
73
2
11
1765
21
55
31
0
0
ENDSEC
0
EOF
