0
SECTION
2
HEADER
9
$ACADVER
1
AC1009
0
ENDSEC
0
SECTION
2
TABLES
0
ENDSEC
0
SECTION
2
ENTITIES
0
LINE
8
MICRODUCT
10
280
20
610
30
0
11
607
21
610
31
0
0
TEXT
8
LABELS
10
443.5
20
610
30
0
40
2.5
1
MAIN DUCT
0
TEXT
8
LABELS
10
443.5
20
606
30
0
40
2.5
1
Main / Underground
0
TEXT
8
LABELS
10
443.5
20
602
30
0
40
2.5
1
FO-24C | 46 m | CAB-M01 -> MH-01
0
LINE
8
MICRODUCT
10
693
20
650.471
30
0
11
820
21
770
31
0
0
LINE
8
MICRODUCT
10
820
20
770
30
0
11
1029
21
770
31
0
0
TEXT
8
LABELS
10
837.299
20
770
30
0
40
2.5
1
SECONDARY-01
0
TEXT
8
LABELS
10
837.299
20
766
30
0
40
2.5
1
Secondary / Underground
0
TEXT
8
LABELS
10
837.299
20
762
30
0
40
2.5
1
FO-24C | 58 m | MH-01 -> TB-01
0
LINE
8
MICRODUCT
10
693
20
570.794
30
0
11
820
21
455
31
0
0
LINE
8
MICRODUCT
10
820
20
455
30
0
11
1029
21
455
31
0
0
TEXT
8
LABELS
10
838.568
20
455
30
0
40
2.5
1
SECONDARY-02
0
TEXT
8
LABELS
10
838.568
20
451
30
0
40
2.5
1
Secondary / Underground
0
TEXT
8
LABELS
10
838.568
20
447
30
0
40
2.5
1
FO-24C | 64 m | MH-01 -> TB-02
0
LINE
8
NODES
10
160
20
569
30
0
11
280
21
569
31
0
0
LINE
8
NODES
10
280
20
569
30
0
11
280
21
651
31
0
0
LINE
8
NODES
10
280
20
651
30
0
11
160
21
651
31
0
0
LINE
8
NODES
10
160
20
651
30
0
11
160
21
569
31
0
0
TEXT
8
LABELS
10
220
20
610
30
0
40
2.6
1
CAB-M01
0
TEXT
8
LABELS
10
220
20
606
30
0
40
2.6
1
Main | Box M01 | 144C
0
LINE
8
NODES
10
607
20
567
30
0
11
693
21
567
31
0
0
LINE
8
NODES
10
693
20
567
30
0
11
693
21
653
31
0
0
LINE
8
NODES
10
693
20
653
30
0
11
607
21
653
31
0
0
LINE
8
NODES
10
607
20
653
30
0
11
607
21
567
31
0
0
TEXT
8
LABELS
10
650
20
610
30
0
40
2.6
1
MH-01
0
TEXT
8
LABELS
10
650
20
606
30
0
40
2.6
1
Distribution | Box MH-01 | 96C
0
LINE
8
NODES
10
1029
20
740
30
0
11
1111
21
740
31
0
0
LINE
8
NODES
10
1111
20
740
30
0
11
1111
21
800
31
0
0
LINE
8
NODES
10
1111
20
800
30
0
11
1029
21
800
31
0
0
LINE
8
NODES
10
1029
20
800
30
0
11
1029
21
740
31
0
0
TEXT
8
LABELS
10
1070
20
770
30
0
40
2.6
1
TB-01
0
TEXT
8
LABELS
10
1070
20
766
30
0
40
2.6
1
Terminal | Box 01 | 24C
0
LINE
8
NODES
10
1029
20
425
30
0
11
1111
21
425
31
0
0
LINE
8
NODES
10
1111
20
425
30
0
11
1111
21
485
31
0
0
LINE
8
NODES
10
1111
20
485
30
0
11
1029
21
485
31
0
0
LINE
8
NODES
10
1029
20
485
30
0
11
1029
21
425
31
0
0
TEXT
8
LABELS
10
1070
20
455
30
0
40
2.6
1
TB-02
0
TEXT
8
LABELS
10
1070
20
451
30
0
40
2.6
1
Terminal | Box 02 | 24C
0
TEXT
8
TITLE
10
20
20
20
30
0
40
4
1
P001-FIBER-SLD-001
0
TEXT
8
TITLE
10
20
20
12
30
0
40
3
1
Secondary Fiber Network
0
ENDSEC
0
EOF
