0
SECTION
2
HEADER
9
$ACADVER
1
AC1015
9
$INSUNITS
70
4
9
$EXTMIN
10
0
20
0
30
0
9
$EXTMAX
10
1920
20
1000
30
0
0
ENDSEC
0
SECTION
2
TABLES
0
TABLE
2
LTYPE
100
AcDbSymbolTable
70
2
0
LTYPE
100
AcDbSymbolTableRecord
100
AcDbLinetypeTableRecord
2
CONTINUOUS
70
0
3
Solid line
72
65
73
0
40
0
0
LTYPE
100
AcDbSymbolTableRecord
100
AcDbLinetypeTableRecord
2
DASHED
70
0
3
Dashed __ __
72
65
73
2
40
0.75
49
0.5
74
0
49
-0.25
74
0
0
ENDTAB
0
TABLE
2
LAYER
100
AcDbSymbolTable
70
16
0
LAYER
100
AcDbSymbolTableRecord
100
AcDbLayerTableRecord
2
0
70
0
62
7
6
CONTINUOUS
370
25
0
LAYER
100
AcDbSymbolTableRecord
100
AcDbLayerTableRecord
2
FRAME
70
0
62
3
6
CONTINUOUS
370
30
0
LAYER
100
AcDbSymbolTableRecord
100
AcDbLayerTableRecord
2
TITLE_GRID
70
0
62
5
6
CONTINUOUS
370
20
0
LAYER
100
AcDbSymbolTableRecord
100
AcDbLayerTableRecord
2
TITLE_TEXT
70
0
62
7
6
CONTINUOUS
370
18
0
LAYER
100
AcDbSymbolTableRecord
100
AcDbLayerTableRecord
2
NODE_CABINET
70
0
62
5
6
CONTINUOUS
370
35
0
LAYER
100
AcDbSymbolTableRecord
100
AcDbLayerTableRecord
2
NODE_TERMINAL
70
0
62
1
6
CONTINUOUS
370
30
0
LAYER
100
AcDbSymbolTableRecord
100
AcDbLayerTableRecord
2
NODE_OPTICAL
70
0
62
1
6
CONTINUOUS
370
25
0
LAYER
100
AcDbSymbolTableRecord
100
AcDbLayerTableRecord
2
NODE_CIVIL
70
0
62
8
6
CONTINUOUS
370
30
0
LAYER
100
AcDbSymbolTableRecord
100
AcDbLayerTableRecord
2
NODE_JOINT
70
0
62
6
6
CONTINUOUS
370
30
0
LAYER
100
AcDbSymbolTableRecord
100
AcDbLayerTableRecord
2
NODE_TEXT
70
0
62
7
6
CONTINUOUS
370
18
0
LAYER
100
AcDbSymbolTableRecord
100
AcDbLayerTableRecord
2
ROUTE_TEXT
70
0
62
7
6
CONTINUOUS
370
18
0
LAYER
100
AcDbSymbolTableRecord
100
AcDbLayerTableRecord
2
NOTES
70
0
62
7
6
CONTINUOUS
370
18
0
LAYER
100
AcDbSymbolTableRecord
100
AcDbLayerTableRecord
2
REVIEW
70
0
62
1
6
CONTINUOUS
370
25
0
LAYER
100
AcDbSymbolTableRecord
100
AcDbLayerTableRecord
2
DUCT_4W_7_3_5
70
0
62
3
6
CONTINUOUS
370
35
0
LAYER
100
AcDbSymbolTableRecord
100
AcDbLayerTableRecord
2
DUCT_1W_7_3_5
70
0
62
1
6
CONTINUOUS
370
35
0
LAYER
100
AcDbSymbolTableRecord
100
AcDbLayerTableRecord
2
FIBER_24C
70
0
62
4
6
CONTINUOUS
370
35
0
ENDTAB
0
TABLE
2
STYLE
100
AcDbSymbolTable
70
1
0
STYLE
100
AcDbSymbolTableRecord
100
AcDbTextStyleTableRecord
2
OPTIMUM
70
0
40
0
41
1
50
0
71
0
42
12
3
Arial.ttf
4

0
ENDTAB
0
ENDSEC
0
SECTION
2
BLOCKS
0
BLOCK
100
AcDbEntity
8
0
100
AcDbBlockBegin
2
*Model_Space
70
0
10
0
20
0
30
0
3
*Model_Space
1

0
ENDBLK
100
AcDbEntity
8
0
100
AcDbBlockEnd
0
BLOCK
100
AcDbEntity
8
0
100
AcDbBlockBegin
2
*Paper_Space
70
0
10
0
20
0
30
0
3
*Paper_Space
1

0
ENDBLK
100
AcDbEntity
8
0
100
AcDbBlockEnd
0
ENDSEC
0
SECTION
2
ENTITIES
0
LWPOLYLINE
100
AcDbEntity
8
FRAME
100
AcDbPolyline
90
4
70
1
10
10
20
10
10
1590
20
10
10
1590
20
990
10
10
20
990
0
LWPOLYLINE
100
AcDbEntity
8
FRAME
100
AcDbPolyline
90
4
70
1
10
16
20
16
10
1584
20
16
10
1584
20
984
10
16
20
984
0
LWPOLYLINE
100
AcDbEntity
8
DUCT_4W_7_3_5
100
AcDbPolyline
90
4
70
0
10
259
20
490
10
350
20
490
10
350
20
765
10
427
20
765
0
TEXT
100
AcDbEntity
8
ROUTE_TEXT
100
AcDbText
10
298
20
666.625
30
0
40
15
1
MAIN FEEDER
7
OPTIMUM
50
8
71
0
72
2
73
2
11
298
21
666.625
31
0
0
TEXT
100
AcDbEntity
8
ROUTE_TEXT
100
AcDbText
10
298
20
646.375
30
0
40
15
1
LEVEL 02
7
OPTIMUM
50
8
71
0
72
2
73
2
11
298
21
646.375
31
0
0
LWPOLYLINE
100
AcDbEntity
8
DUCT_4W_7_3_5
100
AcDbPolyline
90
4
70
0
10
259
20
490
10
350
20
490
10
350
20
265
10
427
20
265
0
TEXT
100
AcDbEntity
8
ROUTE_TEXT
100
AcDbText
10
392
20
439.925
30
0
40
11
1
DISTRIBUTION BRANCH 01
7
OPTIMUM
50
0
71
0
72
1
73
2
11
392
21
439.925
31
0
0
TEXT
100
AcDbEntity
8
ROUTE_TEXT
100
AcDbText
10
392
20
425.075
30
0
40
11
1
CAB-1 > TB-2  \U+00B7  4W  \U+00B7  7/3.5  \U+00B7  FO-24C  \U+00B7  24C  \U+00B7  19.65 m
7
OPTIMUM
50
0
71
0
72
1
73
2
11
392
21
425.075
31
0
0
LWPOLYLINE
100
AcDbEntity
8
DUCT_1W_7_3_5
100
AcDbPolyline
90
3
70
0
10
500
20
703
10
500
20
703
10
500
20
580
0
TEXT
100
AcDbEntity
8
ROUTE_TEXT
100
AcDbText
10
448
20
708.925
30
0
40
11
1
JOINT LINK
7
OPTIMUM
50
0
71
0
72
1
73
2
11
448
21
708.925
31
0
0
TEXT
100
AcDbEntity
8
ROUTE_TEXT
100
AcDbText
10
448
20
694.075
30
0
40
11
1
TB-1 > J-1  \U+00B7  1W  \U+00B7  7/3.5  \U+00B7  FO-24C  \U+00B7  24C  \U+00B7  6.15 m
7
OPTIMUM
50
0
71
0
72
1
73
2
11
448
21
694.075
31
0
0
LWPOLYLINE
100
AcDbEntity
8
DUCT_4W_7_3_5
100
AcDbPolyline
90
4
70
0
10
532
20
550
10
610
20
550
10
610
20
475
10
621
20
475
0
TEXT
100
AcDbEntity
8
ROUTE_TEXT
100
AcDbText
10
652
20
625.425
30
0
40
11
1
SECONDARY ROUTE
7
OPTIMUM
50
0
71
0
72
1
73
2
11
652
21
625.425
31
0
0
TEXT
100
AcDbEntity
8
ROUTE_TEXT
100
AcDbText
10
652
20
610.575
30
0
40
11
1
J-1 > CAB-2  \U+00B7  4W  \U+00B7  7/3.5  \U+00B7  FO-24C  \U+00B7  24C  \U+00B7  8.2 m
7
OPTIMUM
50
0
71
0
72
1
73
2
11
652
21
610.575
31
0
0
LWPOLYLINE
100
AcDbEntity
8
DUCT_4W_7_3_5
100
AcDbPolyline
90
4
70
0
10
799
20
475
10
860
20
475
10
860
20
780
10
1007
20
780
0
TEXT
100
AcDbEntity
8
ROUTE_TEXT
100
AcDbText
10
780
20
761.925
30
0
40
11
1
TB-3 BRANCH
7
OPTIMUM
50
0
71
0
72
1
73
2
11
780
21
761.925
31
0
0
TEXT
100
AcDbEntity
8
ROUTE_TEXT
100
AcDbText
10
780
20
747.075
30
0
40
11
1
CAB-2 > TB-3  \U+00B7  4W  \U+00B7  7/3.5  \U+00B7  FO-24C  \U+00B7  24C  \U+00B7  25.65 m
7
OPTIMUM
50
0
71
0
72
1
73
2
11
780
21
747.075
31
0
0
LWPOLYLINE
100
AcDbEntity
8
DUCT_1W_7_3_5
100
AcDbPolyline
90
4
70
0
10
799
20
475
10
900
20
475
10
900
20
510
10
1007
20
510
0
TEXT
100
AcDbEntity
8
ROUTE_TEXT
100
AcDbText
10
942
20
598.925
30
0
40
11
1
TB-4 BRANCH
7
OPTIMUM
50
0
71
0
72
1
73
2
11
942
21
598.925
31
0
0
TEXT
100
AcDbEntity
8
ROUTE_TEXT
100
AcDbText
10
942
20
584.075
30
0
40
11
1
CAB-2 > TB-4  \U+00B7  1W  \U+00B7  7/3.5  \U+00B7  FO-24C  \U+00B7  24C  \U+00B7  12.15 m
7
OPTIMUM
50
0
71
0
72
1
73
2
11
942
21
584.075
31
0
0
LWPOLYLINE
100
AcDbEntity
8
FIBER_24C
100
AcDbPolyline
90
3
70
0
10
573
20
270.2143
10
672
20
270.2143
10
672
20
277.2857
0
TEXT
100
AcDbEntity
8
ROUTE_TEXT
100
AcDbText
10
466.0357
20
385.6393
30
0
40
11
1
FEEDER CABLE
7
OPTIMUM
50
0
71
0
72
1
73
2
11
466.0357
21
385.6393
31
0
0
TEXT
100
AcDbEntity
8
ROUTE_TEXT
100
AcDbText
10
466.0357
20
370.7893
30
0
40
11
1
TB-2 > MH-1  \U+00B7  FO-24C  \U+00B7  24C  \U+00B7  5.3 m
7
OPTIMUM
50
0
71
0
72
1
73
2
11
466.0357
21
370.7893
31
0
0
LWPOLYLINE
100
AcDbEntity
8
NODE_CABINET
100
AcDbPolyline
90
4
70
1
10
81
20
418
10
259
20
418
10
259
20
562
10
81
20
562
0
LINE
100
AcDbEntity
8
NODE_CABINET
100
AcDbLine
10
81
20
536
30
0
11
259
21
536
31
0
0
TEXT
100
AcDbEntity
8
NODE_TEXT
100
AcDbText
10
170
20
553
30
0
40
14
1
CAB-1
7
OPTIMUM
50
0
71
0
72
1
73
2
11
170
21
553
31
0
0
LINE
100
AcDbEntity
8
NODE_CABINET
100
AcDbLine
10
81
20
511
30
0
11
259
21
511
31
0
0
LINE
100
AcDbEntity
8
NODE_CABINET
100
AcDbLine
10
170
20
511
30
0
11
170
21
536
31
0
0
LINE
100
AcDbEntity
8
NODE_CABINET
100
AcDbLine
10
81
20
486
30
0
11
259
21
486
31
0
0
LINE
100
AcDbEntity
8
NODE_CABINET
100
AcDbLine
10
170
20
486
30
0
11
170
21
511
31
0
0
TEXT
100
AcDbEntity
8
NODE_TEXT
100
AcDbText
10
88
20
519
30
0
40
8.5
1
NO 01
7
OPTIMUM
50
0
71
0
72
0
73
2
11
88
21
519
31
0
0
TEXT
100
AcDbEntity
8
NODE_TEXT
100
AcDbText
10
177
20
519
30
0
40
8.5
1
CORE 288
7
OPTIMUM
50
0
71
0
72
0
73
2
11
177
21
519
31
0
0
TEXT
100
AcDbEntity
8
NODE_TEXT
100
AcDbText
10
88
20
494
30
0
40
8.5
1
ORT 144
7
OPTIMUM
50
0
71
0
72
0
73
2
11
88
21
494
31
0
0
TEXT
100
AcDbEntity
8
NODE_TEXT
100
AcDbText
10
177
20
499.695
30
0
40
8.5
1
TY
7
OPTIMUM
50
0
71
0
72
0
73
2
11
177
21
499.695
31
0
0
TEXT
100
AcDbEntity
8
NODE_TEXT
100
AcDbText
10
177
20
488.305
30
0
40
8.5
1
E MAIN-CAB-42U
7
OPTIMUM
50
0
71
0
72
0
73
2
11
177
21
488.305
31
0
0
TEXT
100
AcDbEntity
8
NODE_TEXT
100
AcDbText
10
90
20
474
30
0
40
7.5
1
ODF ODF-144
7
OPTIMUM
50
0
71
0
72
0
73
2
11
90
21
474
31
0
0
TEXT
100
AcDbEntity
8
NODE_TEXT
100
AcDbText
10
90
20
472.05
30
0
40
7.5
1
S
7
OPTIMUM
50
0
71
0
72
0
73
2
11
90
21
472.05
31
0
0
TEXT
100
AcDbEntity
8
NODE_TEXT
100
AcDbText
10
90
20
462
30
0
40
7.5
1
S
7
OPTIMUM
50
0
71
0
72
0
73
2
11
90
21
462
31
0
0
TEXT
100
AcDbEntity
8
NODE_TEXT
100
AcDbText
10
90
20
451.95
30
0
40
7.5
1
-1X16
7
OPTIMUM
50
0
71
0
72
0
73
2
11
90
21
451.95
31
0
0
TEXT
100
AcDbEntity
8
NODE_TEXT
100
AcDbText
10
90
20
450
30
0
40
7.5
1
MAIN CABINET 01
7
OPTIMUM
50
0
71
0
72
0
73
2
11
90
21
450
31
0
0
TEXT
100
AcDbEntity
8
NODE_TEXT
100
AcDbText
10
90
20
443.025
30
0
40
7.5
1
ODF 144 \U+00B7
7
OPTIMUM
50
0
71
0
72
0
73
2
11
90
21
443.025
31
0
0
TEXT
100
AcDbEntity
8
NODE_TEXT
100
AcDbText
10
90
20
432.975
30
0
40
7.5
1
ORT 01
7
OPTIMUM
50
0
71
0
72
0
73
2
11
90
21
432.975
31
0
0
TEXT
100
AcDbEntity
8
NODE_TEXT
100
AcDbText
10
170
20
404
30
0
40
8
1
42U Main Cabinet
7
OPTIMUM
50
0
71
0
72
1
73
2
11
170
21
404
31
0
0
LWPOLYLINE
100
AcDbEntity
8
NODE_CABINET
100
AcDbPolyline
90
4
70
1
10
621
20
403
10
799
20
403
10
799
20
547
10
621
20
547
0
LINE
100
AcDbEntity
8
NODE_CABINET
100
AcDbLine
10
621
20
521
30
0
11
799
21
521
31
0
0
TEXT
100
AcDbEntity
8
NODE_TEXT
100
AcDbText
10
710
20
538
30
0
40
14
1
CAB-2
7
OPTIMUM
50
0
71
0
72
1
73
2
11
710
21
538
31
0
0
LINE
100
AcDbEntity
8
NODE_CABINET
100
AcDbLine
10
621
20
496
30
0
11
799
21
496
31
0
0
LINE
100
AcDbEntity
8
NODE_CABINET
100
AcDbLine
10
710
20
496
30
0
11
710
21
521
31
0
0
LINE
100
AcDbEntity
8
NODE_CABINET
100
AcDbLine
10
621
20
471
30
0
11
799
21
471
31
0
0
LINE
100
AcDbEntity
8
NODE_CABINET
100
AcDbLine
10
710
20
471
30
0
11
710
21
496
31
0
0
TEXT
100
AcDbEntity
8
NODE_TEXT
100
AcDbText
10
628
20
504
30
0
40
8.5
1
NO 02
7
OPTIMUM
50
0
71
0
72
0
73
2
11
628
21
504
31
0
0
TEXT
100
AcDbEntity
8
NODE_TEXT
100
AcDbText
10
717
20
504
30
0
40
8.5
1
CORE 144
7
OPTIMUM
50
0
71
0
72
0
73
2
11
717
21
504
31
0
0
TEXT
100
AcDbEntity
8
NODE_TEXT
100
AcDbText
10
628
20
479
30
0
40
8.5
1
ORT 72
7
OPTIMUM
50
0
71
0
72
0
73
2
11
628
21
479
31
0
0
TEXT
100
AcDbEntity
8
NODE_TEXT
100
AcDbText
10
717
20
484.695
30
0
40
8.5
1
TY
7
OPTIMUM
50
0
71
0
72
0
73
2
11
717
21
484.695
31
0
0
TEXT
100
AcDbEntity
8
NODE_TEXT
100
AcDbText
10
717
20
473.305
30
0
40
8.5
1
E SUBCAB-22U
7
OPTIMUM
50
0
71
0
72
0
73
2
11
717
21
473.305
31
0
0
TEXT
100
AcDbEntity
8
NODE_TEXT
100
AcDbText
10
630
20
459
30
0
40
7.5
1
ODF ODF-72
7
OPTIMUM
50
0
71
0
72
0
73
2
11
630
21
459
31
0
0
TEXT
100
AcDbEntity
8
NODE_TEXT
100
AcDbText
10
630
20
457.05
30
0
40
7.5
1
S
7
OPTIMUM
50
0
71
0
72
0
73
2
11
630
21
457.05
31
0
0
TEXT
100
AcDbEntity
8
NODE_TEXT
100
AcDbText
10
630
20
447
30
0
40
7.5
1
S
7
OPTIMUM
50
0
71
0
72
0
73
2
11
630
21
447
31
0
0
TEXT
100
AcDbEntity
8
NODE_TEXT
100
AcDbText
10
630
20
436.95
30
0
40
7.5
1
-1X8
7
OPTIMUM
50
0
71
0
72
0
73
2
11
630
21
436.95
31
0
0
TEXT
100
AcDbEntity
8
NODE_TEXT
100
AcDbText
10
630
20
435
30
0
40
7.5
1
\U+0628\U+064A\U+0627\U+0646\U+0627\U+062A \U+0643\U+0627\U+0628\U+064A\U+0646\U+0629 \U+0641\U+0631\U+0639\U+064A\U+0629 \U+0642\U+0627\U+0628\U+0644\U+0629 \U+0644\U+0644\U+062A\U+062D\U+0631\U+064A\U+0643
7
OPTIMUM
50
0
71
0
72
0
73
2
11
630
21
435
31
0
0
TEXT
100
AcDbEntity
8
NODE_TEXT
100
AcDbText
10
630
20
423
30
0
40
7.5
1
SUB CABINET 02
7
OPTIMUM
50
0
71
0
72
0
73
2
11
630
21
423
31
0
0
TEXT
100
AcDbEntity
8
NODE_TEXT
100
AcDbText
10
710
20
389
30
0
40
8
1
22U Sub Cabinet
7
OPTIMUM
50
0
71
0
72
1
73
2
11
710
21
389
31
0
0
LWPOLYLINE
100
AcDbEntity
8
NODE_TERMINAL
100
AcDbPolyline
90
4
70
1
10
427
20
703
10
573
20
703
10
573
20
827
10
427
20
827
0
LINE
100
AcDbEntity
8
NODE_TERMINAL
100
AcDbLine
10
427
20
801
30
0
11
573
21
801
31
0
0
TEXT
100
AcDbEntity
8
NODE_TEXT
100
AcDbText
10
500
20
818
30
0
40
14
1
TB-1
7
OPTIMUM
50
0
71
0
72
1
73
2
11
500
21
818
31
0
0
LINE
100
AcDbEntity
8
NODE_TERMINAL
100
AcDbLine
10
427
20
776
30
0
11
573
21
776
31
0
0
LINE
100
AcDbEntity
8
NODE_TERMINAL
100
AcDbLine
10
500
20
776
30
0
11
500
21
801
31
0
0
LINE
100
AcDbEntity
8
NODE_TERMINAL
100
AcDbLine
10
427
20
751
30
0
11
573
21
751
31
0
0
LINE
100
AcDbEntity
8
NODE_TERMINAL
100
AcDbLine
10
500
20
751
30
0
11
500
21
776
31
0
0
TEXT
100
AcDbEntity
8
NODE_TEXT
100
AcDbText
10
434
20
784
30
0
40
8.5
1
NO 1
7
OPTIMUM
50
0
71
0
72
0
73
2
11
434
21
784
31
0
0
TEXT
100
AcDbEntity
8
NODE_TEXT
100
AcDbText
10
507
20
784
30
0
40
8.5
1
CORE 96
7
OPTIMUM
50
0
71
0
72
0
73
2
11
507
21
784
31
0
0
TEXT
100
AcDbEntity
8
NODE_TEXT
100
AcDbText
10
434
20
759
30
0
40
8.5
1
ORT 16
7
OPTIMUM
50
0
71
0
72
0
73
2
11
434
21
759
31
0
0
TEXT
100
AcDbEntity
8
NODE_TEXT
100
AcDbText
10
507
20
764.695
30
0
40
8.5
1
TY
7
OPTIMUM
50
0
71
0
72
0
73
2
11
507
21
764.695
31
0
0
TEXT
100
AcDbEntity
8
NODE_TEXT
100
AcDbText
10
507
20
753.305
30
0
40
8.5
1
E TB-96C
7
OPTIMUM
50
0
71
0
72
0
73
2
11
507
21
753.305
31
0
0
TEXT
100
AcDbEntity
8
NODE_TEXT
100
AcDbText
10
436
20
739
30
0
40
7.5
1
CORE 1-96
7
OPTIMUM
50
0
71
0
72
0
73
2
11
436
21
739
31
0
0
TEXT
100
AcDbEntity
8
NODE_TEXT
100
AcDbText
10
436
20
727
30
0
40
7.5
1
TERMINATION BOX 01
7
OPTIMUM
50
0
71
0
72
0
73
2
11
436
21
727
31
0
0
TEXT
100
AcDbEntity
8
NODE_TEXT
100
AcDbText
10
436
20
715
30
0
40
7.5
1
CORE 001\U+2013096
7
OPTIMUM
50
0
71
0
72
0
73
2
11
436
21
715
31
0
0
TEXT
100
AcDbEntity
8
NODE_TEXT
100
AcDbText
10
500
20
689
30
0
40
8
1
96C Termination Box
7
OPTIMUM
50
0
71
0
72
1
73
2
11
500
21
689
31
0
0
LWPOLYLINE
100
AcDbEntity
8
NODE_TERMINAL
100
AcDbPolyline
90
4
70
1
10
427
20
203
10
573
20
203
10
573
20
327
10
427
20
327
0
LINE
100
AcDbEntity
8
NODE_TERMINAL
100
AcDbLine
10
427
20
301
30
0
11
573
21
301
31
0
0
TEXT
100
AcDbEntity
8
NODE_TEXT
100
AcDbText
10
500
20
318
30
0
40
14
1
TB-2
7
OPTIMUM
50
0
71
0
72
1
73
2
11
500
21
318
31
0
0
LINE
100
AcDbEntity
8
NODE_TERMINAL
100
AcDbLine
10
427
20
276
30
0
11
573
21
276
31
0
0
LINE
100
AcDbEntity
8
NODE_TERMINAL
100
AcDbLine
10
500
20
276
30
0
11
500
21
301
31
0
0
LINE
100
AcDbEntity
8
NODE_TERMINAL
100
AcDbLine
10
427
20
251
30
0
11
573
21
251
31
0
0
LINE
100
AcDbEntity
8
NODE_TERMINAL
100
AcDbLine
10
500
20
251
30
0
11
500
21
276
31
0
0
TEXT
100
AcDbEntity
8
NODE_TEXT
100
AcDbText
10
434
20
284
30
0
40
8.5
1
NO 2
7
OPTIMUM
50
0
71
0
72
0
73
2
11
434
21
284
31
0
0
TEXT
100
AcDbEntity
8
NODE_TEXT
100
AcDbText
10
507
20
284
30
0
40
8.5
1
CORE 96
7
OPTIMUM
50
0
71
0
72
0
73
2
11
507
21
284
31
0
0
TEXT
100
AcDbEntity
8
NODE_TEXT
100
AcDbText
10
434
20
259
30
0
40
8.5
1
ORT 16
7
OPTIMUM
50
0
71
0
72
0
73
2
11
434
21
259
31
0
0
TEXT
100
AcDbEntity
8
NODE_TEXT
100
AcDbText
10
507
20
264.695
30
0
40
8.5
1
TY
7
OPTIMUM
50
0
71
0
72
0
73
2
11
507
21
264.695
31
0
0
TEXT
100
AcDbEntity
8
NODE_TEXT
100
AcDbText
10
507
20
253.305
30
0
40
8.5
1
E TB-96C
7
OPTIMUM
50
0
71
0
72
0
73
2
11
507
21
253.305
31
0
0
TEXT
100
AcDbEntity
8
NODE_TEXT
100
AcDbText
10
436
20
239
30
0
40
7.5
1
CORE 97-192
7
OPTIMUM
50
0
71
0
72
0
73
2
11
436
21
239
31
0
0
TEXT
100
AcDbEntity
8
NODE_TEXT
100
AcDbText
10
436
20
227
30
0
40
7.5
1
TB-02
7
OPTIMUM
50
0
71
0
72
0
73
2
11
436
21
227
31
0
0
TEXT
100
AcDbEntity
8
NODE_TEXT
100
AcDbText
10
436
20
215
30
0
40
7.5
1
CORE 097\U+2013192
7
OPTIMUM
50
0
71
0
72
0
73
2
11
436
21
215
31
0
0
TEXT
100
AcDbEntity
8
NODE_TEXT
100
AcDbText
10
500
20
189
30
0
40
8
1
96C Termination Box
7
OPTIMUM
50
0
71
0
72
1
73
2
11
500
21
189
31
0
0
LWPOLYLINE
100
AcDbEntity
8
NODE_TERMINAL
100
AcDbPolyline
90
4
70
1
10
1007
20
730
10
1153
20
730
10
1153
20
830
10
1007
20
830
0
LINE
100
AcDbEntity
8
NODE_TERMINAL
100
AcDbLine
10
1007
20
804
30
0
11
1153
21
804
31
0
0
TEXT
100
AcDbEntity
8
NODE_TEXT
100
AcDbText
10
1080
20
821
30
0
40
14
1
TB-3
7
OPTIMUM
50
0
71
0
72
1
73
2
11
1080
21
821
31
0
0
LINE
100
AcDbEntity
8
NODE_TERMINAL
100
AcDbLine
10
1007
20
779
30
0
11
1153
21
779
31
0
0
LINE
100
AcDbEntity
8
NODE_TERMINAL
100
AcDbLine
10
1080
20
779
30
0
11
1080
21
804
31
0
0
LINE
100
AcDbEntity
8
NODE_TERMINAL
100
AcDbLine
10
1007
20
754
30
0
11
1153
21
754
31
0
0
LINE
100
AcDbEntity
8
NODE_TERMINAL
100
AcDbLine
10
1080
20
754
30
0
11
1080
21
779
31
0
0
TEXT
100
AcDbEntity
8
NODE_TEXT
100
AcDbText
10
1014
20
787
30
0
40
8.5
1
NO 3
7
OPTIMUM
50
0
71
0
72
0
73
2
11
1014
21
787
31
0
0
TEXT
100
AcDbEntity
8
NODE_TEXT
100
AcDbText
10
1087
20
787
30
0
40
8.5
1
CORE 24
7
OPTIMUM
50
0
71
0
72
0
73
2
11
1087
21
787
31
0
0
TEXT
100
AcDbEntity
8
NODE_TEXT
100
AcDbText
10
1014
20
762
30
0
40
8.5
1
ORT 8
7
OPTIMUM
50
0
71
0
72
0
73
2
11
1014
21
762
31
0
0
TEXT
100
AcDbEntity
8
NODE_TEXT
100
AcDbText
10
1087
20
767.695
30
0
40
8.5
1
TY
7
OPTIMUM
50
0
71
0
72
0
73
2
11
1087
21
767.695
31
0
0
TEXT
100
AcDbEntity
8
NODE_TEXT
100
AcDbText
10
1087
20
756.305
30
0
40
8.5
1
E TB-24C
7
OPTIMUM
50
0
71
0
72
0
73
2
11
1087
21
756.305
31
0
0
TEXT
100
AcDbEntity
8
NODE_TEXT
100
AcDbText
10
1016
20
742
30
0
40
7.5
1
CORE 193-216
7
OPTIMUM
50
0
71
0
72
0
73
2
11
1016
21
742
31
0
0
TEXT
100
AcDbEntity
8
NODE_TEXT
100
AcDbText
10
1080
20
716
30
0
40
8
1
24C Termination Box
7
OPTIMUM
50
0
71
0
72
1
73
2
11
1080
21
716
31
0
0
LWPOLYLINE
100
AcDbEntity
8
NODE_TERMINAL
100
AcDbPolyline
90
4
70
1
10
1007
20
460
10
1153
20
460
10
1153
20
560
10
1007
20
560
0
LINE
100
AcDbEntity
8
NODE_TERMINAL
100
AcDbLine
10
1007
20
534
30
0
11
1153
21
534
31
0
0
TEXT
100
AcDbEntity
8
NODE_TEXT
100
AcDbText
10
1080
20
551
30
0
40
14
1
TB-4
7
OPTIMUM
50
0
71
0
72
1
73
2
11
1080
21
551
31
0
0
LINE
100
AcDbEntity
8
NODE_TERMINAL
100
AcDbLine
10
1007
20
509
30
0
11
1153
21
509
31
0
0
LINE
100
AcDbEntity
8
NODE_TERMINAL
100
AcDbLine
10
1080
20
509
30
0
11
1080
21
534
31
0
0
LINE
100
AcDbEntity
8
NODE_TERMINAL
100
AcDbLine
10
1007
20
484
30
0
11
1153
21
484
31
0
0
LINE
100
AcDbEntity
8
NODE_TERMINAL
100
AcDbLine
10
1080
20
484
30
0
11
1080
21
509
31
0
0
TEXT
100
AcDbEntity
8
NODE_TEXT
100
AcDbText
10
1014
20
517
30
0
40
8.5
1
NO 4
7
OPTIMUM
50
0
71
0
72
0
73
2
11
1014
21
517
31
0
0
TEXT
100
AcDbEntity
8
NODE_TEXT
100
AcDbText
10
1087
20
517
30
0
40
8.5
1
CORE 24
7
OPTIMUM
50
0
71
0
72
0
73
2
11
1087
21
517
31
0
0
TEXT
100
AcDbEntity
8
NODE_TEXT
100
AcDbText
10
1014
20
492
30
0
40
8.5
1
ORT 8
7
OPTIMUM
50
0
71
0
72
0
73
2
11
1014
21
492
31
0
0
TEXT
100
AcDbEntity
8
NODE_TEXT
100
AcDbText
10
1087
20
497.695
30
0
40
8.5
1
TY
7
OPTIMUM
50
0
71
0
72
0
73
2
11
1087
21
497.695
31
0
0
TEXT
100
AcDbEntity
8
NODE_TEXT
100
AcDbText
10
1087
20
486.305
30
0
40
8.5
1
E TB-24C
7
OPTIMUM
50
0
71
0
72
0
73
2
11
1087
21
486.305
31
0
0
TEXT
100
AcDbEntity
8
NODE_TEXT
100
AcDbText
10
1016
20
472
30
0
40
7.5
1
CORE 217-240
7
OPTIMUM
50
0
71
0
72
0
73
2
11
1016
21
472
31
0
0
TEXT
100
AcDbEntity
8
NODE_TEXT
100
AcDbText
10
1080
20
446
30
0
40
8
1
24C Termination Box
7
OPTIMUM
50
0
71
0
72
1
73
2
11
1080
21
446
31
0
0
LWPOLYLINE
100
AcDbEntity
8
NODE_JOINT
100
AcDbPolyline
90
4
70
1
10
500
20
580
10
530
20
550
10
500
20
520
10
470
20
550
0
TEXT
100
AcDbEntity
8
NODE_TEXT
100
AcDbText
10
500
20
555
30
0
40
13
1
J-1
7
OPTIMUM
50
0
71
0
72
1
73
2
11
500
21
555
31
0
0
TEXT
100
AcDbEntity
8
NODE_TEXT
100
AcDbText
10
500
20
507
30
0
40
8
1
96C Fiber Joint
7
OPTIMUM
50
0
71
0
72
1
73
2
11
500
21
507
31
0
0
CIRCLE
100
AcDbEntity
8
NODE_CIVIL
100
AcDbCircle
10
710
20
280
30
0
40
31
0
CIRCLE
100
AcDbEntity
8
NODE_CIVIL
100
AcDbCircle
10
710
20
280
30
0
40
20
0
TEXT
100
AcDbEntity
8
NODE_TEXT
100
AcDbText
10
710
20
284
30
0
40
12
1
MH-1
7
OPTIMUM
50
0
71
0
72
1
73
2
11
710
21
284
31
0
0
TEXT
100
AcDbEntity
8
NODE_TEXT
100
AcDbText
10
710
20
233
30
0
40
8
1
TDM Manhole
7
OPTIMUM
50
0
71
0
72
1
73
2
11
710
21
233
31
0
0
TEXT
100
AcDbEntity
8
NOTES
100
AcDbText
10
1220
20
143.4
30
0
40
20
1
ISSUED DRAWING
7
OPTIMUM
50
6
71
0
72
0
73
2
11
1220
21
143.4
31
0
0
TEXT
100
AcDbEntity
8
NOTES
100
AcDbText
10
1220
20
116.6
30
0
40
20
1
\U+0631\U+0633\U+0645 \U+062C\U+0627\U+0647\U+0632 \U+0644\U+0644\U+0637\U+0628\U+0627\U+0639\U+0629
7
OPTIMUM
50
6
71
0
72
0
73
2
11
1220
21
116.6
31
0
0
LWPOLYLINE
100
AcDbEntity
8
FRAME
100
AcDbPolyline
90
4
70
1
10
1610
20
10
10
1910
20
10
10
1910
20
990
10
1610
20
990
0
TEXT
100
AcDbEntity
8
TITLE_TEXT
100
AcDbText
10
1634
20
978
30
0
40
26
1
N
7
OPTIMUM
50
0
71
0
72
1
73
2
11
1634
21
978
31
0
0
LINE
100
AcDbEntity
8
TITLE_TEXT
100
AcDbLine
10
1634
20
967
30
0
11
1634
21
930
31
0
0
LINE
100
AcDbEntity
8
TITLE_TEXT
100
AcDbLine
10
1617
20
948
30
0
11
1651
21
948
31
0
0
TEXT
100
AcDbEntity
8
TITLE_TEXT
100
AcDbText
10
1765
20
974
30
0
40
19
1
LEGEND / \U+0627\U+0644\U+0631\U+0645\U+0648\U+0632
7
OPTIMUM
50
0
71
0
72
1
73
2
11
1765
21
974
31
0
0
LINE
100
AcDbEntity
8
DUCT_4W_7_3_5
100
AcDbLine
10
1622
20
910
30
0
11
1684
21
910
31
0
0
TEXT
100
AcDbEntity
8
TITLE_TEXT
100
AcDbText
10
1694
20
914
30
0
40
10
1
4W 7/3.5 Microduct
7
OPTIMUM
50
0
71
0
72
0
73
2
11
1694
21
914
31
0
0
LINE
100
AcDbEntity
8
DUCT_1W_7_3_5
100
AcDbLine
10
1622
20
884
30
0
11
1684
21
884
31
0
0
TEXT
100
AcDbEntity
8
TITLE_TEXT
100
AcDbText
10
1694
20
888
30
0
40
10
1
1W 7/3.5 Microduct
7
OPTIMUM
50
0
71
0
72
0
73
2
11
1694
21
888
31
0
0
LINE
100
AcDbEntity
8
FIBER_24C
100
AcDbLine
10
1622
20
858
30
0
11
1684
21
858
31
0
0
TEXT
100
AcDbEntity
8
TITLE_TEXT
100
AcDbText
10
1694
20
862
30
0
40
10
1
24C Fiber Cable
7
OPTIMUM
50
0
71
0
72
0
73
2
11
1694
21
862
31
0
0
LINE
100
AcDbEntity
8
TITLE_GRID
100
AcDbLine
10
1610
20
670
30
0
11
1910
21
670
31
0
0
TEXT
100
AcDbEntity
8
TITLE_TEXT
100
AcDbText
10
1622
20
661
30
0
40
8
1
ROJECT
7
OPTIMUM
50
0
71
0
72
0
73
2
11
1622
21
661
31
0
0
TEXT
100
AcDbEntity
8
TITLE_TEXT
100
AcDbText
10
1622
20
651.04
30
0
40
12
1
Shatanof Fiber
7
OPTIMUM
50
0
71
0
72
0
73
2
11
1622
21
651.04
31
0
0
TEXT
100
AcDbEntity
8
TITLE_TEXT
100
AcDbText
10
1622
20
634.96
30
0
40
12
1
roject
7
OPTIMUM
50
0
71
0
72
0
73
2
11
1622
21
634.96
31
0
0
LINE
100
AcDbEntity
8
TITLE_GRID
100
AcDbLine
10
1610
20
622
30
0
11
1910
21
622
31
0
0
TEXT
100
AcDbEntity
8
TITLE_TEXT
100
AcDbText
10
1622
20
613
30
0
40
8
1
SITE
7
OPTIMUM
50
0
71
0
72
0
73
2
11
1622
21
613
31
0
0
TEXT
100
AcDbEntity
8
TITLE_TEXT
100
AcDbText
10
1622
20
595
30
0
40
12
1
Zone 01
7
OPTIMUM
50
0
71
0
72
0
73
2
11
1622
21
595
31
0
0
LINE
100
AcDbEntity
8
TITLE_GRID
100
AcDbLine
10
1610
20
574
30
0
11
1910
21
574
31
0
0
TEXT
100
AcDbEntity
8
TITLE_TEXT
100
AcDbText
10
1622
20
565
30
0
40
8
1
DRAWING NO
7
OPTIMUM
50
0
71
0
72
0
73
2
11
1622
21
565
31
0
0
TEXT
100
AcDbEntity
8
TITLE_TEXT
100
AcDbText
10
1622
20
547
30
0
40
12
1
001-FIBER-001
7
OPTIMUM
50
0
71
0
72
0
73
2
11
1622
21
547
31
0
0
LINE
100
AcDbEntity
8
TITLE_GRID
100
AcDbLine
10
1610
20
526
30
0
11
1910
21
526
31
0
0
TEXT
100
AcDbEntity
8
TITLE_TEXT
100
AcDbText
10
1622
20
517
30
0
40
8
1
TITLE
7
OPTIMUM
50
0
71
0
72
0
73
2
11
1622
21
517
31
0
0
TEXT
100
AcDbEntity
8
TITLE_TEXT
100
AcDbText
10
1622
20
499
30
0
40
12
1
Secondary Fiber Network \U+2014 Final Drawing Adjustments
7
OPTIMUM
50
0
71
0
72
0
73
2
11
1622
21
499
31
0
0
LINE
100
AcDbEntity
8
TITLE_GRID
100
AcDbLine
10
1610
20
478
30
0
11
1910
21
478
31
0
0
TEXT
100
AcDbEntity
8
TITLE_TEXT
100
AcDbText
10
1622
20
469
30
0
40
8
1
CLIENT
7
OPTIMUM
50
0
71
0
72
0
73
2
11
1622
21
469
31
0
0
TEXT
100
AcDbEntity
8
TITLE_TEXT
100
AcDbText
10
1622
20
451
30
0
40
12
1
Optimum Client
7
OPTIMUM
50
0
71
0
72
0
73
2
11
1622
21
451
31
0
0
LINE
100
AcDbEntity
8
TITLE_GRID
100
AcDbLine
10
1610
20
430
30
0
11
1910
21
430
31
0
0
TEXT
100
AcDbEntity
8
TITLE_TEXT
100
AcDbText
10
1622
20
421
30
0
40
8
1
CONSULTANT
7
OPTIMUM
50
0
71
0
72
0
73
2
11
1622
21
421
31
0
0
TEXT
100
AcDbEntity
8
TITLE_TEXT
100
AcDbText
10
1622
20
403
30
0
40
12
1
Engineering Consultant
7
OPTIMUM
50
0
71
0
72
0
73
2
11
1622
21
403
31
0
0
LINE
100
AcDbEntity
8
TITLE_GRID
100
AcDbLine
10
1610
20
382
30
0
11
1910
21
382
31
0
0
TEXT
100
AcDbEntity
8
TITLE_TEXT
100
AcDbText
10
1622
20
373
30
0
40
8
1
MAIN CONTRACTOR
7
OPTIMUM
50
0
71
0
72
0
73
2
11
1622
21
373
31
0
0
TEXT
100
AcDbEntity
8
TITLE_TEXT
100
AcDbText
10
1622
20
355
30
0
40
12
1
Main Contractor
7
OPTIMUM
50
0
71
0
72
0
73
2
11
1622
21
355
31
0
0
LINE
100
AcDbEntity
8
TITLE_GRID
100
AcDbLine
10
1610
20
334
30
0
11
1910
21
334
31
0
0
TEXT
100
AcDbEntity
8
TITLE_TEXT
100
AcDbText
10
1622
20
325
30
0
40
8
1
SUB CONTRACTOR
7
OPTIMUM
50
0
71
0
72
0
73
2
11
1622
21
325
31
0
0
TEXT
100
AcDbEntity
8
TITLE_TEXT
100
AcDbText
10
1622
20
307
30
0
40
12
1
Optimum Engineering
7
OPTIMUM
50
0
71
0
72
0
73
2
11
1622
21
307
31
0
0
LINE
100
AcDbEntity
8
TITLE_GRID
100
AcDbLine
10
1610
20
286
30
0
11
1910
21
286
31
0
0
TEXT
100
AcDbEntity
8
TITLE_TEXT
100
AcDbText
10
1622
20
277
30
0
40
8
1
REV
7
OPTIMUM
50
0
71
0
72
0
73
2
11
1622
21
277
31
0
0
TEXT
100
AcDbEntity
8
TITLE_TEXT
100
AcDbText
10
1622
20
259
30
0
40
12
1
R4
7
OPTIMUM
50
0
71
0
72
0
73
2
11
1622
21
259
31
0
0
LINE
100
AcDbEntity
8
TITLE_GRID
100
AcDbLine
10
1610
20
238
30
0
11
1910
21
238
31
0
0
TEXT
100
AcDbEntity
8
TITLE_TEXT
100
AcDbText
10
1622
20
229
30
0
40
8
1
STATUS
7
OPTIMUM
50
0
71
0
72
0
73
2
11
1622
21
229
31
0
0
TEXT
100
AcDbEntity
8
TITLE_TEXT
100
AcDbText
10
1622
20
211
30
0
40
12
1
DRAFT
7
OPTIMUM
50
0
71
0
72
0
73
2
11
1622
21
211
31
0
0
LINE
100
AcDbEntity
8
TITLE_GRID
100
AcDbLine
10
1610
20
190
30
0
11
1910
21
190
31
0
0
TEXT
100
AcDbEntity
8
TITLE_TEXT
100
AcDbText
10
1622
20
181
30
0
40
8
1
SCALE
7
OPTIMUM
50
0
71
0
72
0
73
2
11
1622
21
181
31
0
0
TEXT
100
AcDbEntity
8
TITLE_TEXT
100
AcDbText
10
1622
20
163
30
0
40
12
1
NTS
7
OPTIMUM
50
0
71
0
72
0
73
2
11
1622
21
163
31
0
0
LINE
100
AcDbEntity
8
TITLE_GRID
100
AcDbLine
10
1610
20
142
30
0
11
1910
21
142
31
0
0
TEXT
100
AcDbEntity
8
TITLE_TEXT
100
AcDbText
10
1622
20
133
30
0
40
8
1
DATE
7
OPTIMUM
50
0
71
0
72
0
73
2
11
1622
21
133
31
0
0
TEXT
100
AcDbEntity
8
TITLE_TEXT
100
AcDbText
10
1622
20
115
30
0
40
12
1
2026-08-05
7
OPTIMUM
50
0
71
0
72
0
73
2
11
1622
21
115
31
0
0
LINE
100
AcDbEntity
8
TITLE_GRID
100
AcDbLine
10
1610
20
94
30
0
11
1910
21
94
31
0
0
TEXT
100
AcDbEntity
8
TITLE_TEXT
100
AcDbText
10
1765
20
82.03
30
0
40
9
1
DRAWN / CHECKED / A
7
OPTIMUM
50
0
71
0
72
1
73
2
11
1765
21
82.03
31
0
0
TEXT
100
AcDbEntity
8
TITLE_TEXT
100
AcDbText
10
1765
20
69.97
30
0
40
9
1
ROVED
7
OPTIMUM
50
0
71
0
72
1
73
2
11
1765
21
69.97
31
0
0
TEXT
100
AcDbEntity
8
TITLE_TEXT
100
AcDbText
10
1765
20
55
30
0
40
10
1
Eng. A  /  Eng. B  /  Eng. C
7
OPTIMUM
50
0
71
0
72
1
73
2
11
1765
21
55
31
0
0
ENDSEC
0
EOF
