0
SECTION
2
HEADER
9
$ACADVER
1
AC1015
9
$INSUNITS
70
4
9
$EXTMIN
10
0
20
0
9
$EXTMAX
10
420
20
297
0
ENDSEC
0
SECTION
2
TABLES
0
TABLE
2
LTYPE
70
2
0
LTYPE
2
CONTINUOUS
70
0
3
Solid line
72
65
73
0
40
0
0
LTYPE
2
DASHED
70
0
3
Dashed __ __
72
65
73
2
40
6
49
4
74
0
49
-2
74
0
0
ENDTAB
0
TABLE
2
LAYER
70
11
0
LAYER
2
FRAME
70
0
62
3
420
1276501
6
CONTINUOUS
370
35
0
LAYER
2
NODES
70
0
62
1
420
14427686
6
CONTINUOUS
370
35
0
LAYER
2
NODE_TEXT
70
0
62
7
420
1120295
6
CONTINUOUS
370
18
0
LAYER
2
ROUTE_TEXT
70
0
62
7
420
1120295
6
CONTINUOUS
370
18
0
LAYER
2
TITLE
70
0
62
7
420
1120295
6
CONTINUOUS
370
18
0
LAYER
2
NOTES
70
0
62
8
420
3359061
6
CONTINUOUS
370
18
0
LAYER
2
REVIEW
70
0
62
1
420
15680580
6
CONTINUOUS
370
25
0
LAYER
2
HDPE_063
70
0
62
36
420
7421714
6
CONTINUOUS
370
50
0
LAYER
2
MD_12W_7_3_5
70
0
62
30
420
15357964
6
CONTINUOUS
370
45
0
LAYER
2
FO_012C
70
0
62
92
420
6660877
6
CONTINUOUS
370
30
0
LAYER
2
FO_004C
70
0
62
201
420
14362487
6
CONTINUOUS
370
30
0
ENDTAB
0
TABLE
2
STYLE
70
1
0
STYLE
2
OPTIMUM_AR
70
0
40
0
41
1
50
0
71
0
42
2.5
3
Arial.ttf
4

0
ENDTAB
0
ENDSEC
0
SECTION
2
ENTITIES
0
LWPOLYLINE
8
FRAME
90
5
70
0
10
8
20
8
10
412
20
8
10
412
20
289
10
8
20
289
10
8
20
8
0
LWPOLYLINE
8
FRAME
90
5
70
0
10
10
20
10
10
410
20
10
10
410
20
287
10
10
20
287
10
10
20
10
0
LINE
8
FRAME
10
336
20
8
30
0
11
336
21
289
31
0
0
LINE
8
FRAME
10
336
20
64
30
0
11
412
21
64
31
0
0
LINE
8
FRAME
10
336
20
112
30
0
11
412
21
112
31
0
0
LINE
8
FRAME
10
336
20
184
30
0
11
412
21
184
31
0
0
LINE
8
FRAME
10
336
20
248
30
0
11
412
21
248
31
0
0
LWPOLYLINE
8
HDPE_063
90
3
70
0
10
56.38
20
154.65
10
97.995
20
154.65
10
97.995
20
154.65
0
MTEXT
8
ROUTE_TEXT
10
77.1875
20
154.65
30
0
40
2.2
41
72
50
0
71
1
72
1
7
OPTIMUM_AR
1
\U+0627\U+0644\U+0645\U+0633\U+0627\U+0631 \U+0627\U+0644\U+0631\U+0626\U+064A\U+0633\U+064A HDPE
0
MTEXT
8
ROUTE_TEXT
10
77.1875
20
151.35
30
0
40
2.2
41
72
50
0
71
1
72
1
7
OPTIMUM_AR
1
\U+0631\U+0626\U+064A\U+0633\U+064A / \U+0623\U+0631\U+0636\U+064A
0
MTEXT
8
ROUTE_TEXT
10
77.1875
20
148.05
30
0
40
2.2
41
72
50
0
71
1
72
1
7
OPTIMUM_AR
1
FO-24C | 1W | 24C | 42 m | MC-01 \U+2192 HH-01
0
LWPOLYLINE
8
MD_12W_7_3_5
90
4
70
0
10
114.805
20
154.65
10
141.25
20
154.65
10
141.25
20
185.4
10
160.52
20
185.4
0
MTEXT
8
ROUTE_TEXT
10
141.25
20
166.4375
30
0
40
2.2
41
72
50
0
71
1
72
1
7
OPTIMUM_AR
1
\U+0645\U+064A\U+0643\U+0631\U+0648 \U+062F\U+0643\U+062A \U+062A\U+0648\U+0632\U+064A\U+0639 12 \U+0645\U+0633\U+0627\U+0631
0
MTEXT
8
ROUTE_TEXT
10
141.25
20
163.1375
30
0
40
2.2
41
72
50
0
71
1
72
1
7
OPTIMUM_AR
1
\U+062A\U+0648\U+0632\U+064A\U+0639 / \U+0623\U+0631\U+0636\U+064A
0
MTEXT
8
ROUTE_TEXT
10
141.25
20
159.8375
30
0
40
2.2
41
72
50
0
71
1
72
1
7
OPTIMUM_AR
1
FO-24C | 12W | 24C | 58 m | HH-01 \U+2192 FDT-01
0
LWPOLYLINE
8
FO_012C
90
4
70
0
10
179.38
20
185.4
10
198.65
20
185.4
10
198.65
20
199.75
10
220.38
20
199.75
0
MTEXT
8
ROUTE_TEXT
10
198.65
20
193.805
30
0
40
2.2
41
72
50
0
71
1
72
1
7
OPTIMUM_AR
1
\U+0643\U+0627\U+0628\U+0644 \U+0641\U+0627\U+064A\U+0628\U+0631 \U+0647\U+0648\U+0627\U+0626\U+064A 12 \U+0643\U+0648\U+0631
0
MTEXT
8
ROUTE_TEXT
10
198.65
20
190.505
30
0
40
2.2
41
72
50
0
71
1
72
1
7
OPTIMUM_AR
1
\U+062B\U+0627\U+0646\U+0648\U+064A / \U+0647\U+0648\U+0627\U+0626\U+064A
0
MTEXT
8
ROUTE_TEXT
10
198.65
20
187.205
30
0
40
2.2
41
72
50
0
71
1
72
1
7
OPTIMUM_AR
1
12C | 36 m | FDT-01 \U+2192 FAT-01
0
LWPOLYLINE
8
FO_004C
90
4
70
0
10
179.38
20
185.4
10
184.3
20
185.4
10
184.3
20
130.05
10
220.995
20
130.05
0
MTEXT
8
ROUTE_TEXT
10
184.3
20
141.8375
30
0
40
2.2
41
72
50
0
71
1
72
1
7
OPTIMUM_AR
1
\U+0643\U+0627\U+0628\U+0644 \U+062F\U+0627\U+062E\U+0644\U+064A 4 \U+0643\U+0648\U+0631
0
MTEXT
8
ROUTE_TEXT
10
184.3
20
138.5375
30
0
40
2.2
41
72
50
0
71
1
72
1
7
OPTIMUM_AR
1
\U+062A\U+0648\U+0635\U+064A\U+0644\U+0629 / \U+062F\U+0627\U+062E\U+0644\U+064A
0
MTEXT
8
ROUTE_TEXT
10
184.3
20
135.2375
30
0
40
2.2
41
72
50
0
71
1
72
1
7
OPTIMUM_AR
1
4C | 31 m | FDT-01 \U+2192 ODB-01
0
LWPOLYLINE
8
NODES
90
5
70
0
10
33.42
20
146.245
10
56.38
20
146.245
10
56.38
20
163.055
10
33.42
20
163.055
10
33.42
20
146.245
0
MTEXT
8
NODE_TEXT
10
44.9
20
157.15
30
0
40
2.15
41
72
50
0
71
1
72
1
7
OPTIMUM_AR
1
MC-01
0
MTEXT
8
NODE_TEXT
10
44.9
20
154.05
30
0
40
2.15
41
72
50
0
71
1
72
1
7
OPTIMUM_AR
1
\U+0631\U+0626\U+064A\U+0633\U+064A | \U+0631\U+0642\U+0645 MC-01 | 144 \U+0643\U+0648\U+0631
0
MTEXT
8
NODE_TEXT
10
44.9
20
150.95
30
0
40
2.15
41
72
50
0
71
1
72
1
7
OPTIMUM_AR
1
ODF-144 | \U+0643\U+0648\U+0631 1-144
0
LWPOLYLINE
8
NODES
90
5
70
0
10
97.995
20
146.245
10
114.805
20
146.245
10
114.805
20
163.055
10
97.995
20
163.055
10
97.995
20
146.245
0
MTEXT
8
NODE_TEXT
10
106.4
20
157.15
30
0
40
2.15
41
72
50
0
71
1
72
1
7
OPTIMUM_AR
1
HH-01
0
MTEXT
8
NODE_TEXT
10
106.4
20
154.05
30
0
40
2.15
41
72
50
0
71
1
72
1
7
OPTIMUM_AR
1
\U+0631\U+0626\U+064A\U+0633\U+064A | \U+0631\U+0642\U+0645 HH-01 | 144 \U+0643\U+0648\U+0631
0
LWPOLYLINE
8
NODES
90
5
70
0
10
160.52
20
178.635
10
179.38
20
178.635
10
179.38
20
192.165
10
160.52
20
192.165
10
160.52
20
178.635
0
MTEXT
8
NODE_TEXT
10
169.95
20
187.9
30
0
40
2.15
41
72
50
0
71
1
72
1
7
OPTIMUM_AR
1
FDT-01
0
MTEXT
8
NODE_TEXT
10
169.95
20
184.8
30
0
40
2.15
41
72
50
0
71
1
72
1
7
OPTIMUM_AR
1
\U+062A\U+0648\U+0632\U+064A\U+0639 | \U+0631\U+0642\U+0645 FDT-01 | 48 \U+0643\U+0648\U+0631
0
MTEXT
8
NODE_TEXT
10
169.95
20
181.7
30
0
40
2.15
41
72
50
0
71
1
72
1
7
OPTIMUM_AR
1
SP-1X8 | \U+0643\U+0648\U+0631 1-48
0
LWPOLYLINE
8
NODES
90
5
70
0
10
220.38
20
193.19
10
238.42
20
193.19
10
238.42
20
206.31
10
220.38
20
206.31
10
220.38
20
193.19
0
MTEXT
8
NODE_TEXT
10
229.4
20
202.25
30
0
40
2.15
41
72
50
0
71
1
72
1
7
OPTIMUM_AR
1
FAT-01
0
MTEXT
8
NODE_TEXT
10
229.4
20
199.15
30
0
40
2.15
41
72
50
0
71
1
72
1
7
OPTIMUM_AR
1
\U+0646\U+0647\U+0627\U+0626\U+064A | \U+0631\U+0642\U+0645 FAT-01 | 16 \U+0643\U+0648\U+0631
0
MTEXT
8
NODE_TEXT
10
229.4
20
196.05
30
0
40
2.15
41
72
50
0
71
1
72
1
7
OPTIMUM_AR
1
SP-1X8 | \U+0643\U+0648\U+0631 1-16
0
LWPOLYLINE
8
NODES
90
5
70
0
10
220.995
20
123.9
10
237.805
20
123.9
10
237.805
20
136.2
10
220.995
20
136.2
10
220.995
20
123.9
0
MTEXT
8
NODE_TEXT
10
229.4
20
132.55
30
0
40
2.15
41
72
50
0
71
1
72
1
7
OPTIMUM_AR
1
ODB-01
0
MTEXT
8
NODE_TEXT
10
229.4
20
129.45
30
0
40
2.15
41
72
50
0
71
1
72
1
7
OPTIMUM_AR
1
\U+0646\U+0647\U+0627\U+0626\U+064A | \U+0631\U+0642\U+0645 ODB-01 | 8 \U+0643\U+0648\U+0631
0
MTEXT
8
NODE_TEXT
10
229.4
20
126.35
30
0
40
2.15
41
72
50
0
71
1
72
1
7
OPTIMUM_AR
1
\U+0643\U+0648\U+0631 17-24
0
MTEXT
8
NOTES
10
40.8
20
219.225
30
0
40
2
41
72
50
0
71
1
72
1
7
OPTIMUM_AR
1
\U+0645\U+062E\U+0637\U+0637 \U+0634\U+0628\U+0643\U+0629 \U+0627\U+0644\U+0641\U+0627\U+064A\U+0628\U+0631 \U+2014 \U+0645\U+0646\U+0637\U+0642\U+0629 A
0
MTEXT
8
TITLE
10
340
20
279
30
0
40
3.5
41
72
50
0
71
1
72
1
7
OPTIMUM_AR
1
LEGEND / \U+0627\U+0644\U+0631\U+0645\U+0648\U+0632
0
LINE
8
HDPE_063
10
340
20
268
30
0
11
352
21
268
31
0
0
MTEXT
8
TITLE
10
355
20
267
30
0
40
2
41
72
50
0
71
1
72
1
7
OPTIMUM_AR
1
\U+0645\U+0627\U+0633\U+0648\U+0631\U+0629 HDPE \U+0642\U+0637\U+0631 63 \U+0645\U+0645
0
LINE
8
MD_12W_7_3_5
10
340
20
261
30
0
11
352
21
261
31
0
0
MTEXT
8
TITLE
10
355
20
260
30
0
40
2
41
72
50
0
71
1
72
1
7
OPTIMUM_AR
1
\U+0645\U+064A\U+0643\U+0631\U+0648 \U+062F\U+0643\U+062A 12 \U+0645\U+0633\U+0627\U+0631 7/3.5
0
LINE
8
FO_012C
10
340
20
254
30
0
11
352
21
254
31
0
0
MTEXT
8
TITLE
10
355
20
253
30
0
40
2
41
72
50
0
71
1
72
1
7
OPTIMUM_AR
1
\U+0643\U+0627\U+0628\U+0644 \U+0641\U+0627\U+064A\U+0628\U+0631 12 \U+0643\U+0648\U+0631
0
LINE
8
FO_004C
10
340
20
247
30
0
11
352
21
247
31
0
0
MTEXT
8
TITLE
10
355
20
246
30
0
40
2
41
72
50
0
71
1
72
1
7
OPTIMUM_AR
1
\U+0643\U+0627\U+0628\U+0644 \U+0641\U+0627\U+064A\U+0628\U+0631 4 \U+0643\U+0648\U+0631
0
MTEXT
8
TITLE
10
340
20
179
30
0
40
1.65
41
72
50
0
71
1
72
1
7
OPTIMUM_AR
1
PROJECT / \U+0627\U+0644\U+0645\U+0634\U+0631\U+0648\U+0639
0
MTEXT
8
TITLE
10
340
20
175
30
0
40
2.4
41
72
50
0
71
1
72
1
7
OPTIMUM_AR
1
Optimum Fiber Project
0
MTEXT
8
TITLE
10
340
20
168
30
0
40
1.65
41
72
50
0
71
1
72
1
7
OPTIMUM_AR
1
SITE / \U+0627\U+0644\U+0645\U+0648\U+0642\U+0639
0
MTEXT
8
TITLE
10
340
20
164
30
0
40
2.4
41
72
50
0
71
1
72
1
7
OPTIMUM_AR
1
Zone A
0
MTEXT
8
TITLE
10
340
20
157
30
0
40
1.65
41
72
50
0
71
1
72
1
7
OPTIMUM_AR
1
DRAWING NO.
0
MTEXT
8
TITLE
10
340
20
153
30
0
40
2.4
41
72
50
0
71
1
72
1
7
OPTIMUM_AR
1
P001-FO-001
0
MTEXT
8
TITLE
10
340
20
146
30
0
40
1.65
41
72
50
0
71
1
72
1
7
OPTIMUM_AR
1
TITLE / \U+0627\U+0644\U+0639\U+0646\U+0648\U+0627\U+0646
0
MTEXT
8
TITLE
10
340
20
142
30
0
40
2.4
41
72
50
0
71
1
72
1
7
OPTIMUM_AR
1
Fiber Optic Distribution Network
0
MTEXT
8
TITLE
10
340
20
135
30
0
40
1.65
41
72
50
0
71
1
72
1
7
OPTIMUM_AR
1
REVISION
0
MTEXT
8
TITLE
10
340
20
131
30
0
40
2.4
41
72
50
0
71
1
72
1
7
OPTIMUM_AR
1
R0
0
MTEXT
8
TITLE
10
340
20
124
30
0
40
1.65
41
72
50
0
71
1
72
1
7
OPTIMUM_AR
1
STATUS
0
MTEXT
8
TITLE
10
340
20
120
30
0
40
2.4
41
72
50
0
71
1
72
1
7
OPTIMUM_AR
1
FOR CONSTRUCTION
0
MTEXT
8
TITLE
10
340
20
113
30
0
40
1.65
41
72
50
0
71
1
72
1
7
OPTIMUM_AR
1
SCALE
0
MTEXT
8
TITLE
10
340
20
109
30
0
40
2.4
41
72
50
0
71
1
72
1
7
OPTIMUM_AR
1
NTS
0
MTEXT
8
TITLE
10
340
20
102
30
0
40
1.65
41
72
50
0
71
1
72
1
7
OPTIMUM_AR
1
DATE
0
MTEXT
8
TITLE
10
340
20
98
30
0
40
2.4
41
72
50
0
71
1
72
1
7
OPTIMUM_AR
1
2026-08-04
0
MTEXT
8
TITLE
10
340
20
91
30
0
40
1.65
41
72
50
0
71
1
72
1
7
OPTIMUM_AR
1
COMPANY
0
MTEXT
8
TITLE
10
340
20
87
30
0
40
2.4
41
72
50
0
71
1
72
1
7
OPTIMUM_AR
1
Optimum Engineering
0
MTEXT
8
TITLE
10
340
20
58
30
0
40
2.3
41
72
50
0
71
1
72
1
7
OPTIMUM_AR
1
GENERAL NOTES / \U+0645\U+0644\U+0627\U+062D\U+0638\U+0627\U+062A
0
MTEXT
8
NOTES
10
340
20
53
30
0
40
1.8
41
72
50
0
71
1
72
1
7
OPTIMUM_AR
1
\U+062A\U+0646\U+0641\U+0630 \U+062C\U+0645\U+064A\U+0639 \U+0627\U+0644\U+0645\U+0633\U+0627\U+0631\U+0627\U+062A \U+0637\U+0628\U+0642\U+064B\U+0627 \U+0644\U+0644\U+0645\U+062E\U+0637\U+0637\U+0627\U+062A \U+0627\U+0644\U+0645\U+0639\U+062A\U+0645\U+062F\U+0629\U+060C \U+0645\U+0639 \U+0627\U+062E\U+062A\U+0628\U+0627\U+0631 OTDR \U+0648\U+062A\U+0631\U+0642\U+064A\U+0645 \U+062C\U+0645\U+064A\U+0639 \U+0627\U+0644\U+0646\U+0647\U+0627\U+064A\U+0627\U+062A \U+0642\U+0628\U+0644 \U+0627\U+0644\U+062A\U+0633\U+0644\U+064A\U+0645.
0
ENDSEC
0
EOF
