0
SECTION
2
HEADER
9
$ACADVER
1
AC1015
9
$INSUNITS
70
4
9
$EXTMIN
10
0
20
0
9
$EXTMAX
10
420
20
297
0
ENDSEC
0
SECTION
2
TABLES
0
TABLE
2
LTYPE
70
2
0
LTYPE
2
CONTINUOUS
70
0
3
Solid line
72
65
73
0
40
0
0
LTYPE
2
DASHED
70
0
3
Dashed __ __
72
65
73
2
40
6
49
4
74
0
49
-2
74
0
0
ENDTAB
0
TABLE
2
LAYER
70
9
0
LAYER
2
FRAME
70
0
62
3
420
1276501
6
CONTINUOUS
370
35
0
LAYER
2
NODES
70
0
62
5
420
2450411
6
CONTINUOUS
370
35
0
LAYER
2
NODE_TEXT
70
0
62
7
420
1120295
6
CONTINUOUS
370
18
0
LAYER
2
ROUTE_TEXT
70
0
62
7
420
1120295
6
CONTINUOUS
370
18
0
LAYER
2
TITLE
70
0
62
7
420
1120295
6
CONTINUOUS
370
18
0
LAYER
2
NOTES
70
0
62
8
420
3359061
6
CONTINUOUS
370
18
0
LAYER
2
REVIEW
70
0
62
1
420
15680580
6
CONTINUOUS
370
25
0
LAYER
2
DUCT_4W_7_3_5
70
0
62
7
420
1483594
6
CONTINUOUS
370
35
0
LAYER
2
DUCT_1W_7_3_5
70
0
62
7
420
2450411
6
CONTINUOUS
370
35
0
ENDTAB
0
TABLE
2
STYLE
70
1
0
STYLE
2
OPTIMUM_AR
70
0
40
0
41
1
50
0
71
0
42
2.5
3
Arial.ttf
4

0
ENDTAB
0
ENDSEC
0
SECTION
2
ENTITIES
0
LWPOLYLINE
8
FRAME
90
5
70
0
10
7
20
7
10
413
20
7
10
413
20
290
10
7
20
290
10
7
20
7
0
LWPOLYLINE
8
FRAME
90
5
70
0
10
8.5
20
8.5
10
411.5
20
8.5
10
411.5
20
288.5
10
8.5
20
288.5
10
8.5
20
8.5
0
LINE
8
FRAME
10
348
20
7
30
0
11
348
21
290
31
0
0
LWPOLYLINE
8
DUCT_4W_7_3_5
90
3
70
0
10
65.7225
20
163.025
10
114.6925
20
163.025
10
114.6925
20
163.025
0
MTEXT
8
ROUTE_TEXT
10
90.2075
20
164.825
30
0
40
1.8
41
34
50
0
71
2
72
1
7
OPTIMUM_AR
1
MAIN-01
0
MTEXT
8
ROUTE_TEXT
10
90.2075
20
161.825
30
0
40
1.45
41
34
50
0
71
2
72
1
7
OPTIMUM_AR
1
4W | 7/3.5 | FO-24C | 24C | 89.98m
0
LWPOLYLINE
8
DUCT_4W_7_3_5
90
3
70
0
10
131.7075
20
163.025
10
169.265
20
163.025
10
169.265
20
163.025
0
MTEXT
8
ROUTE_TEXT
10
150.4862
20
164.825
30
0
40
1.8
41
34
50
0
71
2
72
1
7
OPTIMUM_AR
1
SECONDARY-01
0
MTEXT
8
ROUTE_TEXT
10
150.4862
20
161.825
30
0
40
1.45
41
34
50
0
71
2
72
1
7
OPTIMUM_AR
1
4W | 7/3.5 | FO-24C | 24C | 42.3m
0
LWPOLYLINE
8
DUCT_1W_7_3_5
90
3
70
0
10
185.6684
20
171.325
10
202.05
20
202.45
10
230.685
20
202.45
0
MTEXT
8
ROUTE_TEXT
10
200.5275
20
201.3573
30
0
40
1.8
41
34
50
0
71
2
72
1
7
OPTIMUM_AR
1
DROP-01
0
MTEXT
8
ROUTE_TEXT
10
200.5275
20
198.3573
30
0
40
1.45
41
34
50
0
71
2
72
1
7
OPTIMUM_AR
1
1W | 7/3.5 | FO-24C | 24C | 31.6m
0
LWPOLYLINE
8
DUCT_1W_7_3_5
90
3
70
0
10
193.335
20
163.025
10
230.685
20
163.025
10
230.685
20
163.025
0
MTEXT
8
ROUTE_TEXT
10
212.01
20
164.825
30
0
40
1.8
41
34
50
0
71
2
72
1
7
OPTIMUM_AR
1
DROP-02
0
MTEXT
8
ROUTE_TEXT
10
212.01
20
161.825
30
0
40
1.45
41
34
50
0
71
2
72
1
7
OPTIMUM_AR
1
1W | 7/3.5 | FO-24C | 24C | 27.24m
0
LWPOLYLINE
8
DUCT_1W_7_3_5
90
3
70
0
10
185.6684
20
154.725
10
202.05
20
123.6
10
230.685
20
123.6
0
MTEXT
8
ROUTE_TEXT
10
200.5275
20
128.2927
30
0
40
1.8
41
34
50
0
71
2
72
1
7
OPTIMUM_AR
1
DROP-03
0
MTEXT
8
ROUTE_TEXT
10
200.5275
20
125.2927
30
0
40
1.45
41
34
50
0
71
2
72
1
7
OPTIMUM_AR
1
1W | 7/3.5 | FO-24C | 24C | 36.4m
0
LWPOLYLINE
8
NODES
90
5
70
0
10
39.5775
20
154.1025
10
65.7225
20
154.1025
10
65.7225
20
171.9475
10
39.5775
20
171.9475
10
39.5775
20
154.1025
0
MTEXT
8
NODE_TEXT
10
52.65
20
165.625
30
0
40
1.8
41
23.5305
50
0
71
2
72
1
7
OPTIMUM_AR
1
CAB-01
0
MTEXT
8
NODE_TEXT
10
52.65
20
162.925
30
0
40
1.25
41
23.5305
50
0
71
2
72
1
7
OPTIMUM_AR
1
NO CAB-01   CORE 288
0
MTEXT
8
NODE_TEXT
10
52.65
20
160.225
30
0
40
1.25
41
23.5305
50
0
71
2
72
1
7
OPTIMUM_AR
1
PORT 144   TYPE CAB-MAIN-42U
0
LWPOLYLINE
8
NODES
90
5
70
0
10
113.4475
20
154.5175
10
132.9525
20
154.5175
10
132.9525
20
171.5325
10
113.4475
20
171.5325
10
113.4475
20
154.5175
0
MTEXT
8
NODE_TEXT
10
123.2
20
165.625
30
0
40
1.8
41
18
50
0
71
2
72
1
7
OPTIMUM_AR
1
MH-01
0
MTEXT
8
NODE_TEXT
10
123.2
20
162.925
30
0
40
1.25
41
18
50
0
71
2
72
1
7
OPTIMUM_AR
1
NO MH-01   CORE -
0
MTEXT
8
NODE_TEXT
10
123.2
20
160.225
30
0
40
1.25
41
18
50
0
71
2
72
1
7
OPTIMUM_AR
1
PORT -   TYPE MH-TEL
0
LWPOLYLINE
8
NODES
90
5
70
0
10
168.2275
20
154.5175
10
194.3725
20
154.5175
10
194.3725
20
171.5325
10
168.2275
20
171.5325
10
168.2275
20
154.5175
0
MTEXT
8
NODE_TEXT
10
181.3
20
165.625
30
0
40
1.8
41
23.5305
50
0
71
2
72
1
7
OPTIMUM_AR
1
SUB-CAB-01
0
MTEXT
8
NODE_TEXT
10
181.3
20
162.925
30
0
40
1.25
41
23.5305
50
0
71
2
72
1
7
OPTIMUM_AR
1
NO -   CORE 96
0
MTEXT
8
NODE_TEXT
10
181.3
20
160.225
30
0
40
1.25
41
23.5305
50
0
71
2
72
1
7
OPTIMUM_AR
1
PORT 48   TYPE SUBCAB-22U
0
LWPOLYLINE
8
NODES
90
5
70
0
10
229.6475
20
195.6025
10
249.1525
20
195.6025
10
249.1525
20
209.2975
10
229.6475
20
209.2975
10
229.6475
20
195.6025
0
MTEXT
8
NODE_TEXT
10
239.4
20
205.05
30
0
40
1.8
41
18
50
0
71
2
72
1
7
OPTIMUM_AR
1
TB-01
0
MTEXT
8
NODE_TEXT
10
239.4
20
202.35
30
0
40
1.25
41
18
50
0
71
2
72
1
7
OPTIMUM_AR
1
NO 01   CORE 24
0
MTEXT
8
NODE_TEXT
10
239.4
20
199.65
30
0
40
1.25
41
18
50
0
71
2
72
1
7
OPTIMUM_AR
1
PORT -   TYPE TB-24C
0
LWPOLYLINE
8
NODES
90
5
70
0
10
229.6475
20
156.1775
10
249.1525
20
156.1775
10
249.1525
20
169.8725
10
229.6475
20
169.8725
10
229.6475
20
156.1775
0
MTEXT
8
NODE_TEXT
10
239.4
20
165.625
30
0
40
1.8
41
18
50
0
71
2
72
1
7
OPTIMUM_AR
1
TB-02
0
MTEXT
8
NODE_TEXT
10
239.4
20
162.925
30
0
40
1.25
41
18
50
0
71
2
72
1
7
OPTIMUM_AR
1
NO 02   CORE 48
0
MTEXT
8
NODE_TEXT
10
239.4
20
160.225
30
0
40
1.25
41
18
50
0
71
2
72
1
7
OPTIMUM_AR
1
PORT -   TYPE TB-48C
0
LWPOLYLINE
8
NODES
90
5
70
0
10
229.6475
20
116.7525
10
249.1525
20
116.7525
10
249.1525
20
130.4475
10
229.6475
20
130.4475
10
229.6475
20
116.7525
0
MTEXT
8
NODE_TEXT
10
239.4
20
126.2
30
0
40
1.8
41
18
50
0
71
2
72
1
7
OPTIMUM_AR
1
TB-03
0
MTEXT
8
NODE_TEXT
10
239.4
20
123.5
30
0
40
1.25
41
18
50
0
71
2
72
1
7
OPTIMUM_AR
1
NO 03   CORE 24
0
MTEXT
8
NODE_TEXT
10
239.4
20
120.8
30
0
40
1.25
41
18
50
0
71
2
72
1
7
OPTIMUM_AR
1
PORT -   TYPE TB-24C
0
MTEXT
8
TITLE
10
351
20
282
30
0
40
3.2
41
72
50
0
71
1
72
1
7
OPTIMUM_AR
1
N
0
MTEXT
8
TITLE
10
361
20
282
30
0
40
3
41
72
50
0
71
1
72
1
7
OPTIMUM_AR
1
LEGEND / \U+0627\U+0644\U+0631\U+0645\U+0648\U+0632
0
LINE
8
FRAME
10
351
20
270
30
0
11
361
21
270
31
0
0
MTEXT
8
TITLE
10
364
20
269
30
0
40
1.55
41
49
50
0
71
1
72
1
7
OPTIMUM_AR
1
4-way Microduct
0
LINE
8
FRAME
10
351
20
263
30
0
11
361
21
263
31
0
0
MTEXT
8
TITLE
10
364
20
262
30
0
40
1.55
41
49
50
0
71
1
72
1
7
OPTIMUM_AR
1
1-way Microduct
0
LINE
8
FRAME
10
348
20
199
30
0
11
413
21
199
31
0
0
MTEXT
8
TITLE
10
351
20
196.3
30
0
40
1.2
41
72
50
0
71
1
72
1
7
OPTIMUM_AR
1
PROJECT
0
MTEXT
8
TITLE
10
351
20
193
30
0
40
1.75
41
54
50
0
71
1
72
1
7
OPTIMUM_AR
1
First Fiber Optical
0
LINE
8
FRAME
10
348
20
186
30
0
11
413
21
186
31
0
0
MTEXT
8
TITLE
10
351
20
183.3
30
0
40
1.2
41
72
50
0
71
1
72
1
7
OPTIMUM_AR
1
SITE
0
MTEXT
8
TITLE
10
351
20
180
30
0
40
1.75
41
54
50
0
71
1
72
1
7
OPTIMUM_AR
1
Site A
0
LINE
8
FRAME
10
348
20
173
30
0
11
413
21
173
31
0
0
MTEXT
8
TITLE
10
351
20
170.3
30
0
40
1.2
41
72
50
0
71
1
72
1
7
OPTIMUM_AR
1
DRAWING NO.
0
MTEXT
8
TITLE
10
351
20
167
30
0
40
1.75
41
54
50
0
71
1
72
1
7
OPTIMUM_AR
1
P001-FIBER-SLD-001
0
LINE
8
FRAME
10
348
20
160
30
0
11
413
21
160
31
0
0
MTEXT
8
TITLE
10
351
20
157.3
30
0
40
1.2
41
72
50
0
71
1
72
1
7
OPTIMUM_AR
1
TITLE
0
MTEXT
8
TITLE
10
351
20
154
30
0
40
1.75
41
54
50
0
71
1
72
1
7
OPTIMUM_AR
1
Secondary Fiber Network
0
LINE
8
FRAME
10
348
20
147
30
0
11
413
21
147
31
0
0
MTEXT
8
TITLE
10
351
20
144.3
30
0
40
1.2
41
72
50
0
71
1
72
1
7
OPTIMUM_AR
1
CLIENT
0
MTEXT
8
TITLE
10
351
20
141
30
0
40
1.75
41
54
50
0
71
1
72
1
7
OPTIMUM_AR
1
Optimum Client
0
LINE
8
FRAME
10
348
20
134
30
0
11
413
21
134
31
0
0
MTEXT
8
TITLE
10
351
20
131.3
30
0
40
1.2
41
72
50
0
71
1
72
1
7
OPTIMUM_AR
1
CONSULTANT
0
MTEXT
8
TITLE
10
351
20
128
30
0
40
1.75
41
54
50
0
71
1
72
1
7
OPTIMUM_AR
1
Engineering Consultant
0
LINE
8
FRAME
10
348
20
121
30
0
11
413
21
121
31
0
0
MTEXT
8
TITLE
10
351
20
118.3
30
0
40
1.2
41
72
50
0
71
1
72
1
7
OPTIMUM_AR
1
COMPANY
0
MTEXT
8
TITLE
10
351
20
115
30
0
40
1.75
41
54
50
0
71
1
72
1
7
OPTIMUM_AR
1
Optimum Engineering
0
LINE
8
FRAME
10
348
20
108
30
0
11
413
21
108
31
0
0
MTEXT
8
TITLE
10
351
20
105.3
30
0
40
1.2
41
72
50
0
71
1
72
1
7
OPTIMUM_AR
1
REVISION
0
MTEXT
8
TITLE
10
351
20
102
30
0
40
1.75
41
54
50
0
71
1
72
1
7
OPTIMUM_AR
1
R0
0
LINE
8
FRAME
10
348
20
95
30
0
11
413
21
95
31
0
0
MTEXT
8
TITLE
10
351
20
92.3
30
0
40
1.2
41
72
50
0
71
1
72
1
7
OPTIMUM_AR
1
STATUS
0
MTEXT
8
TITLE
10
351
20
89
30
0
40
1.75
41
54
50
0
71
1
72
1
7
OPTIMUM_AR
1
DRAFT
0
LINE
8
FRAME
10
348
20
82
30
0
11
413
21
82
31
0
0
MTEXT
8
TITLE
10
351
20
79.3
30
0
40
1.2
41
72
50
0
71
1
72
1
7
OPTIMUM_AR
1
SCALE
0
MTEXT
8
TITLE
10
351
20
76
30
0
40
1.75
41
54
50
0
71
1
72
1
7
OPTIMUM_AR
1
NTS
0
LINE
8
FRAME
10
348
20
69
30
0
11
413
21
69
31
0
0
MTEXT
8
TITLE
10
351
20
66.3
30
0
40
1.2
41
72
50
0
71
1
72
1
7
OPTIMUM_AR
1
DATE
0
MTEXT
8
TITLE
10
351
20
63
30
0
40
1.75
41
54
50
0
71
1
72
1
7
OPTIMUM_AR
1
2026-08-05
0
ENDSEC
0
EOF
