0
SECTION
2
HEADER
9
$ACADVER
1
AC1015
9
$INSUNITS
70
4
9
$EXTMIN
10
0
20
0
9
$EXTMAX
10
505
20
297
0
ENDSEC
0
SECTION
2
TABLES
0
TABLE
2
LTYPE
70
2
0
LTYPE
100
AcDbSymbolTableRecord
100
AcDbLinetypeTableRecord
2
CONTINUOUS
70
0
3
Solid line
72
65
73
0
40
0
0
LTYPE
100
AcDbSymbolTableRecord
100
AcDbLinetypeTableRecord
2
DASHED
70
0
3
Dashed
72
65
73
2
40
6
49
4
74
0
49
-2
74
0
0
ENDTAB
0
TABLE
2
LAYER
70
11
0
LAYER
100
AcDbSymbolTableRecord
100
AcDbLayerTableRecord
2
FRAME
70
0
62
3
420
1276501
6
CONTINUOUS
370
35
0
LAYER
100
AcDbSymbolTableRecord
100
AcDbLayerTableRecord
2
NODES
70
0
62
5
420
2450411
6
CONTINUOUS
370
35
0
LAYER
100
AcDbSymbolTableRecord
100
AcDbLayerTableRecord
2
NODE_TEXT
70
0
62
7
420
1120295
6
CONTINUOUS
370
18
0
LAYER
100
AcDbSymbolTableRecord
100
AcDbLayerTableRecord
2
NODE_CAPTION
70
0
62
8
420
6583435
6
CONTINUOUS
370
13
0
LAYER
100
AcDbSymbolTableRecord
100
AcDbLayerTableRecord
2
ROUTE_TEXT
70
0
62
7
420
1120295
6
CONTINUOUS
370
18
0
LAYER
100
AcDbSymbolTableRecord
100
AcDbLayerTableRecord
2
TITLE
70
0
62
7
420
1120295
6
CONTINUOUS
370
18
0
LAYER
100
AcDbSymbolTableRecord
100
AcDbLayerTableRecord
2
NOTES
70
0
62
8
420
3359061
6
CONTINUOUS
370
18
0
LAYER
100
AcDbSymbolTableRecord
100
AcDbLayerTableRecord
2
REVIEW
70
0
62
1
420
15680580
6
CONTINUOUS
370
25
0
LAYER
100
AcDbSymbolTableRecord
100
AcDbLayerTableRecord
2
DUCT_4W_7_3_5
70
0
62
7
420
2278750
6
CONTINUOUS
370
35
0
LAYER
100
AcDbSymbolTableRecord
100
AcDbLayerTableRecord
2
DUCT_12W_12_8
70
0
62
7
420
16096779
6
CONTINUOUS
370
35
0
LAYER
100
AcDbSymbolTableRecord
100
AcDbLayerTableRecord
2
FO_24C
70
0
62
7
420
15485081
6
CONTINUOUS
370
35
0
ENDTAB
0
TABLE
2
STYLE
70
1
0
STYLE
100
AcDbSymbolTableRecord
100
AcDbTextStyleTableRecord
2
OPTIMUM_AR
70
0
40
0
41
1
50
0
71
0
42
2.5
3
Arial.ttf
4

0
ENDTAB
0
TABLE
2
BLOCK_RECORD
70
2
0
BLOCK_RECORD
100
AcDbSymbolTableRecord
100
AcDbBlockTableRecord
2
*MODEL_SPACE
70
0
0
BLOCK_RECORD
100
AcDbSymbolTableRecord
100
AcDbBlockTableRecord
2
*PAPER_SPACE
70
0
0
ENDTAB
0
ENDSEC
0
SECTION
2
BLOCKS
0
BLOCK
100
AcDbEntity
8
0
100
AcDbBlockBegin
2
*MODEL_SPACE
70
0
10
0
20
0
30
0
3
*MODEL_SPACE
1

0
ENDBLK
100
AcDbEntity
8
0
100
AcDbBlockEnd
0
BLOCK
100
AcDbEntity
8
0
100
AcDbBlockBegin
2
*PAPER_SPACE
70
0
10
0
20
0
30
0
3
*PAPER_SPACE
1

0
ENDBLK
100
AcDbEntity
8
0
100
AcDbBlockEnd
0
ENDSEC
0
SECTION
2
ENTITIES
0
LWPOLYLINE
100
AcDbEntity
8
FRAME
100
AcDbPolyline
90
4
70
1
10
7
20
7
10
413
20
7
10
413
20
290
10
7
20
290
0
LWPOLYLINE
100
AcDbEntity
8
FRAME
100
AcDbPolyline
90
4
70
1
10
8.5
20
8.5
10
411.5
20
8.5
10
411.5
20
288.5
10
8.5
20
288.5
0
LWPOLYLINE
100
AcDbEntity
8
DUCT_4W_7_3_5
100
AcDbPolyline
90
3
70
0
10
76.02
20
176.4125
10
90.4838
20
176.4125
10
90.4838
20
169.4139
0
MTEXT
100
AcDbEntity
8
ROUTE_TEXT
100
AcDbMText
10
86.7512
20
182.97
30
0
40
1.5
41
44
50
0
71
2
72
1
7
OPTIMUM_AR
210
0
220
0
230
1
1
MAIN-01
0
MTEXT
100
AcDbEntity
8
ROUTE_TEXT
100
AcDbMText
10
86.7512
20
180.645
30
0
40
1.17
41
48
50
0
71
2
72
1
7
OPTIMUM_AR
210
0
220
0
230
1
1
4W | 7/3.5 | FO-24C | 24C | 89.98m
0
LWPOLYLINE
100
AcDbEntity
8
DUCT_4W_7_3_5
100
AcDbPolyline
90
3
70
0
10
101.4176
20
172.3525
10
113.575
20
222.0875
10
126.77
20
222.0875
0
MTEXT
100
AcDbEntity
8
ROUTE_TEXT
100
AcDbMText
10
109.0629
20
210.1863
30
0
40
1.5
41
44
50
0
71
2
72
1
7
OPTIMUM_AR
210
0
220
0
230
1
1
BRANCH-01
0
MTEXT
100
AcDbEntity
8
ROUTE_TEXT
100
AcDbMText
10
109.0629
20
207.8613
30
0
40
1.17
41
48
50
0
71
2
72
1
7
OPTIMUM_AR
210
0
220
0
230
1
1
4W | 7/3.5 | FO-24C | 24C | 111.3m
0
LWPOLYLINE
100
AcDbEntity
8
DUCT_12W_12_8
100
AcDbPolyline
90
3
70
0
10
102.317
20
157.635
10
113.575
20
126.9312
10
126.77
20
126.9312
0
MTEXT
100
AcDbEntity
8
ROUTE_TEXT
100
AcDbMText
10
110.2172
20
142.6464
30
0
40
1.5
41
44
50
0
71
2
72
1
7
OPTIMUM_AR
210
0
220
0
230
1
1
BRANCH-02
0
MTEXT
100
AcDbEntity
8
ROUTE_TEXT
100
AcDbMText
10
110.2172
20
140.3214
30
0
40
1.17
41
48
50
0
71
2
72
1
7
OPTIMUM_AR
210
0
220
0
230
1
1
12W | 12/8 | FO-24C | 24C | 27.24m
0
LWPOLYLINE
100
AcDbEntity
8
DUCT_4W_7_3_5
100
AcDbPolyline
90
3
70
0
10
186.0347
20
171.3375
10
193.2525
20
171.3375
10
193.2525
20
176.5343
0
MTEXT
100
AcDbEntity
8
ROUTE_TEXT
100
AcDbMText
10
192.242
20
177.895
30
0
40
1.5
41
44
50
0
71
2
72
1
7
OPTIMUM_AR
210
0
220
0
230
1
1
DISTRIBUTION-LONG-LABEL-FOR-AUTO-SIZE
0
MTEXT
100
AcDbEntity
8
ROUTE_TEXT
100
AcDbMText
10
192.242
20
175.57
30
0
40
1.17
41
48
50
0
71
2
72
1
7
OPTIMUM_AR
210
0
220
0
230
1
1
4W | 7/3.5 | FO-24C | 24C | 54.62m
0
LWPOLYLINE
100
AcDbEntity
8
FO_24C
100
AcDbPolyline
90
3
70
0
10
212.0593
20
194.4287
10
230.3
20
217.0125
10
246.0325
20
217.0125
0
MTEXT
100
AcDbEntity
8
ROUTE_TEXT
100
AcDbMText
10
226.1223
20
218.3976
30
0
40
1.5
41
44
50
0
71
2
72
1
7
OPTIMUM_AR
210
0
220
0
230
1
1
FIBER-01
0
MTEXT
100
AcDbEntity
8
ROUTE_TEXT
100
AcDbMText
10
226.1223
20
216.0726
30
0
40
1.17
41
48
50
0
71
2
72
1
7
OPTIMUM_AR
210
0
220
0
230
1
1
24C | 42.6m
0
LWPOLYLINE
100
AcDbEntity
8
FO_24C
100
AcDbPolyline
90
3
70
0
10
208.8581
20
173.6212
10
230.3
20
130.7375
10
246.0325
20
130.7375
0
MTEXT
100
AcDbEntity
8
ROUTE_TEXT
100
AcDbMText
10
223.097
20
151.7011
30
0
40
1.5
41
44
50
0
71
2
72
1
7
OPTIMUM_AR
210
0
220
0
230
1
1
FIBER-02
0
MTEXT
100
AcDbEntity
8
ROUTE_TEXT
100
AcDbMText
10
223.097
20
149.3761
30
0
40
1.17
41
48
50
0
71
2
72
1
7
OPTIMUM_AR
210
0
220
0
230
1
1
24C | 63.4m
0
LWPOLYLINE
100
AcDbEntity
8
NODES
100
AcDbPolyline
90
4
70
1
10
44.3013
20
173.3675
10
76.2738
20
173.3675
10
76.2738
20
194.6825
10
44.3013
20
194.6825
0
MTEXT
100
AcDbEntity
8
NODE_TEXT
100
AcDbMText
10
60.2875
20
186.625
30
0
40
1.8
41
28.775249999999996
50
0
71
2
72
1
7
OPTIMUM_AR
210
0
220
0
230
1
1
CAB-1
0
MTEXT
100
AcDbEntity
8
NODE_TEXT
100
AcDbMText
10
60.2875
20
183.925
30
0
40
1.25
41
28.775249999999996
50
0
71
2
72
1
7
OPTIMUM_AR
210
0
220
0
230
1
1
NO 01   CORE 288
0
MTEXT
100
AcDbEntity
8
NODE_TEXT
100
AcDbMText
10
60.2875
20
181.225
30
0
40
1.25
41
28.775249999999996
50
0
71
2
72
1
7
OPTIMUM_AR
210
0
220
0
230
1
1
PORT 144   TYPE MAIN-CAB-42U
0
MTEXT
100
AcDbEntity
8
NODE_CAPTION
100
AcDbMText
10
60.2875
20
170.9675
30
0
40
1.1
41
31.972499999999997
50
0
71
2
72
1
7
OPTIMUM_AR
210
0
220
0
230
1
1
42U Main Cabinet
0
LWPOLYLINE
100
AcDbEntity
8
NODES
100
AcDbPolyline
90
4
70
1
10
155.9513
20
150.7837
10
187.9237
20
150.7837
10
187.9237
20
171.5913
10
155.9513
20
171.5913
0
MTEXT
100
AcDbEntity
8
NODE_TEXT
100
AcDbMText
10
171.9375
20
163.7875
30
0
40
1.8
41
28.775249999999996
50
0
71
2
72
1
7
OPTIMUM_AR
210
0
220
0
230
1
1
CAB-2
0
MTEXT
100
AcDbEntity
8
NODE_TEXT
100
AcDbMText
10
171.9375
20
161.0875
30
0
40
1.25
41
28.775249999999996
50
0
71
2
72
1
7
OPTIMUM_AR
210
0
220
0
230
1
1
NO 02   CORE 144
0
MTEXT
100
AcDbEntity
8
NODE_TEXT
100
AcDbMText
10
171.9375
20
158.3875
30
0
40
1.25
41
28.775249999999996
50
0
71
2
72
1
7
OPTIMUM_AR
210
0
220
0
230
1
1
PORT 48   TYPE SUBCAB-22U
0
MTEXT
100
AcDbEntity
8
NODE_CAPTION
100
AcDbMText
10
171.9375
20
148.3837
30
0
40
1.1
41
31.972499999999997
50
0
71
2
72
1
7
OPTIMUM_AR
210
0
220
0
230
1
1
22U Sub Cabinet
0
LWPOLYLINE
100
AcDbEntity
8
NODES
100
AcDbPolyline
90
4
70
1
10
126.77
20
213.46
10
151.13
20
213.46
10
151.13
20
230.715
10
126.77
20
230.715
0
MTEXT
100
AcDbEntity
8
NODE_TEXT
100
AcDbMText
10
138.95
20
224.6875
30
0
40
1.8
41
21.924
50
0
71
2
72
1
7
OPTIMUM_AR
210
0
220
0
230
1
1
TB-1
0
MTEXT
100
AcDbEntity
8
NODE_TEXT
100
AcDbMText
10
138.95
20
221.9875
30
0
40
1.25
41
21.924
50
0
71
2
72
1
7
OPTIMUM_AR
210
0
220
0
230
1
1
NO 1   CORE 96
0
MTEXT
100
AcDbEntity
8
NODE_TEXT
100
AcDbMText
10
138.95
20
219.2875
30
0
40
1.25
41
21.924
50
0
71
2
72
1
7
OPTIMUM_AR
210
0
220
0
230
1
1
PORT 16   TYPE TB-24C
0
MTEXT
100
AcDbEntity
8
NODE_CAPTION
100
AcDbMText
10
138.95
20
211.06
30
0
40
1.1
41
24.36
50
0
71
2
72
1
7
OPTIMUM_AR
210
0
220
0
230
1
1
24-core Termination Box
0
LWPOLYLINE
100
AcDbEntity
8
NODES
100
AcDbPolyline
90
4
70
1
10
126.77
20
118.3037
10
151.13
20
118.3037
10
151.13
20
135.5587
10
126.77
20
135.5587
0
MTEXT
100
AcDbEntity
8
NODE_TEXT
100
AcDbMText
10
138.95
20
129.5312
30
0
40
1.8
41
21.924
50
0
71
2
72
1
7
OPTIMUM_AR
210
0
220
0
230
1
1
TB-2
0
MTEXT
100
AcDbEntity
8
NODE_TEXT
100
AcDbMText
10
138.95
20
126.8312
30
0
40
1.25
41
21.924
50
0
71
2
72
1
7
OPTIMUM_AR
210
0
220
0
230
1
1
NO 2   CORE 96
0
MTEXT
100
AcDbEntity
8
NODE_TEXT
100
AcDbMText
10
138.95
20
124.1312
30
0
40
1.25
41
21.924
50
0
71
2
72
1
7
OPTIMUM_AR
210
0
220
0
230
1
1
PORT 16   TYPE TB-24C
0
MTEXT
100
AcDbEntity
8
NODE_CAPTION
100
AcDbMText
10
138.95
20
115.9037
30
0
40
1.1
41
24.36
50
0
71
2
72
1
7
OPTIMUM_AR
210
0
220
0
230
1
1
24-core Termination Box
0
LWPOLYLINE
100
AcDbEntity
8
NODES
100
AcDbPolyline
90
4
70
1
10
246.0325
20
208.385
10
270.3925
20
208.385
10
270.3925
20
225.64
10
246.0325
20
225.64
0
MTEXT
100
AcDbEntity
8
NODE_TEXT
100
AcDbMText
10
258.2125
20
219.6125
30
0
40
1.8
41
21.924
50
0
71
2
72
1
7
OPTIMUM_AR
210
0
220
0
230
1
1
TB-3
0
MTEXT
100
AcDbEntity
8
NODE_TEXT
100
AcDbMText
10
258.2125
20
216.9125
30
0
40
1.25
41
21.924
50
0
71
2
72
1
7
OPTIMUM_AR
210
0
220
0
230
1
1
NO 3   CORE 96
0
MTEXT
100
AcDbEntity
8
NODE_TEXT
100
AcDbMText
10
258.2125
20
214.2125
30
0
40
1.25
41
21.924
50
0
71
2
72
1
7
OPTIMUM_AR
210
0
220
0
230
1
1
PORT 16   TYPE TB-24C
0
MTEXT
100
AcDbEntity
8
NODE_CAPTION
100
AcDbMText
10
258.2125
20
205.985
30
0
40
1.1
41
24.36
50
0
71
2
72
1
7
OPTIMUM_AR
210
0
220
0
230
1
1
24-core Termination Box
0
LWPOLYLINE
100
AcDbEntity
8
NODES
100
AcDbPolyline
90
4
70
1
10
246.0325
20
122.11
10
270.3925
20
122.11
10
270.3925
20
139.365
10
246.0325
20
139.365
0
MTEXT
100
AcDbEntity
8
NODE_TEXT
100
AcDbMText
10
258.2125
20
133.3375
30
0
40
1.8
41
21.924
50
0
71
2
72
1
7
OPTIMUM_AR
210
0
220
0
230
1
1
TB-4
0
MTEXT
100
AcDbEntity
8
NODE_TEXT
100
AcDbMText
10
258.2125
20
130.6375
30
0
40
1.25
41
21.924
50
0
71
2
72
1
7
OPTIMUM_AR
210
0
220
0
230
1
1
NO 4   CORE 96
0
MTEXT
100
AcDbEntity
8
NODE_TEXT
100
AcDbMText
10
258.2125
20
127.9375
30
0
40
1.25
41
21.924
50
0
71
2
72
1
7
OPTIMUM_AR
210
0
220
0
230
1
1
PORT 16   TYPE TB-24C
0
MTEXT
100
AcDbEntity
8
NODE_CAPTION
100
AcDbMText
10
258.2125
20
119.71
30
0
40
1.1
41
24.36
50
0
71
2
72
1
7
OPTIMUM_AR
210
0
220
0
230
1
1
24-core Termination Box
0
LWPOLYLINE
100
AcDbEntity
8
NODES
100
AcDbPolyline
90
4
70
1
10
87.6925
20
156.62
10
111.545
20
156.62
10
111.545
20
173.3675
10
87.6925
20
173.3675
0
MTEXT
100
AcDbEntity
8
NODE_TEXT
100
AcDbMText
10
99.6188
20
167.5937
30
0
40
1.8
41
21.46725
50
0
71
2
72
1
7
OPTIMUM_AR
210
0
220
0
230
1
1
J-1
0
MTEXT
100
AcDbEntity
8
NODE_TEXT
100
AcDbMText
10
99.6188
20
164.8937
30
0
40
1.25
41
21.46725
50
0
71
2
72
1
7
OPTIMUM_AR
210
0
220
0
230
1
1
NO -   CORE -
0
MTEXT
100
AcDbEntity
8
NODE_TEXT
100
AcDbMText
10
99.6188
20
162.1937
30
0
40
1.25
41
21.46725
50
0
71
2
72
1
7
OPTIMUM_AR
210
0
220
0
230
1
1
PORT -   TYPE JOINT
0
MTEXT
100
AcDbEntity
8
NODE_CAPTION
100
AcDbMText
10
99.6188
20
154.22
30
0
40
1.1
41
23.8525
50
0
71
2
72
1
7
OPTIMUM_AR
210
0
220
0
230
1
1
Fiber Joint
0
LWPOLYLINE
100
AcDbEntity
8
NODES
100
AcDbPolyline
90
4
70
1
10
191.73
20
173.6212
10
215.5825
20
173.6212
10
215.5825
20
194.4287
10
191.73
20
194.4287
0
MTEXT
100
AcDbEntity
8
NODE_TEXT
100
AcDbMText
10
203.6563
20
186.625
30
0
40
1.8
41
21.46725
50
0
71
2
72
1
7
OPTIMUM_AR
210
0
220
0
230
1
1
MH-1
0
MTEXT
100
AcDbEntity
8
NODE_TEXT
100
AcDbMText
10
203.6563
20
183.925
30
0
40
1.25
41
21.46725
50
0
71
2
72
1
7
OPTIMUM_AR
210
0
220
0
230
1
1
NO -   CORE -
0
MTEXT
100
AcDbEntity
8
NODE_TEXT
100
AcDbMText
10
203.6563
20
181.225
30
0
40
1.25
41
21.46725
50
0
71
2
72
1
7
OPTIMUM_AR
210
0
220
0
230
1
1
PORT -   TYPE MH-TEL
0
MTEXT
100
AcDbEntity
8
NODE_CAPTION
100
AcDbMText
10
203.6563
20
171.2212
30
0
40
1.1
41
23.8525
50
0
71
2
72
1
7
OPTIMUM_AR
210
0
220
0
230
1
1
Telecom Manhole
0
LWPOLYLINE
100
AcDbEntity
8
FRAME
100
AcDbPolyline
90
4
70
1
10
423
20
7
10
498
20
7
10
498
20
290
10
423
20
290
0
MTEXT
100
AcDbEntity
8
TITLE
100
AcDbMText
10
426
20
282
30
0
40
3.2
41
72
50
0
71
1
72
1
7
OPTIMUM_AR
210
0
220
0
230
1
1
N
0
MTEXT
100
AcDbEntity
8
TITLE
100
AcDbMText
10
436
20
282
30
0
40
3
41
72
50
0
71
1
72
1
7
OPTIMUM_AR
210
0
220
0
230
1
1
LEGEND / \U+0627\U+0644\U+0631\U+0645\U+0648\U+0632
0
LINE
100
AcDbEntity
8
FRAME
100
AcDbLine
10
426
20
270
30
0
11
436
21
270
31
0
0
MTEXT
100
AcDbEntity
8
TITLE
100
AcDbMText
10
439
20
269
30
0
40
1.55
41
52
50
0
71
1
72
1
7
OPTIMUM_AR
210
0
220
0
230
1
1
4-way 7/3.5 Microduct
0
LINE
100
AcDbEntity
8
FRAME
100
AcDbLine
10
426
20
263
30
0
11
436
21
263
31
0
0
MTEXT
100
AcDbEntity
8
TITLE
100
AcDbMText
10
439
20
262
30
0
40
1.55
41
52
50
0
71
1
72
1
7
OPTIMUM_AR
210
0
220
0
230
1
1
12-way 12/8 Microduct
0
LINE
100
AcDbEntity
8
FRAME
100
AcDbLine
10
426
20
256
30
0
11
436
21
256
31
0
0
MTEXT
100
AcDbEntity
8
TITLE
100
AcDbMText
10
439
20
255
30
0
40
1.55
41
52
50
0
71
1
72
1
7
OPTIMUM_AR
210
0
220
0
230
1
1
24-core Fiber Cable
0
LINE
100
AcDbEntity
8
FRAME
100
AcDbLine
10
423
20
199
30
0
11
498
21
199
31
0
0
MTEXT
100
AcDbEntity
8
TITLE
100
AcDbMText
10
426
20
196.3
30
0
40
1.2
41
72
50
0
71
1
72
1
7
OPTIMUM_AR
210
0
220
0
230
1
1
PROJECT
0
MTEXT
100
AcDbEntity
8
TITLE
100
AcDbMText
10
426
20
193
30
0
40
1.75
41
60
50
0
71
1
72
1
7
OPTIMUM_AR
210
0
220
0
230
1
1
First Fiber Optical
0
LINE
100
AcDbEntity
8
FRAME
100
AcDbLine
10
423
20
186
30
0
11
498
21
186
31
0
0
MTEXT
100
AcDbEntity
8
TITLE
100
AcDbMText
10
426
20
183.3
30
0
40
1.2
41
72
50
0
71
1
72
1
7
OPTIMUM_AR
210
0
220
0
230
1
1
SITE
0
MTEXT
100
AcDbEntity
8
TITLE
100
AcDbMText
10
426
20
180
30
0
40
1.75
41
60
50
0
71
1
72
1
7
OPTIMUM_AR
210
0
220
0
230
1
1
Test Site
0
LINE
100
AcDbEntity
8
FRAME
100
AcDbLine
10
423
20
173
30
0
11
498
21
173
31
0
0
MTEXT
100
AcDbEntity
8
TITLE
100
AcDbMText
10
426
20
170.3
30
0
40
1.2
41
72
50
0
71
1
72
1
7
OPTIMUM_AR
210
0
220
0
230
1
1
DRAWING NO.
0
MTEXT
100
AcDbEntity
8
TITLE
100
AcDbMText
10
426
20
167
30
0
40
1.75
41
60
50
0
71
1
72
1
7
OPTIMUM_AR
210
0
220
0
230
1
1
P001-CAD-TEST
0
LINE
100
AcDbEntity
8
FRAME
100
AcDbLine
10
423
20
160
30
0
11
498
21
160
31
0
0
MTEXT
100
AcDbEntity
8
TITLE
100
AcDbMText
10
426
20
157.3
30
0
40
1.2
41
72
50
0
71
1
72
1
7
OPTIMUM_AR
210
0
220
0
230
1
1
TITLE
0
MTEXT
100
AcDbEntity
8
TITLE
100
AcDbMText
10
426
20
154
30
0
40
1.75
41
60
50
0
71
1
72
1
7
OPTIMUM_AR
210
0
220
0
230
1
1
Secondary Fiber Network
0
LINE
100
AcDbEntity
8
FRAME
100
AcDbLine
10
423
20
147
30
0
11
498
21
147
31
0
0
MTEXT
100
AcDbEntity
8
TITLE
100
AcDbMText
10
426
20
144.3
30
0
40
1.2
41
72
50
0
71
1
72
1
7
OPTIMUM_AR
210
0
220
0
230
1
1
CLIENT
0
MTEXT
100
AcDbEntity
8
TITLE
100
AcDbMText
10
426
20
141
30
0
40
1.75
41
60
50
0
71
1
72
1
7
OPTIMUM_AR
210
0
220
0
230
1
1
Optimum Client
0
LINE
100
AcDbEntity
8
FRAME
100
AcDbLine
10
423
20
134
30
0
11
498
21
134
31
0
0
MTEXT
100
AcDbEntity
8
TITLE
100
AcDbMText
10
426
20
131.3
30
0
40
1.2
41
72
50
0
71
1
72
1
7
OPTIMUM_AR
210
0
220
0
230
1
1
CONSULTANT
0
MTEXT
100
AcDbEntity
8
TITLE
100
AcDbMText
10
426
20
128
30
0
40
1.75
41
60
50
0
71
1
72
1
7
OPTIMUM_AR
210
0
220
0
230
1
1
Optimum Consultant
0
LINE
100
AcDbEntity
8
FRAME
100
AcDbLine
10
423
20
121
30
0
11
498
21
121
31
0
0
MTEXT
100
AcDbEntity
8
TITLE
100
AcDbMText
10
426
20
118.3
30
0
40
1.2
41
72
50
0
71
1
72
1
7
OPTIMUM_AR
210
0
220
0
230
1
1
COMPANY
0
MTEXT
100
AcDbEntity
8
TITLE
100
AcDbMText
10
426
20
115
30
0
40
1.75
41
60
50
0
71
1
72
1
7
OPTIMUM_AR
210
0
220
0
230
1
1
Optimum Management
0
LINE
100
AcDbEntity
8
FRAME
100
AcDbLine
10
423
20
108
30
0
11
498
21
108
31
0
0
MTEXT
100
AcDbEntity
8
TITLE
100
AcDbMText
10
426
20
105.3
30
0
40
1.2
41
72
50
0
71
1
72
1
7
OPTIMUM_AR
210
0
220
0
230
1
1
REVISION
0
MTEXT
100
AcDbEntity
8
TITLE
100
AcDbMText
10
426
20
102
30
0
40
1.75
41
60
50
0
71
1
72
1
7
OPTIMUM_AR
210
0
220
0
230
1
1
R1
0
LINE
100
AcDbEntity
8
FRAME
100
AcDbLine
10
423
20
95
30
0
11
498
21
95
31
0
0
MTEXT
100
AcDbEntity
8
TITLE
100
AcDbMText
10
426
20
92.3
30
0
40
1.2
41
72
50
0
71
1
72
1
7
OPTIMUM_AR
210
0
220
0
230
1
1
STATUS
0
MTEXT
100
AcDbEntity
8
TITLE
100
AcDbMText
10
426
20
89
30
0
40
1.75
41
60
50
0
71
1
72
1
7
OPTIMUM_AR
210
0
220
0
230
1
1
DRAFT
0
LINE
100
AcDbEntity
8
FRAME
100
AcDbLine
10
423
20
82
30
0
11
498
21
82
31
0
0
MTEXT
100
AcDbEntity
8
TITLE
100
AcDbMText
10
426
20
79.3
30
0
40
1.2
41
72
50
0
71
1
72
1
7
OPTIMUM_AR
210
0
220
0
230
1
1
SCALE
0
MTEXT
100
AcDbEntity
8
TITLE
100
AcDbMText
10
426
20
76
30
0
40
1.75
41
60
50
0
71
1
72
1
7
OPTIMUM_AR
210
0
220
0
230
1
1
NTS
0
LINE
100
AcDbEntity
8
FRAME
100
AcDbLine
10
423
20
69
30
0
11
498
21
69
31
0
0
MTEXT
100
AcDbEntity
8
TITLE
100
AcDbMText
10
426
20
66.3
30
0
40
1.2
41
72
50
0
71
1
72
1
7
OPTIMUM_AR
210
0
220
0
230
1
1
DATE
0
MTEXT
100
AcDbEntity
8
TITLE
100
AcDbMText
10
426
20
63
30
0
40
1.75
41
60
50
0
71
1
72
1
7
OPTIMUM_AR
210
0
220
0
230
1
1
2026-08-05
0
ENDSEC
0
EOF
