<svg xmlns="http://www.w3.org/2000/svg" viewBox="0 0 1600 1000" width="1600" height="1000" class="engineering-svg"><style>.engineering-svg{font-family:Arial,'Segoe UI',sans-serif;background:#fff;color:#0f172a}.eng-node-title{font-size:13px;font-weight:800;fill:#0f172a;pointer-events:none}.eng-node-sub{font-size:9.5px;font-weight:600;fill:#475569}.eng-route-label{font-size:10.5px;font-weight:650;fill:#334155;pointer-events:none}.eng-route-title{font-size:11.5px;font-weight:800;fill:#0f172a}.eng-annotation{font-weight:600;fill:#0f172a}.eng-sheet-heading{font-size:17px;font-weight:800;fill:#0f172a}.eng-legend-text{font-size:12px;fill:#334155}.eng-title-main{font-size:22px;font-weight:800;fill:#0f172a}.eng-title-sub{font-size:13px;fill:#475569}.eng-title-label{font-size:11px;fill:#64748b}.eng-title-value{font-size:20px;font-weight:800;fill:#0f172a}.eng-review-mark circle{fill:#fee2e2;stroke:#dc2626;stroke-width:3}.eng-review-mark text{font-size:13px;font-weight:800;fill:#991b1b}.eng-node-ports circle{fill:#fff;stroke:#4f46e5;stroke-width:2}.eng-route-handle{cursor:move}.eng-issue-pin circle{fill:#fee2e2;stroke:#dc2626;stroke-width:2}.eng-issue-pin text{font-size:12px;font-weight:900;fill:#991b1b}</style><rect width="1600" height="1000" fill="#fff"/><rect x="10" y="10" width="1580" height="980" fill="none" stroke="#0f172a" stroke-width="3"/><defs><pattern id="eng-grid" width="20" height="20" patternUnits="userSpaceOnUse"><path d="M 20 0 L 0 0 0 20" fill="none" stroke="#dbe3ec" stroke-width=".7" opacity=".55"/></pattern></defs><rect x="20" y="20" width="1325" height="828" fill="url(#eng-grid)"/><g id="engineering-entities"><g class="eng-route   " data-eng-route="r-main"><polyline class="eng-route-hit" points="275,360 555,360" fill="none" stroke="transparent" stroke-width="22"/><polyline class="eng-route-line" points="275,360 555,360" fill="none" stroke="#16a34a" stroke-width="4" stroke-linecap="round" stroke-linejoin="round" /><g class="eng-route-label-group" data-eng-route-label="r-main" transform="translate(415 346)"><rect x="-120.5" y="-27" width="241" height="54" rx="8" fill="#fff" fill-opacity=".94" stroke="#94a3b8" stroke-opacity=".55"/><text text-anchor="middle" class="eng-route-label"><tspan x="0" y="-10" class="eng-route-title">MAIN 4W DUCT</tspan><tspan x="0" dy="15">Main · Underground · 4W · 24C</tspan><tspan x="0" dy="14">FO-24C · 42 m · CAB-M01 → MH-01</tspan></text></g></g><g class="eng-route  selected " data-eng-route="r-sec-1"><polyline class="eng-route-hit" points="645,320.625 760,220 935,220" fill="none" stroke="transparent" stroke-width="22"/><polyline class="eng-route-line" points="645,320.625 760,220 935,220" fill="none" stroke="#16a34a" stroke-width="6" stroke-linecap="round" stroke-linejoin="round" /><g class="eng-route-label-group" data-eng-route-label="r-sec-1" transform="translate(771.0958269709697 206)"><rect x="-130" y="-27" width="260" height="54" rx="8" fill="#fff" fill-opacity=".94" stroke="#94a3b8" stroke-opacity=".55"/><text text-anchor="middle" class="eng-route-label"><tspan x="0" y="-10" class="eng-route-title">SECONDARY-01</tspan><tspan x="0" dy="15">Secondary · Underground · 4W · 24C</tspan><tspan x="0" dy="14">FO-24C · 55 m · MH-01 → TB-01</tspan></text></g><circle data-eng-route-point="r-sec-1" data-index="0" cx="645" cy="320.625" r="7" fill="#fff" stroke="#4f46e5" stroke-width="3" class="eng-route-handle"/><circle data-eng-route-point="r-sec-1" data-index="1" cx="760" cy="220" r="7" fill="#fff" stroke="#4f46e5" stroke-width="3" class="eng-route-handle"/><circle data-eng-route-point="r-sec-1" data-index="2" cx="935" cy="220" r="7" fill="#fff" stroke="#4f46e5" stroke-width="3" class="eng-route-handle"/></g><g class="eng-route   " data-eng-route="r-sec-2"><polyline class="eng-route-hit" points="645,402.1875 760,510 935,510" fill="none" stroke="transparent" stroke-width="22"/><polyline class="eng-route-line" points="645,402.1875 760,510 935,510" fill="none" stroke="#16a34a" stroke-width="4" stroke-linecap="round" stroke-linejoin="round" /><g class="eng-route-label-group" data-eng-route-label="r-sec-2" transform="translate(768.682909283186 496)"><rect x="-130" y="-27" width="260" height="54" rx="8" fill="#fff" fill-opacity=".94" stroke="#94a3b8" stroke-opacity=".55"/><text text-anchor="middle" class="eng-route-label"><tspan x="0" y="-10" class="eng-route-title">SECONDARY-02</tspan><tspan x="0" dy="15">Secondary · Underground · 4W · 24C</tspan><tspan x="0" dy="14">FO-24C · 61 m · MH-01 → TB-02</tspan></text></g></g><g class="eng-node   " data-eng-node="cab-main" transform="translate(210 360) rotate(0)"><rect x="-65" y="-45" width="130" height="90" rx="7" fill="#fff" stroke="#2563eb" stroke-width="3" /><line x1="-65" y1="-29" x2="65" y2="-29" stroke="#2563eb" stroke-width="1.5"/><circle cx="-53" cy="-33" r="5" fill="#2563eb"/><text y="-12" text-anchor="middle" class="eng-node-title"><tspan x="0">CAB-M01</tspan><tspan x="0" dy="16" class="eng-node-sub">Main · 144C</tspan><tspan x="0" dy="14" class="eng-node-sub">ODF-144</tspan></text></g><g class="eng-node   " data-eng-node="mh-01" transform="translate(600 360) rotate(0)"><circle r="37.8" fill="#fff" stroke="#2563eb" stroke-width="3" /><circle r="29.799999999999997" fill="none" stroke="#2563eb" stroke-width="1.5"/><circle cx="-33" cy="-33" r="5" fill="#2563eb"/><text y="-5" text-anchor="middle" class="eng-node-title"><tspan x="0">MH-01</tspan><tspan x="0" dy="16" class="eng-node-sub">Distribution · 96C</tspan></text></g><g class="eng-node   " data-eng-node="tb-01" transform="translate(980 220) rotate(0)"><rect x="-45" y="-32" width="90" height="64" rx="8" fill="#fff" stroke="#2563eb" stroke-width="3" /><circle cx="-33" cy="-20" r="5" fill="#2563eb"/><text y="-12" text-anchor="middle" class="eng-node-title"><tspan x="0">TB-01</tspan><tspan x="0" dy="16" class="eng-node-sub">Terminal · No. 01 · 24C</tspan><tspan x="0" dy="14" class="eng-node-sub">SP-1X16 · Core 1-24</tspan></text></g><g class="eng-node   " data-eng-node="tb-02" transform="translate(980 510) rotate(0)"><rect x="-45" y="-32" width="90" height="64" rx="8" fill="#fff" stroke="#2563eb" stroke-width="3" /><circle cx="-33" cy="-20" r="5" fill="#2563eb"/><text y="-12" text-anchor="middle" class="eng-node-title"><tspan x="0">TB-02</tspan><tspan x="0" dy="16" class="eng-node-sub">Terminal · No. 02 · 24C</tspan><tspan x="0" dy="14" class="eng-node-sub">SP-1X16 · Core 25-48</tspan></text></g><text data-eng-text="note-1" x="175" y="120" font-size="24" transform="rotate(0 175 120)" text-anchor="start" class="eng-annotation ">OPTIMUM FIBER NETWORK — DIGITAL SCHEMATIC</text></g><g class="eng-legend"><rect x="1365" y="20" width="215" height="828" fill="#fff" stroke="#64748b"/><text x="1383" y="50" class="eng-sheet-heading">LEGEND / الرموز</text><g transform="translate(1383 78)"><line x1="0" y1="0" x2="30" y2="0" stroke="#2563eb" stroke-width="4"/><text x="40" y="5" class="eng-legend-text">22U Sub Cabinet</text></g><g transform="translate(1383 112)"><line x1="0" y1="0" x2="30" y2="0" stroke="#2563eb" stroke-width="4"/><text x="40" y="5" class="eng-legend-text">Telecom Manhole</text></g><g transform="translate(1383 146)"><line x1="0" y1="0" x2="30" y2="0" stroke="#2563eb" stroke-width="4"/><text x="40" y="5" class="eng-legend-text">24-core Termination Box</text></g><g transform="translate(1383 180)"><line x1="0" y1="0" x2="30" y2="0" stroke="#16a34a" stroke-width="4"/><text x="40" y="5" class="eng-legend-text">4-way Microduct 7/3.5</text></g></g><g class="eng-title-block"><rect x="20" y="868" width="1560" height="112" fill="#fff" stroke="#334155" stroke-width="2"/><line x1="896.0000000000001" y1="868" x2="896.0000000000001" y2="980" stroke="#64748b"/><line x1="1248" y1="868" x2="1248" y2="980" stroke="#64748b"/><text x="40" y="905" class="eng-title-main">Secondary Fiber Network</text><text x="40" y="937" class="eng-title-sub">First Fiber Optical · Site A</text><text x="40" y="967" class="eng-title-sub">Optimum Engineering</text><text x="927.9999999999999" y="902" class="eng-title-label">DRAWING NO.</text><text x="927.9999999999999" y="938" class="eng-title-value">P001-FIBER-SLD-001</text><text x="927.9999999999999" y="971" class="eng-title-sub">Scale: NTS</text><text x="1280" y="902" class="eng-title-label">REVISION</text><text x="1280" y="938" class="eng-title-value">R1</text><text x="1280" y="971" class="eng-title-sub">DRAFT</text></g></svg>