<svg xmlns="http://www.w3.org/2000/svg" viewBox="0 0 1600 1000" width="1600" height="1000" class="engineering-svg"><style>.engineering-svg{font-family:Arial,'Segoe UI',sans-serif;background:#fff;color:#0f172a}.eng-node-title{font-size:13px;font-weight:800;fill:#0f172a;pointer-events:none;unicode-bidi:plaintext}.eng-node-sub{font-size:9.5px;font-weight:600;fill:#475569}.eng-route-label-box rect{fill:#fff;stroke:#cbd5e1;stroke-width:1.2;opacity:.96}.eng-route-label-box text{font-size:9.5px;font-weight:650;fill:#334155;pointer-events:none;unicode-bidi:plaintext}.eng-route-title{font-size:11px;font-weight:800;fill:#0f172a}.eng-annotation{font-weight:600;fill:#0f172a;unicode-bidi:plaintext}.eng-sheet-heading{font-size:18px;font-weight:800;fill:#0f172a}.eng-legend-text{font-size:11px;fill:#334155;unicode-bidi:plaintext}.eng-title-label{font-size:9px;font-weight:700;fill:#64748b}.eng-title-value-small{font-size:12px;font-weight:800;fill:#0f172a;unicode-bidi:plaintext}.eng-title-sub{font-size:10px;fill:#475569}.eng-review-mark circle{fill:#fee2e2;stroke:#dc2626;stroke-width:3}.eng-review-mark text{font-size:13px;font-weight:800;fill:#991b1b}.eng-node-ports circle{fill:#fff;stroke:#4f46e5;stroke-width:2}.eng-route-handle{cursor:move;fill:#fff;stroke:#4f46e5;stroke-width:2}.eng-issue-pin circle{fill:#fee2e2;stroke:#dc2626;stroke-width:2}.eng-issue-pin text{font-size:12px;font-weight:900;fill:#991b1b}.eng-note-pin circle{fill:#fef3c7;stroke:#d97706}.eng-note-pin text{font-size:9px;font-weight:900}</style><rect width="1600" height="1000" fill="#fff"/><defs><pattern id="eng-grid" width="20" height="20" patternUnits="userSpaceOnUse"><path d="M 20 0 L 0 0 0 20" fill="none" stroke="#d9e2e9" stroke-width=".7" opacity=".65"/></pattern><filter id="eng-shadow"><feDropShadow dx="0" dy="2" stdDeviation="2" flood-opacity=".16"/></filter></defs><rect x="25" y="25" width="1280" height="950" fill="url(#eng-grid)"/><clipPath id="drawing-clip"><rect x="25" y="25" width="1280" height="950"/></clipPath><g id="engineering-entities" clip-path="url(#drawing-clip)"><g class="eng-route   " data-eng-route="r1"><polyline points="236,470 439,470 439,470" fill="none" stroke="#713F12" stroke-width="4.5" stroke-linejoin="round" stroke-linecap="round" /><g data-eng-route-label="r1" transform="translate(337.5 453)" class="eng-route-label-box"><rect x="-88" y="-28" width="176" height="54" rx="7"/><text text-anchor="middle"><tspan x="0" y="-10" class="eng-route-title">المسار الرئيسي HDPE</tspan><tspan x="0" dy="17">رئيسي · أرضي · 1W · 63 mm · FO-24C · 24C</tspan><tspan x="0" dy="15">42 m · MC-01 → HH-01 · يشمل أعمال الحفر والردم وإعادة الشيء لأصله</tspan></text></g></g><g class="eng-route   " data-eng-route="r2"><polyline points="521,470 650,470 650,320 744,320" fill="none" stroke="#EA580C" stroke-width="4.5" stroke-linejoin="round" stroke-linecap="round" /><g data-eng-route-label="r2" transform="translate(650 395.5)" class="eng-route-label-box"><rect x="-88" y="-28" width="176" height="54" rx="7"/><text text-anchor="middle"><tspan x="0" y="-10" class="eng-route-title">ميكرو دكت توزيع 12 مسار</tspan><tspan x="0" dy="17">توزيع · أرضي · 12W · 7/3.5 · FO-24C · 24C</tspan><tspan x="0" dy="15">58 m · HH-01 → FDT-01</tspan></text></g></g><g class="eng-route   " data-eng-route="r3"><polyline points="836,320 930,320 930,250 1036,250" fill="none" stroke="#65A30D" stroke-width="4.5" stroke-linejoin="round" stroke-linecap="round" /><g data-eng-route-label="r3" transform="translate(930 262)" class="eng-route-label-box"><rect x="-88" y="-28" width="176" height="54" rx="7"/><text text-anchor="middle"><tspan x="0" y="-10" class="eng-route-title">كابل فايبر هوائي 12 كور</tspan><tspan x="0" dy="17">ثانوي · هوائي · 12C</tspan><tspan x="0" dy="15">36 m · FDT-01 → FAT-01</tspan></text></g></g><g class="eng-route   " data-eng-route="r4"><polyline points="836,320 860,320 860,590 1039,590" fill="none" stroke="#DB2777" stroke-width="4.5" stroke-linejoin="round" stroke-linecap="round" /><g data-eng-route-label="r4" transform="translate(860 515.5)" class="eng-route-label-box"><rect x="-88" y="-28" width="176" height="54" rx="7"/><text text-anchor="middle"><tspan x="0" y="-10" class="eng-route-title">كابل داخلي 4 كور</tspan><tspan x="0" dy="17">توصيلة · داخلي · 4C</tspan><tspan x="0" dy="15">31 m · FDT-01 → ODB-01</tspan></text></g></g><g class="eng-node   " data-eng-node="cab" transform="translate(180 470) rotate(0)" filter="url(#eng-shadow)"><rect x="-56" y="-41" width="112" height="82" rx="7" fill="#fff" stroke="#0F766E" stroke-width="3" /><circle cx="-45" cy="-30" r="5" fill="#0F766E"/><text y="-12" text-anchor="middle" class="eng-node-title"><tspan x="0">MC-01</tspan><tspan x="0" dy="16" class="eng-node-sub">رئيسي · رقم MC-01 · 144C</tspan><tspan x="0" dy="14" class="eng-node-sub">ODF-144 · كور 1-144 · MDF-01</tspan></text><g class="eng-note-pin" transform="translate(50 35)"><circle r="9"/><text y="3.5" text-anchor="middle">N</text></g></g><g class="eng-node   " data-eng-node="hh" transform="translate(480 470) rotate(0)" filter="url(#eng-shadow)"><rect x="-41" y="-41" width="82" height="82" rx="14" fill="#fff" stroke="#92400E" stroke-width="3" /><circle cx="-30" cy="-30" r="5" fill="#92400E"/><text y="-5" text-anchor="middle" class="eng-node-title"><tspan x="0">HH-01</tspan><tspan x="0" dy="16" class="eng-node-sub">رئيسي · رقم HH-01 · 144C</tspan></text><g class="eng-note-pin" transform="translate(35 35)"><circle r="9"/><text y="3.5" text-anchor="middle">N</text></g></g><g class="eng-node   " data-eng-node="fdt" transform="translate(790 320) rotate(0)" filter="url(#eng-shadow)"><rect x="-46" y="-33" width="92" height="66" rx="14" fill="#fff" stroke="#7C3AED" stroke-width="3" /><circle cx="-35" cy="-22" r="5" fill="#7C3AED"/><text y="-12" text-anchor="middle" class="eng-node-title"><tspan x="0">FDT-01</tspan><tspan x="0" dy="16" class="eng-node-sub">توزيع · رقم FDT-01 · 48C</tspan><tspan x="0" dy="14" class="eng-node-sub">SP-1X8 · كور 1-48 · BLD-A</tspan></text></g><g class="eng-node   " data-eng-node="fat" transform="translate(1080 250) rotate(0)" filter="url(#eng-shadow)"><rect x="-44" y="-32" width="88" height="64" rx="14" fill="#fff" stroke="#DB2777" stroke-width="3" /><circle cx="-33" cy="-21" r="5" fill="#DB2777"/><text y="-12" text-anchor="middle" class="eng-node-title"><tspan x="0">FAT-01</tspan><tspan x="0" dy="16" class="eng-node-sub">نهائي · رقم FAT-01 · 16C</tspan><tspan x="0" dy="14" class="eng-node-sub">SP-1X8 · كور 1-16 · FL-02</tspan></text></g><g class="eng-node   " data-eng-node="odb" transform="translate(1080 590) rotate(0)" filter="url(#eng-shadow)"><rect x="-41" y="-30" width="82" height="60" rx="14" fill="#fff" stroke="#DC2626" stroke-width="3" /><circle cx="-30" cy="-19" r="5" fill="#DC2626"/><text y="-12" text-anchor="middle" class="eng-node-title"><tspan x="0">ODB-01</tspan><tspan x="0" dy="16" class="eng-node-sub">نهائي · رقم ODB-01 · 8C</tspan><tspan x="0" dy="14" class="eng-node-sub">كور 17-24 · FL-01</tspan></text></g><text data-eng-text="note1" x="160" y="155" font-size="24" transform="rotate(0 160 155)" text-anchor="start" class="eng-annotation ">مخطط شبكة الفايبر — منطقة A</text></g><g class="eng-company-frame"><rect x="18" y="18" width="1564" height="964" fill="none" stroke="#137A55" stroke-width="4"/><rect x="25" y="25" width="1550" height="950" fill="none" stroke="#137A55" stroke-width="1.5"/><line x1="1312" y1="25" x2="1312" y2="975" stroke="#137A55" stroke-width="2.5"/><text x="1328" y="46" class="eng-sheet-heading">LEGEND / الرموز</text><g transform="translate(1328 70)"><line x1="0" y1="0" x2="30" y2="0" stroke="#713F12" stroke-width="5"/><text x="40" y="5" class="eng-legend-text">ماسورة HDPE قطر 63 مم</text></g><g transform="translate(1328 101)"><line x1="0" y1="0" x2="30" y2="0" stroke="#EA580C" stroke-width="5"/><text x="40" y="5" class="eng-legend-text">ميكرو دكت 12 مسار 7/3.5</text></g><g transform="translate(1328 132)"><line x1="0" y1="0" x2="30" y2="0" stroke="#65A30D" stroke-width="5"/><text x="40" y="5" class="eng-legend-text">كابل فايبر 12 كور</text></g><g transform="translate(1328 163)"><line x1="0" y1="0" x2="30" y2="0" stroke="#DB2777" stroke-width="5"/><text x="40" y="5" class="eng-legend-text">كابل فايبر 4 كور</text></g><g transform="translate(1328 194)"><line x1="0" y1="0" x2="30" y2="0" stroke="#0F766E" stroke-width="5"/><text x="40" y="5" class="eng-legend-text">كابينة رئيسية 42U</text></g><g transform="translate(1328 225)"><line x1="0" y1="0" x2="30" y2="0" stroke="#92400E" stroke-width="5"/><text x="40" y="5" class="eng-legend-text">هاند هول 60×60</text></g><g transform="translate(1328 256)"><line x1="0" y1="0" x2="30" y2="0" stroke="#7C3AED" stroke-width="5"/><text x="40" y="5" class="eng-legend-text">نقطة توزيع FDT سعة 48</text></g><g transform="translate(1328 287)"><line x1="0" y1="0" x2="30" y2="0" stroke="#DB2777" stroke-width="5"/><text x="40" y="5" class="eng-legend-text">بوكس توزيع FAT سعة 16</text></g><g transform="translate(1328 318)"><line x1="0" y1="0" x2="30" y2="0" stroke="#DC2626" stroke-width="5"/><text x="40" y="5" class="eng-legend-text">بوكس ODB سعة 8</text></g><line x1="1312" y1="690" x2="1575" y2="690" stroke="#137A55" stroke-width="2"/><g transform="translate(1326 708)"><text class="eng-title-label">المشروع</text><text y="17" class="eng-title-value-small">Optimum Fiber Project</text></g><g transform="translate(1326 739)"><text class="eng-title-label">الموقع</text><text y="17" class="eng-title-value-small">Zone A</text></g><g transform="translate(1326 770)"><text class="eng-title-label">رقم الرسم</text><text y="17" class="eng-title-value-small">P001-FO-001</text></g><g transform="translate(1326 801)"><text class="eng-title-label">العنوان</text><text y="17" class="eng-title-value-small">Fiber Optic Distribution Network</text></g><g transform="translate(1326 832)"><text class="eng-title-label">المراجعة</text><text y="17" class="eng-title-value-small">R0</text></g><g transform="translate(1326 863)"><text class="eng-title-label">الحالة</text><text y="17" class="eng-title-value-small">FOR CONSTRUCTION</text></g><g transform="translate(1326 894)"><text class="eng-title-label">المقياس</text><text y="17" class="eng-title-value-small">NTS</text></g><g transform="translate(1326 925)"><text class="eng-title-label">الشركة</text><text y="17" class="eng-title-value-small">Optimum Engineering</text></g><line x1="1312" y1="934" x2="1575" y2="934" stroke="#137A55"/><text x="1326" y="958" class="eng-title-sub">P001 · 1/1</text><text x="1326" y="978" class="eng-title-sub">2026-08-04</text></g></svg>