0
SECTION
2
HEADER
9
$ACADVER
1
AC1015
9
$INSUNITS
70
4
9
$EXTMIN
10
0
20
0
9
$EXTMAX
10
420
20
297
0
ENDSEC
0
SECTION
2
TABLES
0
TABLE
2
LTYPE
70
2
0
LTYPE
2
CONTINUOUS
70
0
3
Solid line
72
65
73
0
40
0
0
LTYPE
2
DASHED
70
0
3
Dashed __ __
72
65
73
2
40
6
49
4
74
0
49
-2
74
0
0
ENDTAB
0
TABLE
2
LAYER
70
10
0
LAYER
2
FRAME
70
0
62
3
420
1276501
6
CONTINUOUS
370
35
0
LAYER
2
NODES
70
0
62
1
420
14427686
6
CONTINUOUS
370
35
0
LAYER
2
NODE_TEXT
70
0
62
7
420
1120295
6
CONTINUOUS
370
18
0
LAYER
2
ROUTE_TEXT
70
0
62
7
420
1120295
6
CONTINUOUS
370
18
0
LAYER
2
TITLE
70
0
62
7
420
1120295
6
CONTINUOUS
370
18
0
LAYER
2
NOTES
70
0
62
8
420
3359061
6
CONTINUOUS
370
18
0
LAYER
2
REVIEW
70
0
62
1
420
15680580
6
CONTINUOUS
370
25
0
LAYER
2
DUCT_12W_7_3_5
70
0
62
7
420
6583435
6
CONTINUOUS
370
35
0
LAYER
2
DUCT_4W_7_3_5
70
0
62
7
420
6583435
6
CONTINUOUS
370
35
0
LAYER
2
DUCT_1W_7_3_5
70
0
62
7
420
6583435
6
CONTINUOUS
370
35
0
ENDTAB
0
TABLE
2
STYLE
70
1
0
STYLE
2
OPTIMUM_AR
70
0
40
0
41
1
50
0
71
0
42
2.5
3
Arial.ttf
4

0
ENDTAB
0
ENDSEC
0
SECTION
2
ENTITIES
0
LWPOLYLINE
8
FRAME
90
5
70
0
10
8
20
8
10
412
20
8
10
412
20
289
10
8
20
289
10
8
20
8
0
LWPOLYLINE
8
FRAME
90
5
70
0
10
10
20
10
10
410
20
10
10
410
20
287
10
10
20
287
10
10
20
10
0
LINE
8
FRAME
10
336
20
8
30
0
11
336
21
289
31
0
0
LINE
8
FRAME
10
336
20
64
30
0
11
412
21
64
31
0
0
LINE
8
FRAME
10
336
20
112
30
0
11
412
21
112
31
0
0
LINE
8
FRAME
10
336
20
184
30
0
11
412
21
184
31
0
0
LINE
8
FRAME
10
336
20
248
30
0
11
412
21
248
31
0
0
LWPOLYLINE
8
DUCT_12W_7_3_5
90
4
70
0
10
143.3
20
225.5549
10
105.375
20
229.27
10
105.375
20
204.67
10
62.735
20
200.493
0
MTEXT
8
ROUTE_TEXT
10
105.375
20
214.6012
30
0
40
2.2
41
72
50
0
71
1
72
1
7
OPTIMUM_AR
1
12way / 7/3.5 / Branch A
0
MTEXT
8
ROUTE_TEXT
10
105.375
20
211.3012
30
0
40
2.2
41
72
50
0
71
1
72
1
7
OPTIMUM_AR
1
\U+0631\U+0626\U+064A\U+0633\U+064A / \U+0623\U+0631\U+0636\U+064A
0
MTEXT
8
ROUTE_TEXT
10
105.375
20
208.0012
30
0
40
2.2
41
72
50
0
71
1
72
1
7
OPTIMUM_AR
1
FO-24C | 12W | 24C | 190 m | SUB-CAB 14-4 \U+2192 TB-01
0
LWPOLYLINE
8
DUCT_4W_7_3_5
90
4
70
0
10
55.15
20
194.215
10
55.15
20
194.83
10
55.15
20
157.93
10
55.15
20
157.315
0
MTEXT
8
ROUTE_TEXT
10
55.15
20
176.38
30
0
40
2.2
41
72
50
0
71
1
72
1
7
OPTIMUM_AR
1
4way / 7/3.5
0
MTEXT
8
ROUTE_TEXT
10
55.15
20
173.08
30
0
40
2.2
41
72
50
0
71
1
72
1
7
OPTIMUM_AR
1
\U+062B\U+0627\U+0646\U+0648\U+064A / \U+0623\U+0631\U+0636\U+064A
0
MTEXT
8
ROUTE_TEXT
10
55.15
20
169.78
30
0
40
2.2
41
72
50
0
71
1
72
1
7
OPTIMUM_AR
1
FO-24C | 4W | 24C | 157 m | TB-01 \U+2192 TB-02
0
LWPOLYLINE
8
DUCT_1W_7_3_5
90
4
70
0
10
55.15
20
168.385
10
55.15
20
167.77
10
55.15
20
128.82
10
55.15
20
129.435
0
MTEXT
8
ROUTE_TEXT
10
55.15
20
148.295
30
0
40
2.2
41
72
50
0
71
1
72
1
7
OPTIMUM_AR
1
1way / 7/3.5
0
MTEXT
8
ROUTE_TEXT
10
55.15
20
144.995
30
0
40
2.2
41
72
50
0
71
1
72
1
7
OPTIMUM_AR
1
\U+062A\U+0648\U+0635\U+064A\U+0644\U+0629 / \U+0623\U+0631\U+0636\U+064A
0
MTEXT
8
ROUTE_TEXT
10
55.15
20
141.695
30
0
40
2.2
41
72
50
0
71
1
72
1
7
OPTIMUM_AR
1
FO-24C | 1W | 24C | 124 m | TB-02 \U+2192 TB-03
0
LWPOLYLINE
8
DUCT_12W_7_3_5
90
4
70
0
10
167.9
20
222.505
10
188.4
20
219.43
10
188.4
20
194.83
10
213.615
20
198.6123
0
MTEXT
8
ROUTE_TEXT
10
188.4
20
204.7461
30
0
40
2.2
41
72
50
0
71
1
72
1
7
OPTIMUM_AR
1
12way / 7/3.5 / Branch B
0
MTEXT
8
ROUTE_TEXT
10
188.4
20
201.4461
30
0
40
2.2
41
72
50
0
71
1
72
1
7
OPTIMUM_AR
1
\U+0631\U+0626\U+064A\U+0633\U+064A / \U+0623\U+0631\U+0636\U+064A
0
MTEXT
8
ROUTE_TEXT
10
188.4
20
198.1461
30
0
40
2.2
41
72
50
0
71
1
72
1
7
OPTIMUM_AR
1
FO-24C | 12W | 24C | 72 m | SUB-CAB 14-4 \U+2192 TB-04
0
LWPOLYLINE
8
DUCT_4W_7_3_5
90
4
70
0
10
221.2
20
205.285
10
221.2
20
204.67
10
221.2
20
167.77
10
221.2
20
168.385
0
MTEXT
8
ROUTE_TEXT
10
221.2
20
186.22
30
0
40
2.2
41
72
50
0
71
1
72
1
7
OPTIMUM_AR
1
4way / 7/3.5
0
MTEXT
8
ROUTE_TEXT
10
221.2
20
182.92
30
0
40
2.2
41
72
50
0
71
1
72
1
7
OPTIMUM_AR
1
\U+062B\U+0627\U+0646\U+0648\U+064A / \U+0623\U+0631\U+0636\U+064A
0
MTEXT
8
ROUTE_TEXT
10
221.2
20
179.62
30
0
40
2.2
41
72
50
0
71
1
72
1
7
OPTIMUM_AR
1
FO-24C | 4W | 24C | 89 m | TB-04 \U+2192 TB-05
0
LWPOLYLINE
8
DUCT_1W_7_3_5
90
4
70
0
10
221.2
20
157.315
10
221.2
20
157.93
10
221.2
20
118.98
10
221.2
20
118.365
0
MTEXT
8
ROUTE_TEXT
10
221.2
20
138.455
30
0
40
2.2
41
72
50
0
71
1
72
1
7
OPTIMUM_AR
1
1way / 7/3.5
0
MTEXT
8
ROUTE_TEXT
10
221.2
20
135.155
30
0
40
2.2
41
72
50
0
71
1
72
1
7
OPTIMUM_AR
1
\U+062A\U+0648\U+0635\U+064A\U+0644\U+0629 / \U+0623\U+0631\U+0636\U+064A
0
MTEXT
8
ROUTE_TEXT
10
221.2
20
131.855
30
0
40
2.2
41
72
50
0
71
1
72
1
7
OPTIMUM_AR
1
FO-24C | 1W | 24C | 184 m | TB-05 \U+2192 TB-06
0
LWPOLYLINE
8
NODES
90
5
70
0
10
143.3
20
215.945
10
167.9
20
215.945
10
167.9
20
232.755
10
143.3
20
232.755
10
143.3
20
215.945
0
MTEXT
8
NODE_TEXT
10
155.6
20
226.85
30
0
40
2.15
41
72
50
0
71
1
72
1
7
OPTIMUM_AR
1
SUB-CAB 14-4
0
MTEXT
8
NODE_TEXT
10
155.6
20
223.75
30
0
40
2.15
41
72
50
0
71
1
72
1
7
OPTIMUM_AR
1
\U+0631\U+0626\U+064A\U+0633\U+064A | 144 \U+0643\U+0648\U+0631
0
MTEXT
8
NODE_TEXT
10
155.6
20
220.65
30
0
40
2.15
41
72
50
0
71
1
72
1
7
OPTIMUM_AR
1
ODF-144
0
LWPOLYLINE
8
NODES
90
5
70
0
10
47.565
20
194.215
10
62.735
20
194.215
10
62.735
20
205.285
10
47.565
20
205.285
10
47.565
20
194.215
0
MTEXT
8
NODE_TEXT
10
55.15
20
202.25
30
0
40
2.15
41
72
50
0
71
1
72
1
7
OPTIMUM_AR
1
TB-01
0
MTEXT
8
NODE_TEXT
10
55.15
20
199.15
30
0
40
2.15
41
72
50
0
71
1
72
1
7
OPTIMUM_AR
1
\U+0646\U+0647\U+0627\U+0626\U+064A | \U+0631\U+0642\U+0645 01 | 24 \U+0643\U+0648\U+0631
0
MTEXT
8
NODE_TEXT
10
55.15
20
196.05
30
0
40
2.15
41
72
50
0
71
1
72
1
7
OPTIMUM_AR
1
ODF-144 | SP-1X4 | \U+0643\U+0648\U+0631 01-04
0
LWPOLYLINE
8
NODES
90
5
70
0
10
47.565
20
157.315
10
62.735
20
157.315
10
62.735
20
168.385
10
47.565
20
168.385
10
47.565
20
157.315
0
MTEXT
8
NODE_TEXT
10
55.15
20
165.35
30
0
40
2.15
41
72
50
0
71
1
72
1
7
OPTIMUM_AR
1
TB-02
0
MTEXT
8
NODE_TEXT
10
55.15
20
162.25
30
0
40
2.15
41
72
50
0
71
1
72
1
7
OPTIMUM_AR
1
\U+0646\U+0647\U+0627\U+0626\U+064A | \U+0631\U+0642\U+0645 02 | 24 \U+0643\U+0648\U+0631
0
MTEXT
8
NODE_TEXT
10
55.15
20
159.15
30
0
40
2.15
41
72
50
0
71
1
72
1
7
OPTIMUM_AR
1
ODF-144 | SP-1X4 | \U+0643\U+0648\U+0631 05-08
0
LWPOLYLINE
8
NODES
90
5
70
0
10
47.565
20
118.365
10
62.735
20
118.365
10
62.735
20
129.435
10
47.565
20
129.435
10
47.565
20
118.365
0
MTEXT
8
NODE_TEXT
10
55.15
20
126.4
30
0
40
2.15
41
72
50
0
71
1
72
1
7
OPTIMUM_AR
1
TB-03
0
MTEXT
8
NODE_TEXT
10
55.15
20
123.3
30
0
40
2.15
41
72
50
0
71
1
72
1
7
OPTIMUM_AR
1
\U+0646\U+0647\U+0627\U+0626\U+064A | \U+0631\U+0642\U+0645 03 | 48 \U+0643\U+0648\U+0631
0
MTEXT
8
NODE_TEXT
10
55.15
20
120.2
30
0
40
2.15
41
72
50
0
71
1
72
1
7
OPTIMUM_AR
1
ODF-144 | SP-1X4 | \U+0643\U+0648\U+0631 09-12
0
LWPOLYLINE
8
NODES
90
5
70
0
10
213.615
20
194.215
10
228.785
20
194.215
10
228.785
20
205.285
10
213.615
20
205.285
10
213.615
20
194.215
0
MTEXT
8
NODE_TEXT
10
221.2
20
202.25
30
0
40
2.15
41
72
50
0
71
1
72
1
7
OPTIMUM_AR
1
TB-04
0
MTEXT
8
NODE_TEXT
10
221.2
20
199.15
30
0
40
2.15
41
72
50
0
71
1
72
1
7
OPTIMUM_AR
1
\U+0646\U+0647\U+0627\U+0626\U+064A | \U+0631\U+0642\U+0645 04 | 24 \U+0643\U+0648\U+0631
0
MTEXT
8
NODE_TEXT
10
221.2
20
196.05
30
0
40
2.15
41
72
50
0
71
1
72
1
7
OPTIMUM_AR
1
ODF-144 | SP-1X4 | \U+0643\U+0648\U+0631 13-16
0
LWPOLYLINE
8
NODES
90
5
70
0
10
213.615
20
157.315
10
228.785
20
157.315
10
228.785
20
168.385
10
213.615
20
168.385
10
213.615
20
157.315
0
MTEXT
8
NODE_TEXT
10
221.2
20
165.35
30
0
40
2.15
41
72
50
0
71
1
72
1
7
OPTIMUM_AR
1
TB-05
0
MTEXT
8
NODE_TEXT
10
221.2
20
162.25
30
0
40
2.15
41
72
50
0
71
1
72
1
7
OPTIMUM_AR
1
\U+0646\U+0647\U+0627\U+0626\U+064A | \U+0631\U+0642\U+0645 05 | 60 \U+0643\U+0648\U+0631
0
MTEXT
8
NODE_TEXT
10
221.2
20
159.15
30
0
40
2.15
41
72
50
0
71
1
72
1
7
OPTIMUM_AR
1
ODF-144 | SP-1X4 | \U+0643\U+0648\U+0631 17-20
0
LWPOLYLINE
8
NODES
90
5
70
0
10
213.615
20
118.365
10
228.785
20
118.365
10
228.785
20
129.435
10
213.615
20
129.435
10
213.615
20
118.365
0
MTEXT
8
NODE_TEXT
10
221.2
20
126.4
30
0
40
2.15
41
72
50
0
71
1
72
1
7
OPTIMUM_AR
1
TB-06
0
MTEXT
8
NODE_TEXT
10
221.2
20
123.3
30
0
40
2.15
41
72
50
0
71
1
72
1
7
OPTIMUM_AR
1
\U+0646\U+0647\U+0627\U+0626\U+064A | \U+0631\U+0642\U+0645 06 | 24 \U+0643\U+0648\U+0631
0
MTEXT
8
NODE_TEXT
10
221.2
20
120.2
30
0
40
2.15
41
72
50
0
71
1
72
1
7
OPTIMUM_AR
1
ODF-144 | SP-1X4 | \U+0643\U+0648\U+0631 21-24
0
MTEXT
8
NOTES
10
266.3
20
232.55
30
0
40
2
41
72
50
0
71
1
72
1
7
OPTIMUM_AR
1
N \U+2191
0
MTEXT
8
TITLE
10
340
20
279
30
0
40
3.5
41
72
50
0
71
1
72
1
7
OPTIMUM_AR
1
LEGEND / \U+0627\U+0644\U+0631\U+0645\U+0648\U+0632
0
MTEXT
8
TITLE
10
340
20
179
30
0
40
1.65
41
72
50
0
71
1
72
1
7
OPTIMUM_AR
1
PROJECT / \U+0627\U+0644\U+0645\U+0634\U+0631\U+0648\U+0639
0
MTEXT
8
TITLE
10
340
20
175
30
0
40
2.4
41
72
50
0
71
1
72
1
7
OPTIMUM_AR
1
Optimum Fiber Project
0
MTEXT
8
TITLE
10
340
20
168
30
0
40
1.65
41
72
50
0
71
1
72
1
7
OPTIMUM_AR
1
SITE / \U+0627\U+0644\U+0645\U+0648\U+0642\U+0639
0
MTEXT
8
TITLE
10
340
20
164
30
0
40
2.4
41
72
50
0
71
1
72
1
7
OPTIMUM_AR
1
Shatanouf 14-4
0
MTEXT
8
TITLE
10
340
20
157
30
0
40
1.65
41
72
50
0
71
1
72
1
7
OPTIMUM_AR
1
DRAWING NO.
0
MTEXT
8
TITLE
10
340
20
153
30
0
40
2.4
41
72
50
0
71
1
72
1
7
OPTIMUM_AR
1
ELEC-14-4-P1
0
MTEXT
8
TITLE
10
340
20
146
30
0
40
1.65
41
72
50
0
71
1
72
1
7
OPTIMUM_AR
1
TITLE / \U+0627\U+0644\U+0639\U+0646\U+0648\U+0627\U+0646
0
MTEXT
8
TITLE
10
340
20
142
30
0
40
2.4
41
72
50
0
71
1
72
1
7
OPTIMUM_AR
1
Secondary Fiber Network Line Diagram
0
MTEXT
8
TITLE
10
340
20
135
30
0
40
1.65
41
72
50
0
71
1
72
1
7
OPTIMUM_AR
1
REVISION
0
MTEXT
8
TITLE
10
340
20
131
30
0
40
2.4
41
72
50
0
71
1
72
1
7
OPTIMUM_AR
1
R0
0
MTEXT
8
TITLE
10
340
20
124
30
0
40
1.65
41
72
50
0
71
1
72
1
7
OPTIMUM_AR
1
STATUS
0
MTEXT
8
TITLE
10
340
20
120
30
0
40
2.4
41
72
50
0
71
1
72
1
7
OPTIMUM_AR
1
FOR CONSTRUCTION
0
MTEXT
8
TITLE
10
340
20
113
30
0
40
1.65
41
72
50
0
71
1
72
1
7
OPTIMUM_AR
1
SCALE
0
MTEXT
8
TITLE
10
340
20
109
30
0
40
2.4
41
72
50
0
71
1
72
1
7
OPTIMUM_AR
1
NTS
0
MTEXT
8
TITLE
10
340
20
102
30
0
40
1.65
41
72
50
0
71
1
72
1
7
OPTIMUM_AR
1
DATE
0
MTEXT
8
TITLE
10
340
20
98
30
0
40
2.4
41
72
50
0
71
1
72
1
7
OPTIMUM_AR
1
2026-08-04
0
MTEXT
8
TITLE
10
340
20
91
30
0
40
1.65
41
72
50
0
71
1
72
1
7
OPTIMUM_AR
1
COMPANY
0
MTEXT
8
TITLE
10
340
20
87
30
0
40
2.4
41
72
50
0
71
1
72
1
7
OPTIMUM_AR
1
Optimum Management
0
MTEXT
8
TITLE
10
340
20
58
30
0
40
2.3
41
72
50
0
71
1
72
1
7
OPTIMUM_AR
1
GENERAL NOTES / \U+0645\U+0644\U+0627\U+062D\U+0638\U+0627\U+062A
0
MTEXT
8
NOTES
10
340
20
53
30
0
40
1.8
41
72
50
0
71
1
72
1
7
OPTIMUM_AR
1
Secondary network line diagram. All lengths shall be verified on site before installation.
0
ENDSEC
0
EOF
