0
SECTION
2
HEADER
9
$ACADVER
1
AC1009
0
ENDSEC
0
SECTION
2
TABLES
0
ENDSEC
0
SECTION
2
ENTITIES
0
LINE
8
ROUTES
10
280
20
790
30
0
11
490
21
790
31
0
0
TEXT
8
LABELS
10
490
20
790
30
0
40
3
1
12-way MD · 82 m
0
LINE
8
ROUTES
10
590
20
790
30
0
11
700
21
790
31
0
0
LINE
8
ROUTES
10
700
20
790
30
0
11
700
21
860
31
0
0
LINE
8
ROUTES
10
700
20
860
30
0
11
792
21
860
31
0
0
TEXT
8
LABELS
10
700
20
860
30
0
40
3
1
4-way MD · 46 m
0
LINE
8
ROUTES
10
590
20
770
30
0
11
700
21
770
31
0
0
LINE
8
ROUTES
10
700
20
770
30
0
11
700
21
690
31
0
0
LINE
8
ROUTES
10
700
20
690
30
0
11
792
21
690
31
0
0
TEXT
8
LABELS
10
700
20
690
30
0
40
3
1
4-way MD · 55 m
0
LINE
8
ROUTES
10
888
20
860
30
0
11
980
21
860
31
0
0
LINE
8
ROUTES
10
980
20
860
30
0
11
980
21
780
31
0
0
LINE
8
ROUTES
10
980
20
780
30
0
11
1040
21
780
31
0
0
TEXT
8
LABELS
10
980
20
780
30
0
40
3
1
4-way MD · 38 m
0
LINE
8
NODES
10
160
20
752
30
0
11
280
21
752
31
0
0
LINE
8
NODES
10
280
20
752
30
0
11
280
21
828
31
0
0
LINE
8
NODES
10
280
20
828
30
0
11
160
21
828
31
0
0
LINE
8
NODES
10
160
20
828
30
0
11
160
21
752
31
0
0
TEXT
8
LABELS
10
220
20
790
30
0
40
3
1
SC-01
0
LINE
8
NODES
10
490
20
758
30
0
11
590
21
758
31
0
0
LINE
8
NODES
10
590
20
758
30
0
11
590
21
822
31
0
0
LINE
8
NODES
10
590
20
822
30
0
11
490
21
822
31
0
0
LINE
8
NODES
10
490
20
822
30
0
11
490
21
758
31
0
0
TEXT
8
LABELS
10
540
20
790
30
0
40
3
1
TB-01
0
LINE
8
NODES
10
792.5
20
830
30
0
11
887.5
21
830
31
0
0
LINE
8
NODES
10
887.5
20
830
30
0
11
887.5
21
890
31
0
0
LINE
8
NODES
10
887.5
20
890
30
0
11
792.5
21
890
31
0
0
LINE
8
NODES
10
792.5
20
890
30
0
11
792.5
21
830
31
0
0
TEXT
8
LABELS
10
840
20
860
30
0
40
3
1
TB-02
0
LINE
8
NODES
10
792.5
20
660
30
0
11
887.5
21
660
31
0
0
LINE
8
NODES
10
887.5
20
660
30
0
11
887.5
21
720
31
0
0
LINE
8
NODES
10
887.5
20
720
30
0
11
792.5
21
720
31
0
0
LINE
8
NODES
10
792.5
20
720
30
0
11
792.5
21
660
31
0
0
TEXT
8
LABELS
10
840
20
690
30
0
40
3
1
TB-03
0
LINE
8
NODES
10
1040
20
740
30
0
11
1120
21
740
31
0
0
LINE
8
NODES
10
1120
20
740
30
0
11
1120
21
820
31
0
0
LINE
8
NODES
10
1120
20
820
30
0
11
1040
21
820
31
0
0
LINE
8
NODES
10
1040
20
820
30
0
11
1040
21
740
31
0
0
TEXT
8
LABELS
10
1080
20
780
30
0
40
3
1
MH-01
0
TEXT
8
TEXT
10
190
20
915
30
0
40
4.68
1
SECONDARY FIBER NETWORK
0
TEXT
8
TITLE
10
20
20
20
30
0
40
4
1
P001-FIBER-SLD-001
0
TEXT
8
TITLE
10
20
20
12
30
0
40
3
1
Secondary Fiber Network
0
ENDSEC
0
EOF
